<svg width="76" height="76" viewBox="0 0 76 76" fill="none" xmlns="http://www.w3.org/2000/svg">
<path d="M69.95 40.27V36.7299C69.95 35.33 68.81 34.19 67.41 34.19H42.61C42.09 32.37 40.43 31.06 38.5 31.06C37.92 31.06 37.37 31.17 36.85 31.39C36.11 28.94 33.84 27.2 31.19 27.2C30.37 27.2 29.57 27.37 28.83 27.69C28.21 26.34 26.85 25.43 25.3 25.43C23.16 25.43 21.41 27.17 21.41 29.32C21.41 30.16 21.68 30.97 22.18 31.64C21.45 32.33 20.96 33.22 20.73 34.19H11.38V15.65C11.38 13.04 13.5 10.91 16.12 10.91C18.74 10.91 20.86 13.03 20.86 15.65V16.94H19.79C18.01 16.94 16.55 18.39 16.55 20.18V21.29C16.55 22.05 17.16 22.66 17.92 22.66H25.23C25.99 22.66 26.6 22.04 26.6 21.29V20.18C26.6 18.4 25.15 16.94 23.36 16.94H22.3V15.65C22.3 12.23 19.52 9.44995 16.1 9.44995C12.68 9.44995 9.9 12.23 9.9 15.65V34.19H8.54C7.14 34.19 6 35.33 6 36.7299V40.27C6 41.67 7.14 42.81 8.54 42.81H67.41C68.81 42.81 69.95 41.67 69.95 40.27ZM25.14 20.18V21.2H18.02V20.18C18.02 19.2 18.81 18.41 19.79 18.41H23.37C24.35 18.41 25.14 19.2 25.14 20.18ZM23.66 32.32C23.85 32.19 23.97 31.9799 23.98 31.76C23.99 31.53 23.9 31.3099 23.73 31.16C23.18 30.69 22.88 30.0299 22.88 29.32C22.88 27.9799 23.97 26.9 25.3 26.9C26.47 26.9 27.47 27.73 27.68 28.88C27.72 29.12 27.88 29.32 28.11 29.42C28.33 29.52 28.59 29.5 28.8 29.36C29.51 28.9 30.34 28.66 31.19 28.66C33.46 28.66 35.35 30.35 35.6 32.6C35.63 32.86 35.8 33.09 36.04 33.19C36.28 33.29 36.56 33.26 36.77 33.1C37.27 32.72 37.87 32.52 38.5 32.52C39.63 32.52 40.62 33.19 41.07 34.18H22.24C22.49 33.43 22.99 32.77 23.66 32.32ZM7.47 40.27V36.7299C7.47 36.1399 7.95 35.66 8.54 35.66H67.41C68 35.66 68.48 36.1399 68.48 36.7299V40.27C68.48 40.86 68 41.34 67.41 41.34H8.54C7.95 41.34 7.47 40.86 7.47 40.27Z" fill="#59ACF3"/>
<path d="M64.5703 44.51V50.54C64.5703 50.94 64.9003 51.27 65.3003 51.27C65.7003 51.27 66.0303 50.94 66.0303 50.54V44.51C66.0303 44.11 65.7003 43.78 65.3003 43.78C64.9003 43.78 64.5703 44.11 64.5703 44.51Z" fill="#59ACF3"/>
<path d="M37.0698 24.38H65.9498C66.3498 24.38 66.6798 24.05 66.6798 23.65C66.6798 23.25 66.3498 22.92 65.9498 22.92H64.5698V19.6C64.5698 18.71 63.8398 17.98 62.9498 17.98H62.0798L59.0098 14.91C58.7198 14.62 58.2598 14.62 57.9698 14.91L54.8898 17.98H54.0198C53.1298 17.98 52.3998 18.71 52.3998 19.6V22.92H48.1898C48.2698 22.74 48.3498 22.54 48.3798 22.34L48.7498 20.33C48.7498 20.32 48.7598 20.32 48.7598 20.31L49.4998 16.23V16.22L49.8498 14.28C49.9898 13.52 49.7898 12.76 49.3098 12.17C48.8198 11.58 48.0998 11.24 47.3198 11.24H46.9098V8.99C46.9098 7.34 45.5698 6 43.9198 6C42.2698 6 40.9298 7.34 40.9298 8.99V11.23H40.5198C39.7498 11.23 39.0198 11.57 38.5298 12.16C38.0498 12.76 37.8498 13.53 37.9898 14.27L39.4598 22.33C39.4998 22.54 39.5698 22.73 39.6498 22.91H37.0698C36.6698 22.91 36.3398 23.24 36.3398 23.64C36.3398 24.05 36.6698 24.38 37.0698 24.38ZM58.4998 16.45L60.0198 17.97H56.9798L58.4998 16.45ZM53.8898 19.59C53.8898 19.51 53.9598 19.44 54.0398 19.44H62.9598C63.0398 19.44 63.1098 19.51 63.1098 19.59V22.91H53.8898V19.59ZM47.4198 19.44H44.5198C44.4398 19.44 44.3798 19.38 44.3798 19.3V16.96C44.3798 16.88 44.4398 16.82 44.5198 16.82H47.8998L47.4198 19.44ZM42.3998 8.99C42.3998 8.15 43.0798 7.47 43.9198 7.47C44.7598 7.47 45.4398 8.15 45.4398 8.99V11.23H42.3898V8.99H42.3998ZM39.4298 14C39.3698 13.68 39.4498 13.36 39.6598 13.11C39.8698 12.85 40.1798 12.71 40.5198 12.71H47.3198C47.6498 12.71 47.9598 12.86 48.1798 13.11C48.3898 13.36 48.4698 13.69 48.4098 14.01C48.4098 14.01 48.4098 14.01 48.4098 14.02L48.1598 15.37H44.5198C43.6398 15.37 42.9198 16.09 42.9198 16.97V19.31C42.9198 20.19 43.6398 20.91 44.5198 20.91H47.1598L46.9498 22.07C46.8598 22.56 46.4298 22.92 45.9298 22.92H41.9198C41.4198 22.92 40.9898 22.56 40.8998 22.08L39.4298 14Z" fill="#59ACF3"/>
<path d="M65.9598 68.0701H54.3998V64.2801C55.7198 64.0601 56.9998 63.6701 58.2098 63.0801C58.5698 62.9001 58.7198 62.4601 58.5498 62.1001C58.3698 61.7401 57.9298 61.5901 57.5698 61.7601C55.8598 62.6001 54.0098 63.0201 52.0898 63.0201H23.8598C18.6598 63.0201 14.1998 59.8201 12.3198 55.2901H29.2398C29.6398 55.2901 29.9698 54.9601 29.9698 54.5601C29.9698 50.4101 26.5998 47.0401 22.4498 47.0401H11.3798V44.8001C11.3798 44.4001 11.0498 44.0701 10.6498 44.0701C10.2498 44.0701 9.91977 44.4001 9.91977 44.8001V50.5301C9.91977 57.4301 14.9598 63.1601 21.5598 64.2701V68.0601H9.98977C9.58977 68.0601 9.25977 68.3901 9.25977 68.7901C9.25977 69.1901 9.58977 69.5201 9.98977 69.5201H65.9598C66.3598 69.5201 66.6898 69.1901 66.6898 68.7901C66.6898 68.4001 66.3598 68.0701 65.9598 68.0701ZM22.4498 48.5101C25.5398 48.5101 28.0998 50.8401 28.4598 53.8301H11.8298C11.6598 53.2001 11.5198 52.5501 11.4498 51.8801C11.4498 51.8401 11.4398 51.7901 11.4398 51.7501C11.3998 51.3501 11.3798 50.9501 11.3798 50.5401V48.5101H22.4498ZM52.9298 64.4901V68.0701H51.1998L49.1598 64.4901H52.0798C52.0898 64.4901 52.0898 64.4901 52.0998 64.4901H52.9298ZM47.4698 64.4901L49.5098 68.0701H26.4298L28.4698 64.4901H47.4698ZM23.0198 64.4901H23.8498C23.8598 64.4901 23.8598 64.4901 23.8698 64.4901H26.7898L24.7498 68.0701H23.0198V64.4901Z" fill="#59ACF3"/>
<path d="M66.0698 53.0701C65.5798 53.0701 65.0998 53.1601 64.6498 53.3301C63.9598 51.1601 61.9298 49.6301 59.5698 49.6301C58.8598 49.6301 58.1598 49.7701 57.5098 50.0401C56.9298 48.8501 55.7098 48.0601 54.3298 48.0601C52.3798 48.0601 50.7898 49.6501 50.7898 51.6001C50.7898 52.3401 51.0198 53.0601 51.4498 53.6501C50.5598 54.5201 50.0498 55.7101 50.0498 56.9801C50.0498 59.5401 52.1298 61.6201 54.6898 61.6201C56.0198 61.6201 57.2398 61.0801 58.1198 60.1101C59.7098 60.5501 61.5198 60.2001 62.8298 59.1901C63.5498 60.2401 64.7498 60.9001 66.0698 60.9001C68.2198 60.9001 69.9798 59.1401 69.9798 56.9801C69.9798 54.8201 68.2298 53.0701 66.0698 53.0701ZM66.0698 59.4301C65.0098 59.4301 64.0798 58.7501 63.7398 57.7501C63.6598 57.5001 63.4498 57.3101 63.1898 57.2601C62.9298 57.2101 62.6598 57.3001 62.4898 57.5001C61.4298 58.7301 59.5998 59.1401 58.1398 58.5701C57.8298 58.4501 57.4698 58.5501 57.2798 58.8201C56.6698 59.6601 55.7298 60.1501 54.6898 60.1501C52.9398 60.1501 51.5098 58.7301 51.5098 56.9701C51.5098 55.9101 52.0298 54.9301 52.9098 54.3301C53.0998 54.2001 53.2198 53.9901 53.2298 53.7701C53.2398 53.5401 53.1498 53.3201 52.9798 53.1701C52.5098 52.7601 52.2498 52.2001 52.2498 51.5901C52.2498 50.4501 53.1798 49.5201 54.3198 49.5201C55.3198 49.5201 56.1798 50.2301 56.3498 51.2101C56.3898 51.4501 56.5498 51.6501 56.7798 51.7501C56.9998 51.8501 57.2598 51.8301 57.4698 51.6901C58.0898 51.2901 58.8098 51.0801 59.5498 51.0801C61.5198 51.0801 63.1798 52.5601 63.3898 54.5101C63.4198 54.7701 63.5898 55.0001 63.8298 55.1001C64.0698 55.2001 64.3498 55.1701 64.5598 55.0101C64.9898 54.6901 65.5098 54.5101 66.0498 54.5101C67.3998 54.5101 68.4898 55.6101 68.4898 56.9501C68.5098 58.3301 67.4198 59.4301 66.0698 59.4301Z" fill="#59ACF3"/>
<path d="M41.7402 29.5C41.7402 31.01 42.9702 32.24 44.4802 32.24C45.9902 32.24 47.2202 31.01 47.2202 29.5C47.2202 28 45.9902 26.77 44.4802 26.77C42.9702 26.77 41.7402 28 41.7402 29.5ZM45.7502 29.5C45.7502 30.2 45.1802 30.77 44.4802 30.77C43.7802 30.77 43.2102 30.2 43.2102 29.5C43.2102 28.81 43.7802 28.24 44.4802 28.24C45.1802 28.24 45.7502 28.81 45.7502 29.5Z" fill="#59ACF3"/>
</svg>
