<svg width="76" height="76" viewBox="0 0 76 76" fill="none" xmlns="http://www.w3.org/2000/svg">
<path d="M66.48 45.2611H56.41L57.69 43.9811C58.15 43.5211 58.4 42.9211 58.4 42.2711C58.4 41.6311 58.15 41.0211 57.69 40.5611L51.63 34.5011C50.72 33.5911 49.12 33.5911 48.21 34.5011L42.14 40.5611C41.89 40.8111 41.71 41.1111 41.59 41.4211H34.03C33.91 41.1111 33.73 40.8111 33.48 40.5611L27.42 34.5011C26.51 33.5911 24.91 33.5911 24 34.5011L17.93 40.5611C17.47 41.0211 17.22 41.6211 17.22 42.2711C17.22 42.9211 17.47 43.5211 17.93 43.9811L19.21 45.2611H9.16C7.97 45.2611 7 46.2311 7 47.4211V60.6811C7 62.3711 8.37 63.7411 10.06 63.7411H13.93V68.5211H9.17C8.77 68.5211 8.44 68.8511 8.44 69.2511C8.44 69.6511 8.77 69.9811 9.17 69.9811H66.47C66.87 69.9811 67.2 69.6511 67.2 69.2511C67.2 68.8511 66.87 68.5211 66.47 68.5211H61.71V63.7411H65.58C67.27 63.7411 68.64 62.3711 68.64 60.6811V47.4211C68.64 46.2311 67.67 45.2611 66.48 45.2611ZM49.25 35.5311C49.61 35.1711 50.23 35.1711 50.59 35.5311L56.65 41.5911C56.83 41.7711 56.93 42.0111 56.93 42.2611C56.93 42.5111 56.83 42.7511 56.65 42.9311L54.49 45.0911H45.33L43.17 42.9311C43.02 42.7811 42.94 42.5911 42.92 42.3811C42.95 42.3111 42.97 42.2311 42.97 42.1411C42.97 42.1011 42.95 42.0611 42.95 42.0211C42.99 41.8611 43.06 41.7111 43.18 41.5811L49.25 35.5311ZM18.71 42.2711C18.71 42.0211 18.81 41.7811 18.99 41.6011L25.06 35.5411C25.42 35.1811 26.04 35.1811 26.4 35.5411L32.46 41.6011C32.58 41.7211 32.65 41.8811 32.69 42.0411C32.68 42.0811 32.67 42.1211 32.67 42.1611C32.67 42.2411 32.69 42.3211 32.72 42.3911C32.69 42.6011 32.62 42.7911 32.46 42.9411L30.3 45.1011H21.14L18.98 42.9411C18.8 42.7611 18.71 42.5211 18.71 42.2711ZM33.49 43.9811C33.8 43.6711 34 43.2911 34.11 42.8911H41.53C41.64 43.2911 41.83 43.6711 42.15 43.9811L43.43 45.2611H32.21L33.49 43.9811ZM9.16 46.7211H66.49C66.87 46.7211 67.19 47.0311 67.19 47.4211V57.4911H8.46V47.4211C8.46 47.0411 8.77 46.7211 9.16 46.7211ZM15.4 68.5211V63.7411H20.34L18.08 68.5211H15.4ZM53.68 63.7511L55.94 68.5311H19.69L21.95 63.7511H53.68ZM60.24 68.5211H57.56L55.3 63.7411H60.24V68.5211ZM67.18 60.6811C67.18 61.5611 66.46 62.2811 65.58 62.2811H10.06C9.18 62.2811 8.46 61.5611 8.46 60.6811V58.9511H67.18V60.6811Z" fill="#59ACF3"/>
<path d="M12.3296 42.9013C12.7296 42.9013 13.0596 42.5713 13.0596 42.1713V32.5913C13.0596 30.6413 14.6396 29.0613 16.5896 29.0613H24.5496C24.9496 29.0613 25.2796 28.7313 25.2796 28.3313C25.2796 27.9313 24.9496 27.6013 24.5496 27.6013H16.5896C13.8396 27.6013 11.5996 29.8413 11.5996 32.5913V42.1713C11.5996 42.5713 11.9296 42.9013 12.3296 42.9013Z" fill="#59ACF3"/>
<path d="M55.53 29.0613H59.05C61 29.0613 62.58 30.6413 62.58 32.5913V42.1713C62.58 42.5713 62.91 42.9013 63.31 42.9013C63.71 42.9013 64.04 42.5713 64.04 42.1713V32.5913C64.04 29.8413 61.8 27.6013 59.05 27.6013H55.53C55.13 27.6013 54.8 27.9313 54.8 28.3313C54.79 28.7413 55.12 29.0613 55.53 29.0613Z" fill="#59ACF3"/>
<path d="M43.5496 33.8813C43.6696 33.9213 43.7896 33.9313 43.9196 33.9313C44.2596 33.9313 44.5896 33.8013 44.8396 33.5513C45.1796 33.2113 45.3096 32.7113 45.1696 32.2513C43.6596 27.1813 46.2796 22.4913 48.7296 19.4513C49.5196 18.4713 49.8796 17.2513 49.7496 16.0013C49.6996 15.5613 49.5796 15.1413 49.4196 14.7413L53.5296 9.72131C53.9196 9.25131 54.0996 8.66131 54.0396 8.06131C53.9796 7.46131 53.6896 6.91131 53.2196 6.52131C52.7496 6.13131 52.1496 5.95131 51.5496 6.01131C50.9496 6.07131 50.3996 6.36131 50.0096 6.83131L45.8696 11.8913C45.5196 11.8413 45.1596 11.8113 44.7896 11.8413C43.4296 11.9413 42.1396 12.5913 41.2496 13.6313C38.7696 16.5513 34.7396 19.9313 29.5596 19.4513C29.0796 19.4013 28.6196 19.6313 28.3496 20.0413C28.0796 20.4513 28.0596 20.9613 28.2896 21.3813C31.7896 27.6913 36.9196 31.9113 43.5496 33.8813ZM51.1496 7.75131C51.2896 7.58131 51.4796 7.48131 51.6996 7.46131C51.9096 7.44131 52.1296 7.50131 52.2896 7.64131C52.4596 7.78131 52.5596 7.97131 52.5796 8.19131C52.5996 8.40131 52.5396 8.61131 52.3996 8.78131L48.6196 13.4013C48.4796 13.2413 48.3496 13.0813 48.1896 12.9413C47.9396 12.7213 47.6596 12.5313 47.3696 12.3813L51.1496 7.75131ZM42.3796 14.5613C43.0096 13.8213 43.9296 13.3513 44.8996 13.2913C45.7696 13.2313 46.5896 13.4913 47.2096 14.0413C47.8296 14.5813 48.2096 15.3313 48.2996 16.1513C48.3896 17.0113 48.1396 17.8613 47.5996 18.5313C44.9596 21.7913 42.1696 26.8213 43.6896 32.3913C42.9196 32.1513 42.1696 31.8813 41.4396 31.5713C40.9796 29.2013 42.4396 26.9413 42.4496 26.9113C42.6696 26.5713 42.5796 26.1213 42.2396 25.8913C41.8996 25.6713 41.4496 25.7613 41.2296 26.1013C41.1596 26.2013 39.8096 28.3013 39.8896 30.8313C38.7896 30.2813 37.7596 29.6313 36.7796 28.9213C37.7496 25.9413 40.2596 24.1113 40.2896 24.0913C40.6196 23.8613 40.6996 23.4013 40.4596 23.0713C40.2296 22.7413 39.7696 22.6613 39.4396 22.9013C39.3096 22.9913 36.7596 24.8413 35.5396 27.9913C34.3496 27.0013 33.2496 25.8713 32.2496 24.6213C34.7396 24.2013 36.5096 22.4713 36.5896 22.3913C36.8796 22.1013 36.8796 21.6413 36.5896 21.3513C36.3096 21.0613 35.8396 21.0613 35.5496 21.3413C35.5296 21.3613 33.6096 23.1813 31.1896 23.2213C30.6796 22.4813 30.1796 21.7213 29.7296 20.9113C35.3896 21.3113 39.7296 17.6913 42.3796 14.5613Z" fill="#59ACF3"/>
<path d="M28.3694 32.9013C28.8194 33.2413 29.3594 33.4213 29.9094 33.4213C30.0294 33.4213 30.1394 33.4113 30.2594 33.4013C30.9394 33.3113 31.5394 32.9613 31.9494 32.4113C32.3594 31.8713 32.5394 31.1913 32.4494 30.5213C32.3594 29.8413 32.0094 29.2413 31.4594 28.8213C30.9194 28.4113 30.2394 28.2313 29.5594 28.3213C28.1594 28.5113 27.1794 29.8113 27.3794 31.2113C27.4694 31.8913 27.8194 32.4913 28.3694 32.9013ZM29.7594 29.7713C29.8094 29.7613 29.8594 29.7613 29.9094 29.7613C30.1494 29.7613 30.3794 29.8413 30.5694 29.9813C30.7994 30.1613 30.9494 30.4213 30.9894 30.7113C31.0294 31.0013 30.9494 31.2813 30.7794 31.5213C30.5994 31.7513 30.3394 31.9013 30.0494 31.9413C29.7594 31.9813 29.4794 31.9013 29.2394 31.7313C29.0094 31.5513 28.8594 31.3013 28.8194 31.0113C28.7494 30.4113 29.1694 29.8613 29.7594 29.7713Z" fill="#59ACF3"/>
<path d="M33.66 12.9412C33.78 12.9412 33.91 12.9312 34.04 12.9112C34.78 12.8112 35.44 12.4312 35.89 11.8312C36.34 11.2412 36.53 10.5012 36.43 9.77118C36.33 9.03118 35.95 8.37118 35.35 7.92118C34.75 7.47118 34.01 7.27118 33.28 7.38118C32.54 7.48118 31.89 7.86118 31.44 8.46118C30.99 9.05118 30.8 9.79118 30.9 10.5312C31.09 11.9312 32.29 12.9412 33.66 12.9412ZM32.61 9.35118C32.82 9.07118 33.13 8.89118 33.48 8.84118C33.54 8.83118 33.6 8.83118 33.66 8.83118C33.95 8.83118 34.23 8.92118 34.46 9.10118C34.74 9.31118 34.92 9.63118 34.97 9.98118C35.02 10.3312 34.93 10.6812 34.71 10.9612C34.5 11.2412 34.18 11.4212 33.83 11.4712C33.1 11.5812 32.44 11.0612 32.34 10.3412C32.3 9.98118 32.39 9.63118 32.61 9.35118Z" fill="#59ACF3"/>
<path d="M52.2797 25.5513C51.6097 25.0413 50.7797 24.8313 49.9497 24.9413C49.1197 25.0513 48.3897 25.4813 47.8797 26.1513C47.3697 26.8213 47.1597 27.6413 47.2697 28.4713C47.4797 30.0413 48.8297 31.1813 50.3697 31.1813C50.5097 31.1813 50.6497 31.1713 50.7997 31.1513C51.6297 31.0413 52.3697 30.6113 52.8797 29.9413C53.3897 29.2713 53.5997 28.4513 53.4897 27.6213C53.3797 26.8013 52.9397 26.0613 52.2797 25.5513ZM51.7097 29.0613C51.4397 29.4213 51.0397 29.6413 50.5997 29.7113C50.1597 29.7713 49.7197 29.6613 49.3697 29.3913C49.0197 29.1213 48.7897 28.7313 48.7297 28.2913C48.6697 27.8513 48.7797 27.4113 49.0497 27.0513C49.3197 26.7013 49.7097 26.4713 50.1497 26.4113C50.2297 26.4013 50.2997 26.3913 50.3797 26.3913C50.7397 26.3913 51.0897 26.5113 51.3897 26.7313C51.7497 27.0013 51.9697 27.3913 52.0397 27.8413C52.0997 28.2713 51.9797 28.7113 51.7097 29.0613Z" fill="#59ACF3"/>
</svg>
