<svg width="76" height="76" viewBox="0 0 76 76" fill="none" xmlns="http://www.w3.org/2000/svg">
<path d="M43.9609 59.06C43.6909 58.84 43.3109 58.84 43.0409 59.06L38.3609 62.83L33.6809 59.06C33.4109 58.84 33.0309 58.84 32.7609 59.06L31.4209 60.14C31.1009 60.39 31.0609 60.85 31.3109 61.17C31.5609 61.48 32.0309 61.53 32.3409 61.28L33.2209 60.57L37.9009 64.34C38.1709 64.56 38.5509 64.56 38.8209 64.34L43.5009 60.57L48.1809 64.34C48.3209 64.45 48.4809 64.5 48.6409 64.5C48.8509 64.5 49.0709 64.41 49.2109 64.23C49.4609 63.92 49.4109 63.45 49.1009 63.2L43.9609 59.06Z" fill="#59ACF3"/>
<path d="M17.7808 37.8C18.1808 37.8 18.5108 37.47 18.5108 37.07V8.13C18.5108 7.76 18.8108 7.46 19.1808 7.46H57.5208C57.8908 7.46 58.1908 7.76 58.1908 8.13V48.15C58.1908 48.55 58.5208 48.88 58.9208 48.88C59.3208 48.88 59.6508 48.55 59.6508 48.15V8.13C59.6508 6.96 58.6908 6 57.5208 6H19.1808C18.0108 6 17.0508 6.96 17.0508 8.13V37.07C17.0508 37.47 17.3808 37.8 17.7808 37.8Z" fill="#59ACF3"/>
<path d="M51.9108 18.69V12.66C51.9108 11.75 51.1708 11 50.2508 11H26.4608C25.5508 11 24.8008 11.74 24.8008 12.66V18.68C24.8008 19.59 25.5408 20.34 26.4608 20.34H50.2508C51.1708 20.34 51.9108 19.6 51.9108 18.69ZM26.2608 18.69V12.66C26.2608 12.55 26.3508 12.47 26.4508 12.47H50.2408C50.3508 12.47 50.4308 12.56 50.4308 12.66V18.68C50.4308 18.79 50.3408 18.87 50.2408 18.87H26.4608C26.3508 18.88 26.2608 18.79 26.2608 18.69Z" fill="#59ACF3"/>
<path d="M22.7007 27.0303H32.9707C33.3707 27.0303 33.7007 26.7003 33.7007 26.3003C33.7007 25.9003 33.3707 25.5703 32.9707 25.5703H22.7007C22.3007 25.5703 21.9707 25.9003 21.9707 26.3003C21.9707 26.7003 22.3007 27.0303 22.7007 27.0303Z" fill="#59ACF3"/>
<path d="M22.7007 32.0904H36.7907C37.1907 32.0904 37.5207 31.7604 37.5207 31.3604C37.5207 30.9604 37.1907 30.6304 36.7907 30.6304H22.7007C22.3007 30.6304 21.9707 30.9604 21.9707 31.3604C21.9707 31.7604 22.3007 32.0904 22.7007 32.0904Z" fill="#59ACF3"/>
<path d="M41.6407 35.6802H22.7007C22.3007 35.6802 21.9707 36.0102 21.9707 36.4102C21.9707 36.8102 22.3007 37.1402 22.7007 37.1402H41.6307C42.0307 37.1402 42.3607 36.8102 42.3607 36.4102C42.3607 36.0102 42.0407 35.6802 41.6407 35.6802Z" fill="#59ACF3"/>
<path d="M33.7014 41.4702C33.7014 41.0702 33.3714 40.7402 32.9714 40.7402H26.9214C26.5214 40.7402 26.1914 41.0702 26.1914 41.4702C26.1914 41.8702 26.5214 42.2002 26.9214 42.2002H32.9714C33.3714 42.2002 33.7014 41.8702 33.7014 41.4702Z" fill="#59ACF3"/>
<path d="M30.2105 47.2603H41.6405C42.0405 47.2603 42.3705 46.9303 42.3705 46.5303C42.3705 46.1303 42.0405 45.8003 41.6405 45.8003H30.2105C29.8105 45.8003 29.4805 46.1303 29.4805 46.5303C29.4805 46.9303 29.8105 47.2603 30.2105 47.2603Z" fill="#59ACF3"/>
<path d="M54.0111 25.5601H50.1011C49.7011 25.5601 49.3711 25.8901 49.3711 26.2901C49.3711 26.6901 49.7011 27.0201 50.1011 27.0201H54.0111C54.4111 27.0201 54.7411 26.6901 54.7411 26.2901C54.7411 25.8901 54.4111 25.5601 54.0111 25.5601Z" fill="#59ACF3"/>
<path d="M54.0118 30.6201H47.8218C47.4218 30.6201 47.0918 30.9501 47.0918 31.3501C47.0918 31.7501 47.4218 32.0801 47.8218 32.0801H54.0118C54.4118 32.0801 54.7418 31.7501 54.7418 31.3501C54.7418 30.9501 54.4118 30.6201 54.0118 30.6201Z" fill="#59ACF3"/>
<path d="M54.0101 35.6802H52.0601C51.6601 35.6802 51.3301 36.0102 51.3301 36.4102C51.3301 36.8102 51.6601 37.1402 52.0601 37.1402H54.0101C54.4101 37.1402 54.7401 36.8102 54.7401 36.4102C54.7401 36.0102 54.4101 35.6802 54.0101 35.6802Z" fill="#59ACF3"/>
<path d="M54.0118 40.7402H47.8218C47.4218 40.7402 47.0918 41.0702 47.0918 41.4702C47.0918 41.8702 47.4218 42.2002 47.8218 42.2002H54.0118C54.4118 42.2002 54.7418 41.8702 54.7418 41.4702C54.7418 41.0702 54.4118 40.7402 54.0118 40.7402Z" fill="#59ACF3"/>
<path d="M54.7411 46.5303C54.7411 46.1303 54.4111 45.8003 54.0111 45.8003H50.1011C49.7011 45.8003 49.3711 46.1303 49.3711 46.5303C49.3711 46.9303 49.7011 47.2603 50.1011 47.2603H54.0111C54.4111 47.2603 54.7411 46.9303 54.7411 46.5303Z" fill="#59ACF3"/>
<path d="M35.3901 54.9201V51.2501C35.3901 50.5001 34.7801 49.8901 34.0301 49.8901H30.5601C30.1601 49.8901 29.8301 50.2201 29.8301 50.6201C29.8301 51.0201 30.1601 51.3501 30.5601 51.3501H33.9201V54.8001H30.5601C30.1601 54.8001 29.8301 55.1301 29.8301 55.5301C29.8301 55.9301 30.1601 56.2601 30.5601 56.2601H34.0301C34.7901 56.2701 35.3901 55.6601 35.3901 54.9201Z" fill="#59ACF3"/>
<path d="M47.5405 53.8101H50.2305C50.6305 53.8101 50.9605 53.4801 50.9605 53.0801C50.9605 52.6801 50.6305 52.3501 50.2305 52.3501H47.5405C47.1405 52.3501 46.8105 52.6801 46.8105 53.0801C46.8105 53.4801 47.1405 53.8101 47.5405 53.8101Z" fill="#59ACF3"/>
<path d="M18.611 56.1404V55.5104C19.821 55.1904 20.721 54.0904 20.721 52.7804C20.721 51.2104 19.451 49.9404 17.881 49.9404C17.121 49.9404 16.501 49.3204 16.501 48.5604C16.501 47.8204 17.091 47.2104 17.831 47.1804C17.851 47.1804 17.861 47.1904 17.881 47.1904C17.901 47.1904 17.911 47.1804 17.931 47.1804C18.671 47.2104 19.261 47.8104 19.261 48.5604C19.261 48.9604 19.591 49.2904 19.991 49.2904C20.391 49.2904 20.721 48.9604 20.721 48.5604C20.721 47.2504 19.821 46.1504 18.611 45.8204V45.1904C18.611 44.7904 18.281 44.4604 17.881 44.4604C17.481 44.4604 17.151 44.7904 17.151 45.1904V45.8204C15.941 46.1504 15.041 47.2404 15.041 48.5604C15.041 50.1304 16.321 51.4004 17.881 51.4004C18.641 51.4004 19.261 52.0204 19.261 52.7804C19.261 53.5204 18.671 54.1304 17.931 54.1504C17.911 54.1504 17.901 54.1404 17.881 54.1404C17.861 54.1404 17.851 54.1504 17.831 54.1504C17.091 54.1204 16.501 53.5204 16.501 52.7804C16.501 52.3804 16.171 52.0504 15.771 52.0504C15.371 52.0504 15.041 52.3804 15.041 52.7804C15.041 54.0904 15.941 55.1804 17.151 55.5104V56.1404C17.151 56.5404 17.481 56.8704 17.881 56.8704C18.281 56.8704 18.611 56.5404 18.611 56.1404Z" fill="#59ACF3"/>
<path d="M28.0601 59.9804H23.2701C26.4801 58.1104 28.6501 54.6404 28.6501 50.6604C28.6501 44.7104 23.8101 39.8804 17.8701 39.8804C11.9301 39.8804 7.1001 44.7204 7.1001 50.6604C7.1001 54.6404 9.2701 58.1104 12.4801 59.9804H7.6901C6.7601 59.9804 6.0001 60.7404 6.0001 61.6704V67.2604C5.9901 68.2104 6.7501 68.9704 7.6901 68.9704H28.0701C29.0001 68.9704 29.7601 68.2104 29.7601 67.2804V61.6904C29.7601 60.7404 29.0001 59.9804 28.0601 59.9804ZM17.1501 61.4404V67.5004H13.3801V61.4404H17.1501ZM18.6101 61.4404H22.3701V67.5004H18.6101V61.4404ZM8.5601 50.6604C8.5601 45.5204 12.7401 41.3404 17.8801 41.3404C23.0201 41.3404 27.2001 45.5204 27.2001 50.6604C27.2001 55.8004 23.0201 59.9804 17.8801 59.9804C12.7401 59.9804 8.5601 55.8004 8.5601 50.6604ZM7.4601 67.2704V61.6804C7.4601 61.5504 7.5601 61.4504 7.6901 61.4504H11.9201V67.5104H7.6901C7.5601 67.5004 7.4601 67.4004 7.4601 67.2704ZM28.3001 67.2704C28.3001 67.4004 28.2001 67.5004 28.0701 67.5004H23.8401V61.4404H28.0701C28.2001 61.4404 28.3001 61.5404 28.3001 61.6704V67.2704Z" fill="#59ACF3"/>
<path d="M59.7616 50.29C54.3416 50.29 49.9316 54.7 49.9316 60.11C49.9316 65.53 54.3416 69.94 59.7616 69.94C65.1816 69.94 69.5916 65.53 69.5916 60.11C69.5916 54.69 65.1816 50.29 59.7616 50.29ZM59.7616 68.47C55.1516 68.47 51.3916 64.72 51.3916 60.1C51.3916 55.49 55.1416 51.74 59.7616 51.74C64.3816 51.74 68.1316 55.49 68.1316 60.1C68.1216 64.72 64.3716 68.47 59.7616 68.47Z" fill="#59ACF3"/>
<path d="M61.0417 54.9402C60.6517 54.8402 60.2517 55.0802 60.1517 55.4702L57.9817 64.0902C57.8817 64.4802 58.1217 64.8802 58.5117 64.9802C58.5717 65.0002 58.6317 65.0002 58.6917 65.0002C59.0217 65.0002 59.3117 64.7802 59.4017 64.4502L61.5717 55.8302C61.6717 55.4302 61.4317 55.0402 61.0417 54.9402Z" fill="#59ACF3"/>
<path d="M58.3301 57.5604C58.2101 56.9404 57.8601 56.3904 57.3401 56.0304C56.8101 55.6704 56.1801 55.5304 55.5501 55.6504C54.2501 55.8904 53.4001 57.1404 53.6401 58.4404C53.8601 59.5904 54.8601 60.3904 55.9901 60.3904C56.1301 60.3904 56.2801 60.3804 56.4301 60.3504C57.0601 60.2304 57.6001 59.8804 57.9601 59.3504C58.3201 58.8104 58.4501 58.1804 58.3301 57.5604ZM56.9001 57.8204C56.9501 58.0604 56.8901 58.3104 56.7501 58.5204C56.6101 58.7204 56.4001 58.8604 56.1601 58.9104C55.6601 59.0004 55.1701 58.6704 55.0801 58.1704C54.9901 57.6704 55.3201 57.1804 55.8201 57.0904C55.8801 57.0804 55.9301 57.0704 55.9901 57.0704C56.1701 57.0704 56.3501 57.1304 56.5101 57.2304C56.7101 57.3704 56.8501 57.5804 56.9001 57.8204Z" fill="#59ACF3"/>
<path d="M65.8707 61.7904C65.6307 60.4904 64.3807 59.6404 63.0907 59.8804C62.4607 60.0004 61.9207 60.3504 61.5507 60.8804C61.1907 61.4104 61.0607 62.0404 61.1707 62.6704C61.2907 63.3004 61.6407 63.8404 62.1707 64.2004C62.5707 64.4804 63.0407 64.6204 63.5207 64.6204C63.6707 64.6204 63.8207 64.6104 63.9607 64.5804C65.2607 64.3404 66.1107 63.0904 65.8707 61.7904ZM63.7007 63.1404C63.4507 63.1904 63.2107 63.1304 63.0007 62.9904C62.8007 62.8504 62.6607 62.6404 62.6107 62.4004C62.5607 62.1604 62.6207 61.9104 62.7607 61.7104C62.9007 61.5004 63.1107 61.3704 63.3607 61.3204C63.4207 61.3104 63.4707 61.3004 63.5307 61.3004C63.9607 61.3004 64.3507 61.6104 64.4407 62.0604C64.5307 62.5604 64.2007 63.0504 63.7007 63.1404Z" fill="#59ACF3"/>
</svg>
