<svg width="24" height="24" viewBox="0 0 24 24" fill="none" xmlns="http://www.w3.org/2000/svg">
<path d="M12 16.1667C11.999 15.2887 12.2294 14.4259 12.6682 13.6653C13.1069 12.9048 13.7384 12.2734 14.4989 11.8347C15.2595 11.396 16.1223 11.1656 17.0003 11.1667C17.8783 11.1678 18.7405 11.4003 19.5 11.8408V6.16667C19.4987 5.062 19.0593 4.00296 18.2781 3.22185C17.497 2.44073 16.438 2.00132 15.3333 2H8.66666C7.562 2.00132 6.50296 2.44073 5.72185 3.22185C4.94073 4.00296 4.50132 5.062 4.5 6.16667V16.1667C4.50132 17.2713 4.94073 18.3304 5.72185 19.1115C6.50296 19.8926 7.562 20.332 8.66666 20.3333H13.6667V19.8833C13.1426 19.4163 12.7231 18.8438 12.4359 18.2032C12.1487 17.5627 12.0001 16.8687 12 16.1667ZM8.66666 5.33333H15.3333C15.5543 5.33333 15.7663 5.42113 15.9226 5.57741C16.0789 5.73369 16.1667 5.94565 16.1667 6.16667C16.1667 6.38768 16.0789 6.59964 15.9226 6.75592C15.7663 6.9122 15.5543 7 15.3333 7H8.66666C8.44565 7 8.23369 6.9122 8.07741 6.75592C7.92113 6.59964 7.83333 6.38768 7.83333 6.16667C7.83333 5.94565 7.92113 5.73369 8.07741 5.57741C8.23369 5.42113 8.44565 5.33333 8.66666 5.33333ZM8.66666 8.66666H15.3333C15.5543 8.66666 15.7663 8.75446 15.9226 8.91074C16.0789 9.06702 16.1667 9.27898 16.1667 9.5C16.1667 9.72101 16.0789 9.93297 15.9226 10.0893C15.7663 10.2455 15.5543 10.3333 15.3333 10.3333H8.66666C8.44565 10.3333 8.23369 10.2455 8.07741 10.0893C7.92113 9.93297 7.83333 9.72101 7.83333 9.5C7.83333 9.27898 7.92113 9.06702 8.07741 8.91074C8.23369 8.75446 8.44565 8.66666 8.66666 8.66666ZM11.1667 13.6667H8.66666C8.44565 13.6667 8.23369 13.5789 8.07741 13.4226C7.92113 13.2663 7.83333 13.0543 7.83333 12.8333C7.83333 12.6123 7.92113 12.4004 8.07741 12.2441C8.23369 12.0878 8.44565 12 8.66666 12H11.1667C11.3877 12 11.5996 12.0878 11.7559 12.2441C11.9122 12.4004 12 12.6123 12 12.8333C12 13.0543 11.9122 13.2663 11.7559 13.4226C11.5996 13.5789 11.3877 13.6667 11.1667 13.6667Z" fill="#1C2B36"/>
<path d="M17 12.8335C16.267 12.831 15.5538 13.0709 14.9713 13.5159C14.3889 13.9609 13.97 14.586 13.7798 15.2939C13.5896 16.0018 13.6389 16.7527 13.9198 17.4297C14.2008 18.1066 14.6978 18.6717 15.3333 19.0368V21.3977C15.3333 21.5166 15.3685 21.6328 15.4345 21.7316C15.5005 21.8305 15.5944 21.9076 15.7042 21.9531C15.814 21.9986 15.9349 22.0105 16.0514 21.9873C16.168 21.964 16.2751 21.9068 16.3591 21.8227L17 21.1827L17.6408 21.8227C17.7248 21.9068 17.8319 21.964 17.9485 21.9873C18.0651 22.0105 18.186 21.9986 18.2958 21.9531C18.4056 21.9076 18.4995 21.8305 18.5655 21.7316C18.6315 21.6328 18.6667 21.5166 18.6666 21.3977V19.0368C19.3022 18.6717 19.7991 18.1066 20.0801 17.4297C20.3611 16.7527 20.4103 16.0018 20.2201 15.2939C20.03 14.586 19.611 13.9609 19.0286 13.5159C18.4462 13.0709 17.7329 12.831 17 12.8335Z" fill="#1C2B36"/>
</svg>
