<svg width="24" height="24" viewBox="0 0 24 24" fill="none" xmlns="http://www.w3.org/2000/svg">
<path fill-rule="evenodd" clip-rule="evenodd" d="M14.1077 2.44011C14.4404 2.52845 14.7191 2.75539 14.873 3.06325C15.4533 4.2238 15.8864 4.92816 16.3221 5.49926C16.7631 6.07734 17.2296 6.55057 17.9393 7.26024C19.5793 8.90021 20.3996 11.0521 20.3996 13.1999C20.3996 15.3478 19.5793 17.4997 17.9393 19.1396C14.6589 22.42 9.34031 22.42 6.05991 19.1396C4.41995 17.4997 3.59961 15.3478 3.59961 13.1999C3.59961 11.0521 4.41994 8.90021 6.05991 7.26024C6.40311 6.91704 6.91925 6.81437 7.36766 7.00011C7.81607 7.18585 8.10844 7.62341 8.10844 8.10876C8.10844 9.45254 8.19235 10.4765 8.58538 11.2931C8.8015 11.7422 9.13863 12.1813 9.71966 12.5731C9.85843 11.3002 10.1126 9.74928 10.4561 8.27723C10.7265 7.11825 11.0629 5.96118 11.4632 4.99629C11.6634 4.51368 11.8899 4.05415 12.147 3.65739C12.3973 3.27119 12.719 2.8782 13.1341 2.60145C13.4205 2.41052 13.7751 2.35176 14.1077 2.44011ZM14.5452 18.1455C13.1393 19.5514 10.8599 19.5514 9.45402 18.1455C8.75108 17.4425 8.39961 16.5212 8.39961 15.5999C8.39961 15.5999 9.45402 16.1999 11.3997 16.1999C11.3997 14.9999 11.9997 11.3999 12.8997 10.7999C13.4997 11.9999 13.8422 12.3514 14.5452 13.0543C15.2481 13.7573 15.5996 14.6786 15.5996 15.5999C15.5996 16.5212 15.2481 17.4425 14.5452 18.1455Z" fill="#111827"/>
</svg>
