<svg width="24" height="24" viewBox="0 0 24 24" fill="none" xmlns="http://www.w3.org/2000/svg">
<path d="M2.40039 12.5999C2.40039 11.6058 3.20628 10.7999 4.20039 10.7999C5.1945 10.7999 6.00039 11.6058 6.00039 12.5999V19.7999C6.00039 20.794 5.1945 21.5999 4.20039 21.5999C3.20628 21.5999 2.40039 20.794 2.40039 19.7999V12.5999Z" fill="#111827"/>
<path d="M7.20039 12.3999V18.9166C7.20039 19.8257 7.714 20.6567 8.52708 21.0632L8.58689 21.0932C9.2534 21.4264 9.98834 21.5999 10.7335 21.5999H17.2329C18.3769 21.5999 19.3619 20.7924 19.5863 19.6706L21.0263 12.4706C21.3233 10.9855 20.1874 9.5999 18.6729 9.5999H14.4004V4.7999C14.4004 3.47442 13.3259 2.3999 12.0004 2.3999C11.3376 2.3999 10.8004 2.93716 10.8004 3.5999V4.3999C10.8004 5.43848 10.4635 6.44904 9.84039 7.2799L8.16039 9.5199C7.53724 10.3508 7.20039 11.3613 7.20039 12.3999Z" fill="#111827"/>
</svg>
