<svg width="238" height="64" viewBox="0 0 238 64" fill="none" xmlns="http://www.w3.org/2000/svg">
<rect width="238" height="64" fill="white"/>
<path d="M220.746 39V24.284L220.408 21.892H229.3V23.816H223.086V29.276H228.52L228 31.2H223.086V37.076H229.586L229.066 39H220.746Z" fill="#1C2B36"/>
<path d="M215.207 21.892V37.05L215.363 39H214.141L204.391 28.08L203.273 26.39V37.05L203.533 39H201.141V24.284L200.803 21.892H202.389L211.931 32.708L213.075 34.398V24.284L212.737 21.892H215.207Z" fill="#1C2B36"/>
<path d="M195.537 21.892V37.05L195.797 39H193.197V24.284L192.859 21.892H195.537Z" fill="#1C2B36"/>
<path d="M187.402 21.892V37.05L187.662 39H185.062V31.2H175.91V37.05L176.17 39H173.57V24.284L173.232 21.892H175.91V29.12H185.062V24.284L184.724 21.892H187.402Z" fill="#1C2B36"/>
<path d="M159.57 37.414C159.596 37.388 159.83 35.178 159.83 35.178C159.83 35.178 161.728 37.466 164.302 37.466C165.784 37.466 167.084 36.452 167.084 34.632C167.084 31.2 159.622 31.07 159.622 26.468C159.622 23.79 161.702 21.58 164.64 21.58C166.694 21.58 168.15 22.308 168.93 22.802L168.254 24.7C168.202 24.57 166.538 23.426 164.562 23.426C163.34 23.426 162.066 24.258 162.066 25.766C162.066 29.51 169.398 29.198 169.398 34.294C169.398 37.232 167.396 39.338 164.224 39.338C161.156 39.338 159.57 37.414 159.57 37.414Z" fill="#1C2B36"/>
<path d="M158.889 40.95L158.109 42.51H146.513V40.95H158.889Z" fill="#1C2B36"/>
<path d="M143.834 21.892V37.05L143.99 39H142.768L133.018 28.08L131.9 26.39V37.05L132.16 39H129.768V24.284L129.43 21.892H131.016L140.558 32.708L141.702 34.398V24.284L141.364 21.892H143.834Z" fill="#1C2B36"/>
<path d="M112.106 39L118.71 21.892L120.296 21.554L125.6 36.14L126.9 39H124.066L122.428 34.528H116.058L114.368 39H112.106ZM119.048 26.598L116.76 32.552H121.778L119.62 26.572L119.36 25.558L119.048 26.598Z" fill="#1C2B36"/>
<path d="M102.07 39V24.284L101.732 21.892H110.624V23.816H104.41V29.276H109.844L109.324 31.2H104.41V37.076H110.91L110.39 39H102.07Z" fill="#1C2B36"/>
<path d="M89.9591 39V24.284L89.6211 21.892H92.2991V37.024H99.0071L98.4871 39H89.9591Z" fill="#1C2B36"/>
<path d="M85.8979 23.712L84.7019 25.48C83.4799 24.206 82.0499 23.504 80.3339 23.504C76.9799 23.504 74.6659 26.936 74.6659 30.55C74.6659 34.736 77.6039 37.336 80.5159 37.336C82.8819 37.336 85.5599 35.152 85.5599 35.152L86.1319 37.076C86.1319 37.076 83.6359 39.338 80.0999 39.338C76.0699 39.338 72.1699 36.374 72.1699 30.81C72.1699 25.48 75.8619 21.58 80.4379 21.58C82.5959 21.58 84.3639 22.308 85.8979 23.712Z" fill="#1C2B36"/>
<g clip-path="url(#clip0_193_7748)">
<path d="M51.2332 32.5669C51.1802 32.2307 50.8856 31.9529 50.5189 31.9315C50.0989 31.9038 49.7396 32.2185 49.712 32.6386L49.1601 43.8283C49.1519 44.0952 48.946 44.2928 48.6912 44.3257C48.4453 44.349 48.21 44.1833 48.1517 43.9303C48.1517 43.9303 45.4349 32.5266 44.434 28.4511C44.2642 27.7796 43.6004 27.3569 42.9159 27.49C42.2129 27.6353 41.7657 28.2851 41.8831 28.946L45.1303 44.8293C45.1781 45.0893 45.0264 45.3455 44.7699 45.4214C44.5151 45.4998 44.2431 45.37 44.1541 45.1222C44.1541 45.1222 38.7992 31.6716 37.0023 27.1397C36.8732 26.8087 36.6232 26.5467 36.2881 26.4133C35.9584 26.265 35.5899 26.2636 35.2466 26.3971C34.589 26.679 34.2661 27.3561 34.4606 27.9961L40.5126 46.9407C40.5911 47.1954 40.4612 47.4675 40.2099 47.5739C39.9691 47.6734 39.6918 47.5812 39.5625 47.3412L31.5021 31.8847C31.2995 31.5117 30.9743 31.2505 30.549 31.1466C30.1439 31.0446 29.715 31.1176 29.3628 31.3518C28.7111 31.7851 28.5045 32.6312 28.8852 33.3178C30.0668 35.488 32.2568 39.6365 33.5566 43.0959C35.4201 48.0756 37.2851 53.1489 37.2851 53.1489C37.3636 53.3581 37.2995 53.5865 37.1321 53.7281C36.9578 53.8591 36.7241 53.8781 36.537 53.7562L27.9402 48.3731C27.3867 48.0023 26.7137 47.9419 26.1156 48.1994C25.507 48.4638 25.0907 48.9718 24.9814 49.6167C24.8545 50.3491 25.1363 51.0522 25.7161 51.4853L36.4415 59.1637C39.3937 61.2669 42.684 63.8957 44.8093 67.4397L49.4418 76.1678L64.7406 65.9953L57.1658 57.0369C53.978 52.8924 53.0987 49.6722 52.6116 45.161L51.2377 32.5568L51.2332 32.5669Z" fill="#59ACF3"/>
<path d="M29.58 3.38174L29.5784 3.38358C32.1119 4.4593 48.8336 12.1509 62.9757 32.149L53.7455 45.9374C53.7047 45.6424 53.663 45.3746 53.6257 45.0621L52.2556 32.4408C52.1262 31.6021 51.4225 30.9597 50.5744 30.9097C49.596 30.8517 48.754 31.5972 48.6784 32.5721L48.3033 40.1808C47.4319 36.4823 46.0734 30.8258 45.4254 28.2099C45.1328 27.0061 43.9338 26.2459 42.6714 26.5017C41.4607 26.7383 40.6462 27.9241 40.874 29.1444L42.9596 39.3653C41.2591 35.0923 39.0079 29.4155 37.9582 26.771C37.7331 26.1818 37.2908 25.7217 36.703 25.4646C36.1046 25.2144 35.4578 25.2162 34.8247 25.4667C33.7074 25.9178 33.1239 27.166 33.4848 28.313L37.7197 41.5838L32.4159 31.4073C32.0814 30.7846 31.4974 30.328 30.8009 30.1582C30.1149 29.9815 29.3849 30.1145 28.7989 30.5041C27.7005 31.2345 27.3513 32.6528 27.9844 33.8159C29.1622 35.9577 31.3244 40.0644 32.5893 43.4714C33.8545 46.8331 35.1211 50.2427 35.8015 52.0981L28.5051 47.5136C27.6726 46.9568 26.6277 46.8671 25.7056 47.2643C25.5033 47.3533 25.315 47.4633 25.1407 47.5944C23.8387 46.4742 18.7914 42.149 12.756 37.6772L11.3061 36.5193L8.29977 34.4973C6.90325 33.5311 5.54338 32.6201 4.23943 31.7932L29.5784 3.38358C29.5779 3.38339 29.5775 3.38321 29.5771 3.38302L29.58 3.38174Z" fill="#FFD659"/>
<path d="M12.0703 46.7686L13.9189 51.1807L18.2275 52.9443L19.5547 53.4883L18.2354 54.0518L13.8896 55.9082L12.1035 60.2295L11.5459 61.5781L10.9941 60.2275L9.17871 55.7881L4.78027 54.0586L3.37402 53.5049L4.77734 52.9434L9.17676 51.1797L10.9609 46.7744L11.5078 45.4248L12.0703 46.7686Z" fill="#1C2B36" stroke="white" stroke-width="1.2"/>
<path d="M19.0859 3.76855L22.7305 12.4658L31.2275 15.9443L32.5547 16.4883L31.2354 17.0518L22.6699 20.7109L19.1494 29.2295L18.5918 30.5781L18.0391 29.2275L14.46 20.4727L5.78027 17.0586L4.37402 16.5049L5.77734 15.9434L14.458 12.4648L17.9766 3.77441L18.5234 2.4248L19.0859 3.76855Z" fill="#1C2B36" stroke="white" stroke-width="1.2"/>
</g>
<defs>
<clipPath id="clip0_193_7748">
<rect width="64" height="64" fill="white"/>
</clipPath>
</defs>
</svg>
