<svg width="238" height="64" viewBox="0 0 238 64" fill="none" xmlns="http://www.w3.org/2000/svg">
<rect width="238" height="64" fill="white"/>
<path d="M220.746 39V24.284L220.408 21.892H229.3V23.816H223.086V29.276H228.52L228 31.2H223.086V37.076H229.586L229.066 39H220.746Z" fill="#1C2B36"/>
<path d="M215.207 21.892V37.05L215.363 39H214.141L204.391 28.08L203.273 26.39V37.05L203.533 39H201.141V24.284L200.803 21.892H202.389L211.931 32.708L213.075 34.398V24.284L212.737 21.892H215.207Z" fill="#1C2B36"/>
<path d="M195.537 21.892V37.05L195.797 39H193.197V24.284L192.859 21.892H195.537Z" fill="#1C2B36"/>
<path d="M187.402 21.892V37.05L187.662 39H185.062V31.2H175.91V37.05L176.17 39H173.57V24.284L173.232 21.892H175.91V29.12H185.062V24.284L184.724 21.892H187.402Z" fill="#1C2B36"/>
<path d="M159.57 37.414C159.596 37.388 159.83 35.178 159.83 35.178C159.83 35.178 161.728 37.466 164.302 37.466C165.784 37.466 167.084 36.452 167.084 34.632C167.084 31.2 159.622 31.07 159.622 26.468C159.622 23.79 161.702 21.58 164.64 21.58C166.694 21.58 168.15 22.308 168.93 22.802L168.254 24.7C168.202 24.57 166.538 23.426 164.562 23.426C163.34 23.426 162.066 24.258 162.066 25.766C162.066 29.51 169.398 29.198 169.398 34.294C169.398 37.232 167.396 39.338 164.224 39.338C161.156 39.338 159.57 37.414 159.57 37.414Z" fill="#1C2B36"/>
<path d="M158.889 40.95L158.109 42.51H146.513V40.95H158.889Z" fill="#1C2B36"/>
<path d="M143.834 21.892V37.05L143.99 39H142.768L133.018 28.08L131.9 26.39V37.05L132.16 39H129.768V24.284L129.43 21.892H131.016L140.558 32.708L141.702 34.398V24.284L141.364 21.892H143.834Z" fill="#1C2B36"/>
<path d="M112.106 39L118.71 21.892L120.296 21.554L125.6 36.14L126.9 39H124.066L122.428 34.528H116.058L114.368 39H112.106ZM119.048 26.598L116.76 32.552H121.778L119.62 26.572L119.36 25.558L119.048 26.598Z" fill="#1C2B36"/>
<path d="M102.07 39V24.284L101.732 21.892H110.624V23.816H104.41V29.276H109.844L109.324 31.2H104.41V37.076H110.91L110.39 39H102.07Z" fill="#1C2B36"/>
<path d="M89.9591 39V24.284L89.6211 21.892H92.2991V37.024H99.0071L98.4871 39H89.9591Z" fill="#1C2B36"/>
<path d="M85.8979 23.712L84.7019 25.48C83.4799 24.206 82.0499 23.504 80.3339 23.504C76.9799 23.504 74.6659 26.936 74.6659 30.55C74.6659 34.736 77.6039 37.336 80.5159 37.336C82.8819 37.336 85.5599 35.152 85.5599 35.152L86.1319 37.076C86.1319 37.076 83.6359 39.338 80.0999 39.338C76.0699 39.338 72.1699 36.374 72.1699 30.81C72.1699 25.48 75.8619 21.58 80.4379 21.58C82.5959 21.58 84.3639 22.308 85.8979 23.712Z" fill="#1C2B36"/>
<path d="M20.9314 43.0824C28.4698 44.5935 31.7367 39.9557 34.6187 35.8651C35.8251 34.1494 36.9673 32.5313 38.3379 31.4391C39.9536 30.1566 42.2594 29.2619 44.6982 28.3148C47.5132 27.225 50.7018 25.9876 53.2429 23.9483C54.7682 22.7229 56.5885 19.6795 55.8628 16.7505C55.0775 13.5857 51.5582 11.3156 45.6806 10.1807C37.6616 8.62921 34.271 13.3645 31.2868 17.5381C30.047 19.2728 28.8763 20.9075 27.489 21.8498C25.9089 22.923 24.1624 23.5465 22.3111 24.2032C19.9649 25.0384 17.3045 25.9855 14.4444 28.0652C12.3195 29.6095 11.3248 32.622 11.9697 35.5609C12.8049 39.3682 16.0696 42.1094 20.9286 43.0828L20.9314 43.0824Z" fill="#FFD659" stroke="white" stroke-width="0.609153"/>
<path d="M11.037 33.9195C10.9989 31.3139 12.0745 28.8511 13.9972 27.452C16.9478 25.3057 19.6605 24.3395 22.0564 23.4877C23.86 22.8452 25.5638 22.2384 27.063 21.22C28.3384 20.3538 29.471 18.7714 30.668 17.0939C33.2022 13.546 36.2765 9.26979 42.4419 9.13699C41.9588 8.28752 41.0546 7.74494 40.0409 7.74494C39.3175 7.74494 38.6346 8.01858 38.1158 8.51827C37.9659 8.6658 37.7232 8.66104 37.5781 8.50875C37.4329 8.35646 37.4377 8.11613 37.5876 7.97098C38.0064 7.56646 38.5156 7.2928 39.0653 7.13575C38.4704 5.9817 37.2687 5.22975 35.9433 5.22975C34.9249 5.22975 33.9802 5.69138 33.3116 6.45045C34.1872 7.07149 34.7631 8.08757 34.7631 9.24163C34.7631 9.45103 34.5918 9.62235 34.3824 9.62235C34.173 9.62235 34.0016 9.45103 34.0016 9.24163C34.0016 7.77342 32.8071 6.57892 31.3389 6.57892C29.8707 6.57892 28.6762 7.77342 28.6762 9.24163C28.6762 9.45103 28.5049 9.62235 28.2955 9.62235C28.0861 9.62235 27.9148 9.45103 27.9148 9.24163C27.9148 8.0495 28.5287 7.00009 29.4543 6.38618C28.6357 5.05364 27.2056 4.23511 25.6232 4.23511C23.1342 4.23511 21.1068 6.26246 21.1068 8.75149C21.1068 9.20123 21.1877 9.63904 21.3162 10.065C23.8148 10.1316 25.8302 12.1756 25.8302 14.6884C25.8302 14.8978 25.6589 15.0691 25.4495 15.0691C25.2401 15.0691 25.0688 14.8978 25.0688 14.6884C25.0688 12.5516 23.3317 10.8145 21.1949 10.8145C21.1497 10.8169 21.1021 10.8145 21.0569 10.8169C20.2288 10.8502 19.4626 11.1286 18.8272 11.6235C17.8683 12.3635 17.3186 13.4819 17.3186 14.6883C17.3186 15.6473 17.6779 16.5444 18.3108 17.2558C18.6368 17.1821 18.9723 17.1321 19.3197 17.1321C20.7022 17.1321 21.9896 17.7531 22.8533 18.8359C22.9842 19 22.9581 19.2404 22.7939 19.3713C22.6321 19.4998 22.3893 19.476 22.2585 19.3118C21.5398 18.4123 20.469 17.896 19.3197 17.896C17.2496 17.896 15.5648 19.5807 15.5648 21.6509C15.5648 22.6836 15.9741 23.6449 16.7189 24.3588C16.8712 24.5039 16.8759 24.7443 16.7308 24.899C16.6546 24.9751 16.5571 25.0156 16.4547 25.0156C16.3596 25.0156 16.2644 24.9799 16.1906 24.9085C15.2959 24.0494 14.801 22.8906 14.801 21.6485C14.801 19.7924 15.9289 18.1958 17.5351 17.5009C16.9117 16.6943 16.5571 15.721 16.5571 14.6859C16.5571 13.4057 17.0758 12.2136 17.9896 11.3403C16.9069 10.4908 15.591 10.0078 14.2085 10.0078C10.8224 10.0078 8.06939 12.7609 8.06939 16.142C8.06939 17.1914 8.34779 18.2074 8.85466 19.1141C9.42813 18.8499 10.0611 18.6929 10.7345 18.6929C10.9439 18.6929 11.1152 18.8642 11.1152 19.0736C11.1152 19.283 10.9439 19.4543 10.7345 19.4543C8.6643 19.4543 6.97954 21.139 6.97954 23.2093C6.97954 24.8892 8.10746 26.3764 9.72314 26.8262C9.9254 26.8833 10.0444 27.0927 9.98727 27.2949C9.93968 27.4639 9.78739 27.5733 9.62082 27.5733C9.58751 27.5733 9.55182 27.5686 9.5185 27.5591C8.05273 27.1498 6.92244 26.0314 6.45369 24.6394C5.25437 25.4222 4.52148 26.7428 4.52148 28.1992C4.52148 29.7697 5.38052 31.2093 6.76539 31.9589C7.39356 32.292 8.07412 32.4633 8.78562 32.4633C8.99502 32.4633 9.16634 32.6346 9.16634 32.844C9.16634 33.0534 8.99502 33.2248 8.78562 33.2248C8.09556 33.2248 7.42926 33.0796 6.80109 32.8107C6.58693 33.4104 6.47272 34.0362 6.47272 34.6739C6.47272 37.4151 8.50482 39.7352 11.1675 40.173C11.0224 38.3169 11.02 36.2563 11.0224 33.9979C11.0224 33.967 11.0319 33.9408 11.039 33.9123L11.037 33.9195Z" fill="#59ACF3" stroke="white" stroke-width="0.609153"/>
<path d="M58.9916 34.3187C58.4015 33.9213 57.7423 33.6833 57.0333 33.6119C56.8239 33.5905 56.6716 33.4049 56.693 33.1955C56.7144 32.9885 56.8762 32.8267 57.1094 32.8552C57.7876 32.9242 58.4443 33.1384 59.0416 33.4691C59.32 32.8862 59.5009 32.2746 59.5628 31.644C59.7769 29.5786 58.8346 27.6202 57.1475 26.4828C56.9548 29.9997 55.9982 30.8778 54.1184 32.5933L53.7376 32.9407C51.144 35.3298 47.7198 36.579 44.7001 37.6807C42.4134 38.5136 40.2551 39.3036 38.8107 40.4529C37.6543 41.3714 36.5787 42.6587 35.4365 44.0246C32.5668 47.4582 29.3759 51.2748 23.5579 51.2748C22.8274 51.2748 22.0516 51.2082 21.2331 51.0797C21.0832 51.3795 20.9761 51.6865 20.9451 52.0077C20.7952 53.5306 21.9112 54.8965 23.4341 55.0583C23.5674 55.0725 23.6863 55.0749 23.8172 55.0654C24.9142 55.0226 25.8803 54.3468 26.2848 53.3426C26.3633 53.1475 26.5846 53.0547 26.7798 53.1309C26.9749 53.2094 27.0677 53.4307 26.9915 53.6258C26.537 54.7561 25.5282 55.558 24.3479 55.7697C24.8262 56.9738 25.9422 57.8399 27.258 57.9732C28.2813 58.085 29.2783 57.7329 30.0183 57.0428C29.866 56.912 29.7208 56.7716 29.5923 56.6121C29.0141 55.903 28.7476 55.0107 28.8404 54.1017C28.8618 53.8923 29.0379 53.7424 29.2568 53.7614C29.4662 53.7829 29.6185 53.9708 29.5971 54.1779C29.5257 54.887 29.7327 55.5794 30.1825 56.1314C30.6322 56.6835 31.2699 57.0262 31.9766 57.0975C33.4472 57.2498 34.7464 56.179 34.8963 54.718C34.9177 54.5086 35.0962 54.3516 35.3127 54.3777C35.5221 54.3991 35.6744 54.5847 35.653 54.7941C35.5602 55.7031 35.12 56.524 34.4109 57.1023C34.23 57.2499 34.0349 57.3712 33.8326 57.4759C34.5108 58.8846 35.8529 59.8459 37.4281 60.0053C38.6298 60.1338 39.8029 59.7745 40.738 59.0107C41.6732 58.2469 42.2562 57.1666 42.3775 55.9696C42.4228 55.5223 42.3871 55.0773 42.3014 54.6395C41.114 54.4848 40.0551 53.9066 39.2984 52.9809C38.5155 52.0196 38.1539 50.8131 38.2776 49.5829C38.299 49.3759 38.4584 49.2141 38.694 49.2427C38.9034 49.2641 39.0557 49.4497 39.0343 49.6591C38.9296 50.687 39.2341 51.696 39.8885 52.4979C40.5429 53.3022 41.4709 53.7995 42.4989 53.9042C42.5512 53.909 42.5941 53.9161 42.6369 53.9161C43.4674 53.9756 44.2526 53.7686 44.9355 53.3403C45.9635 52.7002 46.6226 51.6436 46.7464 50.4444C46.8439 49.4878 46.575 48.5526 46.0135 47.7817C45.8302 47.8055 45.6494 47.834 45.4614 47.834C45.3091 47.834 45.1568 47.8245 45.0022 47.8102C43.6268 47.6698 42.4085 46.9227 41.6589 45.759C41.5447 45.5806 41.5947 45.3474 41.7731 45.2332C41.9492 45.1166 42.1848 45.1689 42.299 45.3474C42.9224 46.3158 43.9361 46.9369 45.0807 47.0559C47.1223 47.2534 48.9879 45.7591 49.1973 43.6984C49.302 42.6704 48.9902 41.6734 48.3216 40.8858C48.186 40.7263 48.205 40.486 48.3644 40.3504C48.5239 40.2147 48.7642 40.2314 48.8998 40.3932C49.7041 41.3403 50.0777 42.5395 49.9516 43.7745C49.7636 45.6235 48.4739 47.0821 46.8058 47.6104C47.3507 48.4789 47.6077 49.4878 47.503 50.5229C47.3745 51.7983 46.7392 52.9333 45.7398 53.7067C46.7321 54.6609 47.9932 55.2748 49.3662 55.4129C50.9986 55.5842 52.5976 55.0988 53.8683 54.0661C55.1389 53.031 55.929 51.5628 56.0955 49.9304C56.2026 48.8858 56.0265 47.8435 55.6148 46.8917C55.1556 47.0488 54.6701 47.1463 54.1633 47.1463C54.011 47.1463 53.8587 47.1368 53.7041 47.1225C53.4947 47.1011 53.3424 46.9132 53.3638 46.7061C53.3852 46.4967 53.5613 46.354 53.7802 46.3659C55.8576 46.5753 57.6874 45.069 57.8968 43.0107C58.0681 41.3403 57.0949 39.7436 55.5339 39.1321C55.3388 39.0559 55.2412 38.8346 55.3174 38.6395C55.3935 38.442 55.6148 38.3421 55.81 38.423C57.2258 38.9774 58.2371 40.2053 58.5631 41.6353C59.8361 40.9786 60.6975 39.7364 60.8474 38.2873C61.0045 36.7263 60.2954 35.2058 58.9937 34.3206L58.9916 34.3187Z" fill="#59ACF3" stroke="white" stroke-width="0.609153"/>
<path d="M34.8538 43.5348C36.0198 42.1403 37.1216 40.8221 38.3375 39.856C39.8794 38.6305 42.0948 37.8215 44.4413 36.9648C47.3944 35.8869 50.7425 34.6662 53.2242 32.3819L53.6073 32.0321C56.0821 29.7739 56.8031 29.1076 56.27 20.8838C55.6514 22.5162 54.5925 23.844 53.7215 24.5435C51.0898 26.6566 47.8417 27.9177 44.9746 29.0266C42.5879 29.9522 40.3345 30.8255 38.8117 32.0367C37.5244 33.0599 36.4155 34.6351 35.24 36.3032C32.6296 40.0081 29.7171 44.1437 23.7731 44.1437C22.8523 44.1437 21.86 44.0438 20.782 43.8296C16.3822 42.9492 13.2101 40.6743 11.8066 37.4809C11.9423 44.2055 12.9274 48.3746 20.009 50.0613C27.8355 51.9222 31.5666 47.4677 34.8549 43.5317L34.8538 43.5348Z" fill="#1C2B36" stroke="white" stroke-width="0.609153"/>
<path d="M46.6514 9.92695L49.0649 3.96509L51.5636 9.92695L57.391 12.3129L51.52 14.8213L49.1064 20.6607L46.6514 14.656L40.6953 12.3129L46.6514 9.92695Z" fill="#1C2B36"/>
<path d="M6.82523 51.4885L8.32225 47.7905L9.87206 51.4885L13.4866 52.9684L9.84503 54.5243L8.348 58.1463L6.82523 54.4218L3.13086 52.9684L6.82523 51.4885Z" fill="#1C2B36"/>
<path d="M30.6085 34.5734C29.2172 37.0081 27.4781 38.7473 23.3042 38.7473C19.1303 38.7473 17.1593 36.6603 16.3477 35.6168" stroke="white" stroke-width="1.39128" stroke-linecap="round"/>
</svg>
