<svg width="110" height="48" viewBox="0 0 110 48" fill="none" xmlns="http://www.w3.org/2000/svg">
<g clip-path="url(#clip0_193_21808)">
<g clip-path="url(#clip1_193_21808)">
<g clip-path="url(#clip2_193_21808)">
<g clip-path="url(#clip3_193_21808)">
<path d="M14.4568 2.65L15.3406 0.5L16.2549 2.65L18.3882 3.51L16.2346 4.415L15.3508 6.52L14.4517 4.355L12.2676 3.51L14.4517 2.65H14.4568Z" fill="#1C2B36"/>
<path d="M27.6326 9.13498L28.5164 6.98499L29.4307 9.13498L31.564 9.99498L29.4103 10.9L28.5265 13.005L27.6275 10.84L25.4434 9.99498L27.6275 9.13498H27.6326Z" fill="#1C2B36"/>
<path d="M5.21739 9.83505C5.9285 9.58505 6.52279 9.69005 6.63454 9.71505L7.2339 9.84505L7.33041 9.24505C7.40152 8.82005 7.5539 8.45505 7.78755 8.16005C7.8993 8.02005 8.00596 7.93005 8.04152 7.90005C8.15835 7.80505 8.41231 7.64005 8.75263 7.59505C9.22501 7.53005 9.58565 7.72005 9.72279 7.79005C9.96152 7.91505 10.1139 8.06505 10.2307 8.18505C10.5355 8.49005 10.7691 8.87005 10.9215 9.30505L11.0942 9.80005L11.6123 9.67005C11.9729 9.58005 12.3539 9.51505 12.7349 9.48005C12.7653 9.48005 12.8822 9.46505 12.9736 9.46005C12.9787 9.46005 13.6491 9.43505 14.3196 9.70505C14.8834 9.93005 15.945 10.6951 15.945 11.5101H17.1082C17.1082 10.1101 15.6656 9.01005 14.7615 8.64505C13.8472 8.28005 12.9634 8.31505 12.9228 8.31505C12.811 8.32005 12.679 8.33005 12.6282 8.33505C12.3539 8.36005 12.0847 8.40005 11.8206 8.45005C11.6225 8.05005 11.3685 7.69005 11.0637 7.38005C10.9164 7.23005 10.6676 6.98005 10.2663 6.77005C10.058 6.66005 9.43327 6.33505 8.59009 6.45005C8.00596 6.53005 7.57422 6.79005 7.31517 6.99505C7.2085 7.08005 7.04596 7.22505 6.87327 7.44005C6.6193 7.75505 6.43136 8.11505 6.30946 8.51505C5.9285 8.50005 5.40025 8.54005 4.82628 8.74005C3.28215 9.28005 2.7793 10.8351 2.7793 11.5001H3.94247C3.94247 11.2951 4.16596 10.1851 5.21739 9.82005V9.83505Z" fill="#1C2B36"/>
<path d="M17.1183 24.425L16.9558 24.29C16.8085 24.16 16.7018 24.055 16.6459 24.005C16.6053 23.97 16.5901 23.96 16.585 23.955C16.585 23.955 16.585 23.955 16.5799 23.955C16.5799 23.955 16.5697 23.955 16.5545 23.95C16.4986 23.94 16.4783 23.95 16.3259 24.005C16.1583 24.07 15.8993 24.16 15.5386 24.085C15.3609 24.045 15.1678 23.97 15.0002 23.86C14.8428 23.755 14.6447 23.57 14.5837 23.295C14.5532 23.17 14.5532 23.05 14.5532 22.975V22.955C14.5532 22.955 14.5532 22.94 14.5532 22.925C14.5532 22.9 14.5532 22.87 14.5583 22.835C14.5634 22.76 14.5786 22.66 14.6091 22.55C14.6294 22.47 14.6751 22.395 14.6904 22.37C14.7158 22.325 14.7463 22.275 14.7869 22.215C14.8631 22.1 14.9697 21.94 15.1018 21.745C15.3659 21.36 15.7469 20.82 16.2243 20.155C16.712 19.47 17.3062 18.65 17.9767 17.73L18.5101 12.785C18.9316 12.635 19.404 12.465 19.4294 11.885C19.4497 11.31 18.6929 11.15 18.6878 11.15H1.23514C0.869424 11.15 0.508789 11.385 0.508789 11.945C0.508789 12.5 1.38244 12.78 1.3926 12.785C1.3926 12.785 2.71831 24.47 2.75387 24.72C2.78942 24.965 3.00784 25.535 3.52085 25.925C4.02879 26.315 4.77038 26.38 4.77546 26.385H14.5075C14.5075 26.385 15.5691 26.44 16.392 25.905C17.0624 25.47 17.2148 24.77 17.2453 24.52L17.1183 24.42V24.425ZM9.38244 21.755L8.22434 24.51L7.04593 21.675L4.19133 20.57L7.04593 19.445L8.20403 16.635L9.40276 19.445L12.1964 20.57L9.38244 21.755Z" fill="#1C2B36"/>
<path d="M30.2632 23.3C30.3495 23.245 30.5375 23.0664 30.5375 22.69L30.5222 22.49L25.2803 15.06L25.6359 14.79C25.7019 14.74 25.7629 14.685 25.8086 14.62C25.9406 14.445 25.9965 14.235 25.9711 13.99V13.925C25.9406 13.7 25.8137 13.5 25.6054 13.355C25.4632 13.255 25.2803 13.185 25.067 13.15L24.6962 13.085L24.6302 11.515L24.4879 7.94C24.3457 4.44 24.2594 2.51 24.234 2.21C24.1984 1.81 24.107 1.56 23.9343 1.395C23.7464 1.215 23.4517 1.13 23.0098 1.13C22.6391 1.13 22.3648 1.31 22.1971 1.67C22.1311 1.81 22.1006 1.95 22.0803 2.04C22.0702 2.09 22.06 2.13 22.06 2.16L22.0498 2.325L21.5571 13.1L21.1356 13.13C20.8562 13.15 20.6683 13.205 20.521 13.305L20.4854 13.335C20.3991 13.41 20.1502 13.655 20.1603 14.065L20.1806 14.255C20.2162 14.435 20.3279 14.62 20.4956 14.76L20.8308 15.035L20.5768 15.385C19.1648 17.31 17.9508 18.975 17.067 20.21C16.5946 20.875 16.2137 21.41 15.9495 21.795C15.8225 21.985 15.721 22.14 15.6448 22.255C15.6143 22.305 15.5838 22.35 15.5635 22.39C15.5381 22.435 15.5279 22.455 15.5279 22.46C15.5076 22.54 15.4975 22.615 15.4873 22.67V22.74C15.4873 22.825 15.4873 22.905 15.5076 22.985C15.5381 23.115 15.6448 23.21 15.7311 23.27C15.8378 23.34 15.9698 23.395 16.1019 23.425C16.3203 23.47 16.4625 23.425 16.6149 23.365L16.6276 23.3601C16.7888 23.2975 16.9092 23.2508 17.0924 23.28L17.2295 23.315L17.2905 23.345C17.3006 23.35 17.3362 23.37 17.4276 23.45L17.5038 23.52C17.5597 23.57 17.6359 23.645 17.7324 23.73L18.0575 23.99C18.1946 24.1 18.3825 24.24 18.5603 24.34C18.7991 24.475 19.0022 24.525 19.1902 24.5C19.503 24.4603 19.7006 24.1984 19.8327 24.0234L19.8352 24.02C19.9165 23.91 19.9673 23.855 20.0029 23.81L20.3838 23.36L20.7394 23.83C20.8257 23.94 20.9273 24.065 21.1305 24.16C21.3692 24.27 21.5419 24.25 21.7248 24.225L21.729 24.2245C21.9612 24.1946 22.1892 24.1654 22.5476 24.225C22.8219 24.27 22.9844 24.335 23.1165 24.39C23.2029 24.425 23.2689 24.45 23.3298 24.46C23.3857 24.47 23.4416 24.46 23.5076 24.44C23.7464 24.355 23.8479 24.13 23.9292 23.92L24.2492 23.145L24.8841 23.715C24.9654 23.795 25.0771 23.9 25.1889 23.965C25.3108 24.04 25.4225 24.065 25.5394 24.05C25.7273 24.02 25.8441 23.885 25.9406 23.755C26.0219 23.65 26.0778 23.585 26.0778 23.585L26.3571 23.29L26.7533 23.565C26.9159 23.685 27.0784 23.805 27.3629 23.875C27.4492 23.9 27.5965 23.935 27.7489 23.94C27.9267 23.945 28.074 23.91 28.1756 23.83C28.2619 23.765 28.3178 23.67 28.3483 23.55C28.3584 23.505 28.3686 23.46 28.3686 23.415L28.46 22.545L29.1356 23.11C29.3387 23.28 29.6029 23.465 29.9178 23.425H29.933C30.0448 23.405 30.1616 23.36 30.2632 23.3Z" fill="#1C2B36"/>
</g>
</g>
<path d="M102.879 45.5697V35.3799L102.645 33.7236H108.802V35.0558H104.499V38.8365H108.262L107.901 40.1687H104.499V44.2374H109L108.64 45.5697H102.879Z" fill="#1C2B36"/>
<path d="M99.0431 33.7236V44.2194L99.1511 45.5697H98.305L91.5538 38.0083L90.7796 36.8381V44.2194L90.9597 45.5697H89.3034V35.3799L89.0693 33.7236H90.1675L96.7747 41.2129L97.5668 42.3831V35.3799L97.3328 33.7236H99.0431Z" fill="#1C2B36"/>
<path d="M85.4237 33.7236V44.2194L85.6037 45.5697H83.8034V35.3799L83.5693 33.7236H85.4237Z" fill="#1C2B36"/>
<path d="M79.7902 33.7236V44.2194L79.9703 45.5697H78.17V40.1687H71.8328V44.2194L72.0129 45.5697H70.2126V35.3799L69.9785 33.7236H71.8328V38.7285H78.17V35.3799L77.9359 33.7236H79.7902Z" fill="#1C2B36"/>
<path d="M60.5195 44.4714C60.5375 44.4534 60.6996 42.9232 60.6996 42.9232C60.6996 42.9232 62.0138 44.5074 63.7961 44.5074C64.8223 44.5074 65.7224 43.8053 65.7224 42.5451C65.7224 40.1687 60.5555 40.0787 60.5555 36.8921C60.5555 35.0378 61.9958 33.5075 64.0301 33.5075C65.4524 33.5075 66.4606 34.0116 67.0007 34.3537L66.5326 35.6679C66.4966 35.5779 65.3444 34.7857 63.9761 34.7857C63.13 34.7857 62.2478 35.3618 62.2478 36.406C62.2478 38.9985 67.3247 38.7824 67.3247 42.3111C67.3247 44.3454 65.9385 45.8037 63.7421 45.8037C61.6177 45.8037 60.5195 44.4714 60.5195 44.4714Z" fill="#1C2B36"/>
<path d="M60.0461 46.9199L59.506 48.0001H51.4766V46.9199H60.0461Z" fill="#1C2B36"/>
<path d="M49.6222 33.7236V44.2194L49.7302 45.5697H48.8841L42.1329 38.0083L41.3587 36.8381V44.2194L41.5388 45.5697H39.8825V35.3799L39.6484 33.7236H40.7466L47.3538 41.2129L48.1459 42.3831V35.3799L47.9119 33.7236H49.6222Z" fill="#1C2B36"/>
<path d="M27.6533 45.5696L32.2261 33.7235L33.3243 33.4894L36.997 43.5892L37.8971 45.5696H35.9348L34.8006 42.473H30.3898L29.2196 45.5696H27.6533ZM32.4602 36.9821L30.8759 41.1048H34.3505L32.8562 36.9641L32.6762 36.2619L32.4602 36.9821Z" fill="#1C2B36"/>
<path d="M20.7038 45.5697V35.3799L20.4697 33.7236H26.6268V35.0558H22.3241V38.8365H26.0867L25.7267 40.1687H22.3241V44.2374H26.8248L26.4648 45.5697H20.7038Z" fill="#1C2B36"/>
<path d="M12.318 45.5697V35.3799L12.084 33.7236H13.9383V44.2014H18.5831L18.2231 45.5697H12.318Z" fill="#1C2B36"/>
<path d="M9.50567 34.9834L8.67752 36.2076C7.83138 35.3255 6.8412 34.8394 5.65299 34.8394C3.33059 34.8394 1.7283 37.2158 1.7283 39.7182C1.7283 42.6167 3.76266 44.4171 5.77902 44.4171C7.4173 44.4171 9.27163 42.9048 9.27163 42.9048L9.6677 44.237C9.6677 44.237 7.93939 45.8033 5.49096 45.8033C2.70047 45.8033 0 43.7509 0 39.8983C0 36.2076 2.55645 33.5071 5.72501 33.5071C7.21927 33.5071 8.44348 34.0112 9.50567 34.9834Z" fill="#1C2B36"/>
</g>
</g>
<defs>
<clipPath id="clip0_193_21808">
<rect width="110" height="48" fill="white"/>
</clipPath>
<clipPath id="clip1_193_21808">
<rect width="110" height="48" fill="white"/>
</clipPath>
<clipPath id="clip2_193_21808">
<rect width="32" height="27" fill="white"/>
</clipPath>
<clipPath id="clip3_193_21808">
<rect width="31.0603" height="25.89" fill="white" transform="translate(0.508789 0.5)"/>
</clipPath>
</defs>
</svg>
