<svg width="244" height="54" viewBox="0 0 244 54" fill="none" xmlns="http://www.w3.org/2000/svg">
<g clip-path="url(#clip0_193_7964)">
<path d="M28.4604 5.3L30.2004 1L32.0004 5.3L36.2004 7.02L31.9604 8.83L30.2204 13.04L28.4504 8.71L24.1504 7.02L28.4504 5.3H28.4604Z" fill="#1C2B36"/>
<path d="M54.3998 18.27L56.1398 13.97L57.9398 18.27L62.1398 19.99L57.8998 21.8L56.1598 26.01L54.3898 21.68L50.0898 19.99L54.3898 18.27H54.3998Z" fill="#1C2B36"/>
<path d="M10.2697 19.6701C11.6697 19.1701 12.8397 19.3801 13.0597 19.4301L14.2397 19.6901L14.4297 18.4901C14.5697 17.6401 14.8697 16.9101 15.3297 16.3201C15.5497 16.0401 15.7597 15.8601 15.8297 15.8001C16.0597 15.6101 16.5597 15.2801 17.2297 15.1901C18.1597 15.0601 18.8697 15.4401 19.1397 15.5801C19.6097 15.8301 19.9097 16.1301 20.1397 16.3701C20.7397 16.9801 21.1997 17.7401 21.4997 18.6101L21.8397 19.6001L22.8597 19.3401C23.5697 19.1601 24.3197 19.0301 25.0697 18.9601C25.1297 18.9601 25.3597 18.9301 25.5397 18.9201C25.5497 18.9201 26.8697 18.8701 28.1897 19.4101C29.2997 19.8601 31.3897 21.3901 31.3897 23.0201H33.6797C33.6797 20.2201 30.8397 18.0201 29.0597 17.2901C27.2597 16.5601 25.5197 16.6301 25.4397 16.6301C25.2197 16.6401 24.9597 16.6601 24.8597 16.6701C24.3197 16.7201 23.7897 16.8001 23.2697 16.9001C22.8797 16.1001 22.3797 15.3801 21.7797 14.7601C21.4897 14.4601 20.9997 13.9601 20.2097 13.5401C19.7997 13.3201 18.5697 12.6701 16.9097 12.9001C15.7597 13.0601 14.9097 13.5801 14.3997 13.9901C14.1897 14.1601 13.8697 14.4501 13.5297 14.8801C13.0297 15.5101 12.6597 16.2301 12.4197 17.0301C11.6697 17.0001 10.6297 17.0801 9.49973 17.4801C6.45973 18.5601 5.46973 21.6701 5.46973 23.0001H7.75973C7.75973 22.5901 8.19973 20.3701 10.2697 19.6401V19.6701Z" fill="#1C2B36"/>
<path d="M33.7 48.85L33.38 48.58C33.09 48.32 32.88 48.11 32.77 48.01C32.69 47.94 32.66 47.92 32.65 47.91C32.65 47.91 32.65 47.91 32.64 47.91C32.64 47.91 32.62 47.91 32.59 47.9C32.48 47.88 32.44 47.9 32.14 48.01C31.81 48.14 31.3 48.32 30.59 48.17C30.24 48.09 29.86 47.94 29.53 47.72C29.22 47.51 28.83 47.14 28.71 46.59C28.65 46.34 28.65 46.1 28.65 45.95V45.91C28.65 45.91 28.65 45.88 28.65 45.85C28.65 45.8 28.65 45.74 28.66 45.67C28.67 45.52 28.7 45.32 28.76 45.1C28.8 44.94 28.89 44.79 28.92 44.74C28.97 44.65 29.03 44.55 29.11 44.43C29.26 44.2 29.47 43.88 29.73 43.49C30.25 42.72 31 41.64 31.94 40.31C32.9 38.94 34.07 37.3 35.39 35.46L36.44 25.57C37.27 25.27 38.2 24.93 38.25 23.77C38.29 22.62 36.8 22.3 36.79 22.3H2.43C1.71 22.3 1 22.77 1 23.89C1 25 2.72 25.56 2.74 25.57C2.74 25.57 5.35 48.94 5.42 49.44C5.49 49.93 5.92 51.07 6.93 51.85C7.93 52.63 9.39 52.76 9.4 52.77H28.56C28.56 52.77 30.65 52.88 32.27 51.81C33.59 50.94 33.89 49.54 33.95 49.04L33.7 48.84V48.85ZM18.47 43.51L16.19 49.02L13.87 43.35L8.25 41.14L13.87 38.89L16.15 33.27L18.51 38.89L24.01 41.14L18.47 43.51Z" fill="#1C2B36"/>
<path d="M59.5802 46.6C59.7502 46.49 60.1202 46.1328 60.1202 45.38L60.0902 44.98L49.7702 30.12L50.4702 29.58C50.6002 29.48 50.7202 29.37 50.8102 29.24C51.0702 28.89 51.1802 28.47 51.1302 27.98V27.85C51.0702 27.4 50.8202 27 50.4102 26.71C50.1302 26.51 49.7702 26.37 49.3502 26.3L48.6202 26.17L48.4902 23.03L48.2102 15.88C47.9302 8.87998 47.7602 5.01998 47.7102 4.41998C47.6402 3.61998 47.4602 3.11998 47.1202 2.78998C46.7502 2.42998 46.1702 2.25998 45.3002 2.25998C44.5702 2.25998 44.0302 2.61998 43.7002 3.33998C43.5742 3.6115 43.5139 3.88302 43.4739 4.06335L43.4702 4.07998C43.4502 4.17998 43.4302 4.25998 43.4302 4.31998L43.4102 4.64998L42.4402 26.2L41.6102 26.26C41.0602 26.3 40.6902 26.41 40.4002 26.61L40.3302 26.67C40.1602 26.82 39.6702 27.31 39.6902 28.13L39.7302 28.51C39.8002 28.87 40.0202 29.24 40.3502 29.52L41.0102 30.07L40.5102 30.77C37.7302 34.62 35.3402 37.95 33.6002 40.42C32.6702 41.75 31.9202 42.82 31.4002 43.59C31.1502 43.97 30.9502 44.28 30.8002 44.51C30.7402 44.61 30.6802 44.7 30.6402 44.78C30.5902 44.87 30.5702 44.91 30.5702 44.92C30.5302 45.08 30.5102 45.23 30.4902 45.34V45.48C30.4902 45.65 30.4902 45.81 30.5302 45.97C30.5902 46.23 30.8002 46.42 30.9702 46.54C31.1802 46.68 31.4402 46.79 31.7002 46.85C32.1302 46.94 32.4102 46.85 32.7102 46.73L32.7351 46.7202C33.0525 46.595 33.2896 46.5015 33.6502 46.56L33.9202 46.63L34.0402 46.69C34.0602 46.7 34.1302 46.74 34.3102 46.9L34.4602 47.04C34.5702 47.14 34.7202 47.29 34.9102 47.46L35.5502 47.98C35.8202 48.2 36.1902 48.48 36.5402 48.68C37.0102 48.95 37.4102 49.05 37.7802 49C38.3962 48.9205 38.7851 48.3969 39.0451 48.0468L39.0502 48.04C39.2102 47.82 39.3102 47.71 39.3802 47.62L40.1302 46.72L40.8302 47.66C41.0002 47.88 41.2002 48.13 41.6002 48.32C42.0702 48.54 42.4102 48.5 42.7702 48.45L42.7786 48.4489C43.2357 48.3893 43.6845 48.3307 44.3902 48.45C44.9302 48.54 45.2502 48.67 45.5102 48.78C45.6802 48.85 45.8102 48.9 45.9302 48.92C46.0402 48.94 46.1502 48.92 46.2802 48.88C46.7502 48.71 46.9502 48.26 47.1102 47.84L47.7402 46.29L48.9902 47.43C49.1502 47.59 49.3702 47.8 49.5902 47.93C49.8302 48.08 50.0502 48.13 50.2802 48.1C50.6502 48.04 50.8802 47.77 51.0702 47.51C51.2302 47.3 51.3402 47.17 51.3402 47.17L51.8902 46.58L52.6702 47.13C52.9902 47.37 53.3102 47.61 53.8702 47.75C54.0402 47.8 54.3302 47.87 54.6302 47.88C54.9802 47.89 55.2702 47.82 55.4702 47.66C55.6402 47.53 55.7502 47.34 55.8102 47.1C55.8302 47.01 55.8502 46.92 55.8502 46.83L56.0302 45.09L57.3602 46.22C57.7602 46.56 58.2802 46.93 58.9002 46.85H58.9302C59.1502 46.81 59.3802 46.72 59.5802 46.6Z" fill="#1C2B36"/>
</g>
<path d="M223.746 34.446V19.73L223.408 17.338H232.3V19.262H226.086V24.722H231.52L231 26.646H226.086V32.522H232.586L232.066 34.446H223.746Z" fill="#1C2B36"/>
<path d="M218.207 17.338V32.496L218.363 34.446H217.141L207.391 23.526L206.273 21.836V32.496L206.533 34.446H204.141V19.73L203.803 17.338H205.389L214.931 28.154L216.075 29.844V19.73L215.737 17.338H218.207Z" fill="#1C2B36"/>
<path d="M198.537 17.338V32.496L198.797 34.446H196.197V19.73L195.859 17.338H198.537Z" fill="#1C2B36"/>
<path d="M190.402 17.338V32.496L190.662 34.446H188.062V26.646H178.91V32.496L179.17 34.446H176.57V19.73L176.232 17.338H178.91V24.566H188.062V19.73L187.724 17.338H190.402Z" fill="#1C2B36"/>
<path d="M162.57 32.86C162.596 32.834 162.83 30.624 162.83 30.624C162.83 30.624 164.728 32.912 167.302 32.912C168.784 32.912 170.084 31.898 170.084 30.078C170.084 26.646 162.622 26.516 162.622 21.914C162.622 19.236 164.702 17.026 167.64 17.026C169.694 17.026 171.15 17.754 171.93 18.248L171.254 20.146C171.202 20.016 169.538 18.872 167.562 18.872C166.34 18.872 165.066 19.704 165.066 21.212C165.066 24.956 172.398 24.644 172.398 29.74C172.398 32.678 170.396 34.784 167.224 34.784C164.156 34.784 162.57 32.86 162.57 32.86Z" fill="#1C2B36"/>
<path d="M161.889 36.396L161.109 37.956H149.513V36.396H161.889Z" fill="#1C2B36"/>
<path d="M146.834 17.338V32.496L146.99 34.446H145.768L136.018 23.526L134.9 21.836V32.496L135.16 34.446H132.768V19.73L132.43 17.338H134.016L143.558 28.154L144.702 29.844V19.73L144.364 17.338H146.834Z" fill="#1C2B36"/>
<path d="M115.106 34.446L121.71 17.338L123.296 17L128.6 31.586L129.9 34.446H127.066L125.428 29.974H119.058L117.368 34.446H115.106ZM122.048 22.044L119.76 27.998H124.778L122.62 22.018L122.36 21.004L122.048 22.044Z" fill="#1C2B36"/>
<path d="M105.07 34.446V19.73L104.732 17.338H113.624V19.262H107.41V24.722H112.844L112.324 26.646H107.41V32.522H113.91L113.39 34.446H105.07Z" fill="#1C2B36"/>
<path d="M92.9591 34.446V19.73L92.6211 17.338H95.2991V32.47H102.007L101.487 34.446H92.9591Z" fill="#1C2B36"/>
<path d="M88.8979 19.158L87.7019 20.926C86.4799 19.652 85.0499 18.95 83.3339 18.95C79.9799 18.95 77.6659 22.382 77.6659 25.996C77.6659 30.182 80.6039 32.782 83.5159 32.782C85.8819 32.782 88.5599 30.598 88.5599 30.598L89.1319 32.522C89.1319 32.522 86.6359 34.784 83.0999 34.784C79.0699 34.784 75.1699 31.82 75.1699 26.256C75.1699 20.926 78.8619 17.026 83.4379 17.026C85.5959 17.026 87.3639 17.754 88.8979 19.158Z" fill="#1C2B36"/>
<defs>
<clipPath id="clip0_193_7964">
<rect width="61.15" height="51.78" fill="white" transform="translate(1 1)"/>
</clipPath>
</defs>
</svg>
