<svg width="180" height="115" viewBox="0 0 180 115" fill="none" xmlns="http://www.w3.org/2000/svg">
<path d="M159.576 99.446V84.73L159.238 82.338H168.13V84.262H161.916V89.722H167.35L166.83 91.646H161.916V97.522H168.416L167.896 99.446H159.576Z" fill="#1C2B36"/>
<path d="M154.037 82.338V97.496L154.193 99.446H152.971L143.221 88.526L142.103 86.836V97.496L142.363 99.446H139.971V84.73L139.633 82.338H141.219L150.761 93.154L151.905 94.844V84.73L151.567 82.338H154.037Z" fill="#1C2B36"/>
<path d="M134.367 82.338V97.496L134.627 99.446H132.027V84.73L131.689 82.338H134.367Z" fill="#1C2B36"/>
<path d="M126.233 82.338V97.496L126.493 99.446H123.893V91.646H114.741V97.496L115.001 99.446H112.401V84.73L112.062 82.338H114.741V89.566H123.893V84.73L123.555 82.338H126.233Z" fill="#1C2B36"/>
<path d="M98.4004 97.86C98.4264 97.834 98.6604 95.624 98.6604 95.624C98.6604 95.624 100.558 97.912 103.132 97.912C104.614 97.912 105.914 96.898 105.914 95.078C105.914 91.646 98.4524 91.516 98.4524 86.914C98.4524 84.236 100.532 82.026 103.47 82.026C105.524 82.026 106.98 82.754 107.76 83.248L107.084 85.146C107.032 85.016 105.368 83.872 103.392 83.872C102.17 83.872 100.896 84.704 100.896 86.212C100.896 89.956 108.228 89.644 108.228 94.74C108.228 97.678 106.226 99.784 103.054 99.784C99.9864 99.784 98.4004 97.86 98.4004 97.86Z" fill="#1C2B36"/>
<path d="M97.7188 101.396L96.9388 102.956H85.3428V101.396H97.7188Z" fill="#1C2B36"/>
<path d="M82.6638 82.338V97.496L82.8198 99.446H81.5978L71.8478 88.526L70.7298 86.836V97.496L70.9898 99.446H68.5978V84.73L68.2598 82.338H69.8458L79.3878 93.154L80.5318 94.844V84.73L80.1938 82.338H82.6638Z" fill="#1C2B36"/>
<path d="M50.9365 99.446L57.5405 82.338L59.1265 82L64.4305 96.586L65.7305 99.446H62.8965L61.2585 94.974H54.8885L53.1985 99.446H50.9365ZM57.8785 87.044L55.5905 92.998H60.6085L58.4505 87.018L58.1905 86.004L57.8785 87.044Z" fill="#1C2B36"/>
<path d="M40.9005 99.446V84.73L40.5625 82.338H49.4545V84.262H43.2405V89.722H48.6745L48.1545 91.646H43.2405V97.522H49.7405L49.2205 99.446H40.9005Z" fill="#1C2B36"/>
<path d="M28.7892 99.446V84.73L28.4512 82.338H31.1292V97.47H37.8372L37.3172 99.446H28.7892Z" fill="#1C2B36"/>
<path d="M24.728 84.1581L23.532 85.9261C22.31 84.6521 20.88 83.9501 19.164 83.9501C15.81 83.9501 13.496 87.3821 13.496 90.9961C13.496 95.1821 16.434 97.7821 19.346 97.7821C21.712 97.7821 24.39 95.5981 24.39 95.5981L24.962 97.5221C24.962 97.5221 22.466 99.7841 18.93 99.7841C14.9 99.7841 11 96.8201 11 91.2561C11 85.9261 14.692 82.0261 19.268 82.0261C21.426 82.0261 23.194 82.7541 24.728 84.1581Z" fill="#1C2B36"/>
<g clip-path="url(#clip0_193_7925)">
<path d="M86.4604 17.3L88.2004 13L90.0004 17.3L94.2004 19.02L89.9604 20.83L88.2204 25.04L86.4504 20.71L82.1504 19.02L86.4504 17.3H86.4604Z" fill="#1C2B36"/>
<path d="M112.4 30.27L114.14 25.97L115.94 30.27L120.14 31.99L115.9 33.8L114.16 38.01L112.39 33.68L108.09 31.99L112.39 30.27H112.4Z" fill="#1C2B36"/>
<path d="M68.2697 31.6701C69.6697 31.1701 70.8397 31.3801 71.0597 31.4301L72.2397 31.6901L72.4297 30.4901C72.5697 29.6401 72.8697 28.9101 73.3297 28.3201C73.5497 28.0401 73.7597 27.8601 73.8297 27.8001C74.0597 27.6101 74.5597 27.2801 75.2297 27.1901C76.1597 27.0601 76.8697 27.4401 77.1397 27.5801C77.6097 27.8301 77.9097 28.1301 78.1397 28.3701C78.7397 28.9801 79.1997 29.7401 79.4997 30.6101L79.8397 31.6001L80.8597 31.3401C81.5697 31.1601 82.3197 31.0301 83.0697 30.9601C83.1297 30.9601 83.3597 30.9301 83.5397 30.9201C83.5497 30.9201 84.8697 30.8701 86.1897 31.4101C87.2997 31.8601 89.3897 33.3901 89.3897 35.0201H91.6797C91.6797 32.2201 88.8397 30.0201 87.0597 29.2901C85.2597 28.5601 83.5197 28.6301 83.4397 28.6301C83.2197 28.6401 82.9597 28.6601 82.8597 28.6701C82.3197 28.7201 81.7897 28.8001 81.2697 28.9001C80.8797 28.1001 80.3797 27.3801 79.7797 26.7601C79.4897 26.4601 78.9997 25.9601 78.2097 25.5401C77.7997 25.3201 76.5697 24.6701 74.9097 24.9001C73.7597 25.0601 72.9097 25.5801 72.3997 25.9901C72.1897 26.1601 71.8697 26.4501 71.5297 26.8801C71.0297 27.5101 70.6597 28.2301 70.4197 29.0301C69.6697 29.0001 68.6297 29.0801 67.4997 29.4801C64.4597 30.5601 63.4697 33.6701 63.4697 35.0001H65.7597C65.7597 34.5901 66.1997 32.3701 68.2697 31.6401V31.6701Z" fill="#1C2B36"/>
<path d="M91.7 60.85L91.38 60.58C91.09 60.32 90.88 60.11 90.77 60.01C90.69 59.94 90.66 59.92 90.65 59.91C90.65 59.91 90.65 59.91 90.64 59.91C90.64 59.91 90.62 59.91 90.59 59.9C90.48 59.88 90.44 59.9 90.14 60.01C89.81 60.14 89.3 60.32 88.59 60.17C88.24 60.09 87.86 59.94 87.53 59.72C87.22 59.51 86.83 59.14 86.71 58.59C86.65 58.34 86.65 58.1 86.65 57.95V57.91C86.65 57.91 86.65 57.88 86.65 57.85C86.65 57.8 86.65 57.74 86.66 57.67C86.67 57.52 86.7 57.32 86.76 57.1C86.8 56.94 86.89 56.79 86.92 56.74C86.97 56.65 87.03 56.55 87.11 56.43C87.26 56.2 87.47 55.88 87.73 55.49C88.25 54.72 89 53.64 89.94 52.31C90.9 50.94 92.07 49.3 93.39 47.46L94.44 37.57C95.27 37.27 96.2 36.93 96.25 35.77C96.29 34.62 94.8 34.3 94.79 34.3H60.43C59.71 34.3 59 34.77 59 35.89C59 37 60.72 37.56 60.74 37.57C60.74 37.57 63.35 60.94 63.42 61.44C63.49 61.93 63.92 63.07 64.93 63.85C65.93 64.63 67.39 64.76 67.4 64.77H86.56C86.56 64.77 88.65 64.88 90.27 63.81C91.59 62.94 91.89 61.54 91.95 61.04L91.7 60.84V60.85ZM76.47 55.51L74.19 61.02L71.87 55.35L66.25 53.14L71.87 50.89L74.15 45.27L76.51 50.89L82.01 53.14L76.47 55.51Z" fill="#1C2B36"/>
<path d="M117.58 58.6C117.75 58.49 118.12 58.1328 118.12 57.38L118.09 56.98L107.77 42.12L108.47 41.58C108.6 41.48 108.72 41.37 108.81 41.24C109.07 40.89 109.18 40.47 109.13 39.98V39.85C109.07 39.4 108.82 39 108.41 38.71C108.13 38.51 107.77 38.37 107.35 38.3L106.62 38.17L106.49 35.03L106.21 27.88C105.93 20.88 105.76 17.02 105.71 16.42C105.64 15.62 105.46 15.12 105.12 14.79C104.75 14.43 104.17 14.26 103.3 14.26C102.57 14.26 102.03 14.62 101.7 15.34C101.574 15.6115 101.514 15.883 101.474 16.0634L101.47 16.08C101.45 16.18 101.43 16.26 101.43 16.32L101.41 16.65L100.44 38.2L99.6102 38.26C99.0602 38.3 98.6902 38.41 98.4002 38.61L98.3302 38.67C98.1602 38.82 97.6702 39.31 97.6902 40.13L97.7302 40.51C97.8002 40.87 98.0202 41.24 98.3502 41.52L99.0102 42.07L98.5102 42.77C95.7302 46.62 93.3402 49.95 91.6002 52.42C90.6702 53.75 89.9202 54.82 89.4002 55.59C89.1502 55.97 88.9502 56.28 88.8002 56.51C88.7402 56.61 88.6802 56.7 88.6402 56.78C88.5902 56.87 88.5702 56.91 88.5702 56.92C88.5302 57.08 88.5102 57.23 88.4902 57.34V57.48C88.4902 57.65 88.4902 57.81 88.5302 57.97C88.5902 58.23 88.8002 58.42 88.9702 58.54C89.1802 58.68 89.4402 58.79 89.7002 58.85C90.1302 58.94 90.4102 58.85 90.7102 58.73L90.7351 58.7202C91.0525 58.595 91.2896 58.5015 91.6502 58.56L91.9202 58.63L92.0402 58.69C92.0602 58.7 92.1302 58.74 92.3102 58.9L92.4602 59.04C92.5702 59.14 92.7202 59.29 92.9102 59.46L93.5502 59.98C93.8202 60.2 94.1902 60.48 94.5402 60.68C95.0102 60.95 95.4102 61.05 95.7802 61C96.3962 60.9205 96.7851 60.3969 97.0451 60.0468L97.0502 60.04C97.2102 59.82 97.3102 59.71 97.3802 59.62L98.1302 58.72L98.8302 59.66C99.0002 59.88 99.2002 60.13 99.6002 60.32C100.07 60.54 100.41 60.5 100.77 60.45L100.779 60.4489C101.236 60.3893 101.685 60.3307 102.39 60.45C102.93 60.54 103.25 60.67 103.51 60.78C103.68 60.85 103.81 60.9 103.93 60.92C104.04 60.94 104.15 60.92 104.28 60.88C104.75 60.71 104.95 60.26 105.11 59.84L105.74 58.29L106.99 59.43C107.15 59.59 107.37 59.8 107.59 59.93C107.83 60.08 108.05 60.13 108.28 60.1C108.65 60.04 108.88 59.77 109.07 59.51C109.23 59.3 109.34 59.17 109.34 59.17L109.89 58.58L110.67 59.13C110.99 59.37 111.31 59.61 111.87 59.75C112.04 59.8 112.33 59.87 112.63 59.88C112.98 59.89 113.27 59.82 113.47 59.66C113.64 59.53 113.75 59.34 113.81 59.1C113.83 59.01 113.85 58.92 113.85 58.83L114.03 57.09L115.36 58.22C115.76 58.56 116.28 58.93 116.9 58.85H116.93C117.15 58.81 117.38 58.72 117.58 58.6Z" fill="#1C2B36"/>
</g>
<defs>
<clipPath id="clip0_193_7925">
<rect width="61.15" height="51.78" fill="white" transform="translate(59 13)"/>
</clipPath>
</defs>
</svg>
