<svg width="76" height="76" viewBox="0 0 76 76" fill="none" xmlns="http://www.w3.org/2000/svg">
<path d="M66.8774 40.9473H56.8072C56.4094 40.9473 56.0879 40.625 56.0879 40.228V35.9122C56.0879 35.5151 56.4094 35.1929 56.8072 35.1929H66.8774C67.2751 35.1929 67.5967 35.5151 67.5967 35.9122V40.228C67.5967 40.625 67.2751 40.9473 66.8774 40.9473ZM57.5265 39.5087H66.1581V36.6315H57.5265V39.5087ZM66.8774 56.7718H56.8072C56.4094 56.7718 56.0879 56.4503 56.0879 56.0525C56.0879 55.6547 56.4094 55.3332 56.8072 55.3332H66.8774C67.2751 55.3332 67.5967 55.6547 67.5967 56.0525C67.5967 56.4503 67.2751 56.7718 66.8774 56.7718ZM60.9187 38.7894H59.6844C59.2866 38.7894 58.9651 38.4671 58.9651 38.0701C58.9651 37.673 59.2866 37.3508 59.6844 37.3508H60.9187C61.3165 37.3508 61.638 37.673 61.638 38.0701C61.638 38.4671 61.3165 38.7894 60.9187 38.7894ZM64.0002 38.7894H62.7659C62.3681 38.7894 62.0466 38.4671 62.0466 38.0701C62.0466 37.673 62.3681 37.3508 62.7659 37.3508H64.0002C64.3979 37.3508 64.7195 37.673 64.7195 38.0701C64.7195 38.4671 64.3979 38.7894 64.0002 38.7894ZM66.8774 58.2104H56.8072C56.4094 58.2104 56.0879 58.5319 56.0879 58.9297V61.8069C56.0879 62.2047 56.4094 62.5262 56.8072 62.5262H66.8774C67.2751 62.5262 67.5967 62.2047 67.5967 61.8069V58.9297C67.5967 58.5319 67.2751 58.2104 66.8774 58.2104ZM57.5265 59.649H61.123V61.0876H57.5265V59.649ZM66.1581 61.0876H62.5616V59.649H66.1581V61.0876ZM61.8552 53.0293C59.1039 53.0293 56.8647 50.7909 56.8647 48.0388C56.8647 45.2875 59.1032 43.0483 61.8552 43.0483C64.6073 43.0483 66.8457 45.2868 66.8457 48.0388C66.845 50.7909 64.6065 53.0293 61.8552 53.0293ZM61.8552 44.4869C59.8966 44.4869 58.3033 46.0802 58.3033 48.0388C58.3033 49.9975 59.8966 51.5907 61.8552 51.5907C63.8139 51.5907 65.4071 49.9975 65.4071 48.0388C65.4064 46.0802 63.8132 44.4869 61.8552 44.4869ZM61.8552 50.5276C61.4575 50.5276 61.1359 50.2061 61.1359 49.8083C61.1359 49.4105 61.4575 49.089 61.8552 49.089C62.4343 49.089 62.9054 48.6179 62.9054 48.0388C62.9054 47.6418 63.2269 47.3195 63.6247 47.3195C64.0225 47.3195 64.344 47.6418 64.344 48.0388C64.344 49.4112 63.2276 50.5276 61.8552 50.5276Z" fill="#59ACF3"/>
<path d="M16.164 47.368C16.3043 47.5083 16.4884 47.5788 16.6725 47.5788C16.8567 47.5788 17.0408 47.5083 17.1811 47.368L19.6986 44.8505C19.9799 44.5692 19.9799 44.1146 19.6986 43.8334C19.4174 43.5521 18.9628 43.5521 18.6815 43.8334L16.164 46.3509C15.8828 46.6322 15.8828 47.0868 16.164 47.368Z" fill="#59ACF3"/>
<path d="M17.4213 51.3997C17.5616 51.5407 17.7465 51.6119 17.9313 51.6119C18.1147 51.6119 18.2982 51.5421 18.4384 51.4025L27.7217 42.1689C28.0037 41.8884 28.0051 41.4338 27.7246 41.1518C27.4433 40.8699 26.9887 40.8684 26.7075 41.149L17.4242 50.3826C17.1423 50.6631 17.1408 51.1177 17.4213 51.3997Z" fill="#59ACF3"/>
<path d="M13.8594 54.9645C13.9996 55.1048 14.1838 55.1753 14.3679 55.1753C14.5521 55.1753 14.7362 55.1048 14.8765 54.9645L16.5812 53.2598C16.8624 52.9785 16.8624 52.5239 16.5812 52.2427C16.3 51.9614 15.8454 51.9614 15.5641 52.2427L13.8594 53.9474C13.5781 54.2287 13.5781 54.6833 13.8594 54.9645Z" fill="#59ACF3"/>
<path d="M22.0644 51.4011C22.2047 51.5414 22.3888 51.6119 22.573 51.6119C22.7571 51.6119 22.9412 51.5414 23.0815 51.4011L28.3727 46.1092C28.6539 45.828 28.6539 45.3734 28.3727 45.0921C28.0914 44.8109 27.6368 44.8109 27.3556 45.0921L22.0644 50.384C21.7832 50.6653 21.7832 51.1199 22.0644 51.4011Z" fill="#59ACF3"/>
<path d="M36.5496 34.8813C36.6696 34.9213 36.7896 34.9313 36.9196 34.9313C37.2596 34.9313 37.5896 34.8013 37.8396 34.5513C38.1796 34.2113 38.3096 33.7113 38.1696 33.2513C36.6596 28.1813 39.2796 23.4913 41.7296 20.4513C42.5196 19.4713 42.8796 18.2513 42.7496 17.0013C42.6996 16.5613 42.5796 16.1413 42.4196 15.7413L46.5296 10.7213C46.9196 10.2513 47.0996 9.66131 47.0396 9.06131C46.9796 8.46131 46.6896 7.91131 46.2196 7.52131C45.7496 7.13131 45.1496 6.95131 44.5496 7.01131C43.9496 7.07131 43.3996 7.36131 43.0096 7.83131L38.8696 12.8913C38.5196 12.8413 38.1596 12.8113 37.7896 12.8413C36.4296 12.9413 35.1396 13.5913 34.2496 14.6313C31.7696 17.5513 27.7396 20.9313 22.5596 20.4513C22.0796 20.4013 21.6196 20.6313 21.3496 21.0413C21.0796 21.4513 21.0596 21.9613 21.2896 22.3813C24.7896 28.6913 29.9196 32.9113 36.5496 34.8813ZM44.1496 8.75131C44.2896 8.58131 44.4796 8.48131 44.6996 8.46131C44.9096 8.44131 45.1296 8.50131 45.2896 8.64131C45.4596 8.78131 45.5596 8.97131 45.5796 9.19131C45.5996 9.40131 45.5396 9.61131 45.3996 9.78131L41.6196 14.4013C41.4796 14.2413 41.3496 14.0813 41.1896 13.9413C40.9396 13.7213 40.6596 13.5313 40.3696 13.3813L44.1496 8.75131ZM35.3796 15.5613C36.0096 14.8213 36.9296 14.3513 37.8996 14.2913C38.7696 14.2313 39.5896 14.4913 40.2096 15.0413C40.8296 15.5813 41.2096 16.3313 41.2996 17.1513C41.3896 18.0113 41.1396 18.8613 40.5996 19.5313C37.9596 22.7913 35.1696 27.8213 36.6896 33.3913C35.9196 33.1513 35.1696 32.8813 34.4396 32.5713C33.9796 30.2013 35.4396 27.9413 35.4496 27.9113C35.6696 27.5713 35.5796 27.1213 35.2396 26.8913C34.8996 26.6713 34.4496 26.7613 34.2296 27.1013C34.1596 27.2013 32.8096 29.3013 32.8896 31.8313C31.7896 31.2813 30.7596 30.6313 29.7796 29.9213C30.7496 26.9413 33.2596 25.1113 33.2896 25.0913C33.6196 24.8613 33.6996 24.4013 33.4596 24.0713C33.2296 23.7413 32.7696 23.6613 32.4396 23.9013C32.3096 23.9913 29.7596 25.8413 28.5396 28.9913C27.3496 28.0013 26.2496 26.8713 25.2496 25.6213C27.7396 25.2013 29.5096 23.4713 29.5896 23.3913C29.8796 23.1013 29.8796 22.6413 29.5896 22.3513C29.3096 22.0613 28.8396 22.0613 28.5496 22.3413C28.5296 22.3613 26.6096 24.1813 24.1896 24.2213C23.6796 23.4813 23.1796 22.7213 22.7296 21.9113C28.3896 22.3113 32.7296 18.6913 35.3796 15.5613Z" fill="#59ACF3"/>
<path d="M48.0159 22.6027C48.4659 22.9427 49.0059 23.1227 49.5559 23.1227C49.6759 23.1227 49.7859 23.1127 49.9059 23.1027C50.5859 23.0127 51.1859 22.6627 51.5959 22.1127C52.0059 21.5727 52.1859 20.8927 52.0959 20.2227C52.0059 19.5427 51.6559 18.9427 51.1059 18.5227C50.5659 18.1127 49.8859 17.9327 49.2059 18.0227C47.8059 18.2127 46.8259 19.5127 47.0259 20.9127C47.1159 21.5927 47.4659 22.1927 48.0159 22.6027ZM49.4059 19.4727C49.4559 19.4627 49.5059 19.4627 49.5559 19.4627C49.7959 19.4627 50.0259 19.5427 50.2159 19.6827C50.4459 19.8627 50.5959 20.1227 50.6359 20.4127C50.6759 20.7027 50.5959 20.9827 50.4259 21.2227C50.2459 21.4527 49.9859 21.6027 49.6959 21.6427C49.4059 21.6827 49.1259 21.6027 48.8859 21.4327C48.6559 21.2527 48.5059 21.0027 48.4659 20.7127C48.3959 20.1127 48.8159 19.5627 49.4059 19.4727Z" fill="#59ACF3"/>
<path d="M26.66 13.9412C26.78 13.9412 26.91 13.9312 27.04 13.9112C27.78 13.8112 28.44 13.4312 28.89 12.8312C29.34 12.2412 29.53 11.5012 29.43 10.7712C29.33 10.0312 28.95 9.37118 28.35 8.92118C27.75 8.47118 27.01 8.27118 26.28 8.38118C25.54 8.48118 24.89 8.86118 24.44 9.46118C23.99 10.0512 23.8 10.7912 23.9 11.5312C24.09 12.9312 25.29 13.9412 26.66 13.9412ZM25.61 10.3512C25.82 10.0712 26.13 9.89118 26.48 9.84118C26.54 9.83118 26.6 9.83118 26.66 9.83118C26.95 9.83118 27.23 9.92118 27.46 10.1012C27.74 10.3112 27.92 10.6312 27.97 10.9812C28.02 11.3312 27.93 11.6812 27.71 11.9612C27.5 12.2412 27.18 12.4212 26.83 12.4712C26.1 12.5812 25.44 12.0612 25.34 11.3412C25.3 10.9812 25.39 10.6312 25.61 10.3512Z" fill="#59ACF3"/>
<path d="M45.2797 26.5513C44.6097 26.0413 43.7797 25.8313 42.9497 25.9413C42.1197 26.0513 41.3897 26.4813 40.8797 27.1513C40.3697 27.8213 40.1597 28.6413 40.2697 29.4713C40.4797 31.0413 41.8297 32.1813 43.3697 32.1813C43.5097 32.1813 43.6497 32.1713 43.7997 32.1513C44.6297 32.0413 45.3697 31.6113 45.8797 30.9413C46.3897 30.2713 46.5997 29.4513 46.4897 28.6213C46.3797 27.8013 45.9397 27.0613 45.2797 26.5513ZM44.7097 30.0613C44.4397 30.4213 44.0397 30.6413 43.5997 30.7113C43.1597 30.7713 42.7197 30.6613 42.3697 30.3913C42.0197 30.1213 41.7897 29.7313 41.7297 29.2913C41.6697 28.8513 41.7797 28.4113 42.0497 28.0513C42.3197 27.7013 42.7097 27.4713 43.1497 27.4113C43.2297 27.4013 43.2997 27.3913 43.3797 27.3913C43.7397 27.3913 44.0897 27.5113 44.3897 27.7313C44.7497 28.0013 44.9697 28.3913 45.0397 28.8413C45.0997 29.2713 44.9797 29.7113 44.7097 30.0613Z" fill="#59ACF3"/>
<path d="M23.5771 28.2539C23.9551 28.2925 24.25 28.6118 24.25 29C24.25 29.4142 23.9142 29.75 23.5 29.75H8C7.30965 29.75 6.75001 30.3096 6.75 31V67C6.75 67.6904 7.30964 68.25 8 68.25H53.25V29.75H49C48.5858 29.75 48.25 29.4142 48.25 29C48.25 28.5858 48.5858 28.25 49 28.25H68C69.5188 28.25 70.75 29.4812 70.75 31V67C70.75 68.5188 69.5188 69.75 68 69.75H8C6.48122 69.75 5.25 68.5188 5.25 67V31C5.25001 29.4812 6.48122 28.25 8 28.25H23.5L23.5771 28.2539ZM54.75 68.25H68C68.6904 68.25 69.25 67.6904 69.25 67V31C69.25 30.3096 68.6904 29.75 68 29.75H54.75V68.25Z" fill="#59ACF3"/>
<path d="M49.25 39C49.25 38.3096 48.6904 37.75 48 37.75H12C11.3096 37.75 10.75 38.3096 10.75 39V61C10.75 61.6904 11.3096 62.25 12 62.25H48C48.6904 62.25 49.25 61.6904 49.25 61V39ZM50.75 61C50.75 62.5188 49.5188 63.75 48 63.75H12C10.4812 63.75 9.25 62.5188 9.25 61V39C9.25 37.4812 10.4812 36.25 12 36.25H48C49.5188 36.25 50.75 37.4812 50.75 39V61Z" fill="#59ACF3"/>
</svg>
