<svg width="76" height="76" viewBox="0 0 76 76" fill="none" xmlns="http://www.w3.org/2000/svg">
<path d="M15.9411 19.4468L20.8551 14.5339C21.1686 14.2204 21.1686 13.7126 20.8551 13.3992C20.5417 13.0857 20.0339 13.0857 19.7204 13.3992L14.8064 18.3121C14.4929 18.6256 14.4929 19.1334 14.8064 19.4468C15.1211 19.7616 15.6289 19.7591 15.9411 19.4468Z" fill="#59ACF3"/>
<path d="M15.9411 28.8674L30.2746 14.5339C30.588 14.2204 30.588 13.7126 30.2746 13.3992C29.9611 13.0857 29.4533 13.0857 29.1399 13.3992L14.8064 27.7326C14.4929 28.0461 14.4929 28.5539 14.8064 28.8674C15.12 29.1809 15.6276 29.1808 15.9411 28.8674Z" fill="#59ACF3"/>
<path d="M65.4152 65.7554H66.3298C66.7728 65.7554 67.1323 65.396 67.1323 64.9529V6.33175C67.1323 5.88873 66.7728 5.5293 66.3298 5.5293H9.80148C9.35846 5.5293 8.99902 5.88873 8.99902 6.33175V64.9529C8.99902 65.396 9.35846 65.7554 9.80148 65.7554H59.344L63.1336 72.1928C63.8528 73.3726 65.3829 73.87 66.7143 73.105C67.9619 72.36 68.3683 70.7896 67.6359 69.5274L65.4152 65.7554ZM58.3982 64.1505H10.6039V7.13421H65.5273V64.1505H64.4731L57.0326 51.517C56.0462 49.8379 56.6073 47.6708 58.2843 46.6845L64.4229 43.0578C64.6058 42.9501 64.7385 42.7736 64.7918 42.5667C64.845 42.3608 64.8137 42.1425 64.705 41.9586L61.4398 36.4333C61.3312 36.2505 61.1546 36.1178 60.9477 36.0645C60.7439 36.0112 60.5214 36.0436 60.3396 36.1522L59.6913 36.5342L57.1433 32.2204C56.9187 31.8401 56.4255 31.7095 56.0452 31.9383L35.8719 43.8383C35.4906 44.0629 35.3631 44.5551 35.5877 44.9364L38.1262 49.2423L37.4748 49.6289C37.0944 49.8546 36.9691 50.3447 37.1927 50.725L40.4432 56.2492C40.6668 56.6316 41.16 56.7591 41.5414 56.5345L47.6957 52.9203C49.3837 51.9211 51.5501 52.5144 52.525 54.172L58.3982 64.1505ZM37.3786 44.8121L56.1695 33.7271L58.309 37.3485L39.508 48.4251L37.3786 44.8121ZM65.9035 71.7205C65.3706 72.0246 64.7855 71.8177 64.5107 71.3674L53.9084 53.3581C52.4963 50.9551 49.346 50.079 46.8807 51.5379L41.4202 54.7446L38.9815 50.6007C64.8107 35.3883 30.5476 55.5703 60.4671 37.9421L62.9152 42.0839L57.4693 45.3021C55.0306 46.7357 54.2146 49.8881 55.6492 52.331L66.2504 70.3361C66.5346 70.8261 66.3768 71.4374 65.9035 71.7205Z" fill="#59ACF3"/>
<path d="M37.9339 19.1743C38.1883 19.5396 38.6901 19.6261 39.0509 19.3738C39.4145 19.1199 39.5044 18.6194 39.2505 18.2569L38.332 16.9403C38.0802 16.5788 37.5776 16.4879 37.2151 16.7408C36.8514 16.9947 36.7616 17.4952 37.0155 17.8577L37.9339 19.1743Z" fill="#59ACF3"/>
<path d="M41.898 24.8603C42.1493 25.2212 42.6475 25.3149 43.0149 25.0599C43.3786 24.806 43.4684 24.3065 43.2145 23.9429L41.2324 21.0998C40.9806 20.7372 40.4811 20.6474 40.1154 20.9002C39.7518 21.1541 39.662 21.6536 39.9159 22.0172L41.898 24.8603Z" fill="#59ACF3"/>
<path d="M44.8001 29.019C45.0545 29.3843 45.5563 29.4708 45.9171 29.2186C46.2807 28.9647 46.3706 28.4642 46.1167 28.1016L45.1982 26.7851C44.9464 26.4235 44.4449 26.3326 44.0813 26.5855C43.7177 26.8394 43.6278 27.3399 43.8817 27.7025L44.8001 29.019Z" fill="#59ACF3"/>
<path d="M32.6608 22.9065C32.9161 23.264 33.4152 23.3527 33.7809 23.0946C34.1413 22.8365 34.226 22.336 33.9689 21.9745L33.038 20.6674C32.7809 20.3069 32.2815 20.2223 31.9179 20.4793C31.5574 20.7374 31.4728 21.2379 31.7298 21.5994L32.6608 22.9065Z" fill="#59ACF3"/>
<path d="M34.1253 24.9617L35.5892 27.017C35.8445 27.3744 36.3436 27.4632 36.7093 27.2051C37.0697 26.947 37.1544 26.4465 36.8973 26.085L35.4335 24.0297C35.1764 23.6692 34.6759 23.5856 34.3134 23.8416C33.9529 24.0997 33.8683 24.6002 34.1253 24.9617Z" fill="#59ACF3"/>
<path d="M39.8251 30.1955L38.3612 28.1403C38.1042 27.7798 37.6047 27.6952 37.2411 27.9522C36.8806 28.2103 36.796 28.7108 37.053 29.0723L38.5169 31.1276C38.7722 31.485 39.2713 31.5737 39.637 31.3156C39.9975 31.0575 40.0821 30.5571 39.8251 30.1955Z" fill="#59ACF3"/>
<path d="M41.2889 32.2506C41.0319 31.8901 40.5325 31.8055 40.1688 32.0626C39.8084 32.3206 39.7237 32.8211 39.9808 33.1826L40.9117 34.4898C41.1671 34.8472 41.6662 34.936 42.0318 34.6779C42.3923 34.4198 42.477 33.9193 42.2199 33.5578L41.2889 32.2506Z" fill="#59ACF3"/>
<path d="M26.642 24.2053C26.2753 24.4551 26.1823 24.9545 26.432 25.3202L27.3379 26.6451C27.5896 27.0134 28.0919 27.1039 28.4528 26.8551C28.8195 26.6054 28.9125 26.106 28.6628 25.7402L27.7569 24.4154C27.5061 24.0497 27.0067 23.9535 26.642 24.2053Z" fill="#59ACF3"/>
<path d="M34.5584 34.3624L33.0841 32.2069C32.8344 31.8422 32.336 31.7461 31.9682 31.9979C31.6025 32.2486 31.5095 32.747 31.7592 33.1138L33.2335 35.2694C33.4855 35.6363 33.9857 35.7272 34.3494 35.4783C34.7151 35.2276 34.8081 34.7292 34.5584 34.3624Z" fill="#59ACF3"/>
<path d="M31.6111 30.0502L30.1368 27.8946C29.8861 27.53 29.3887 27.4349 29.0209 27.6857C28.6552 27.9364 28.5622 28.4348 28.8119 28.8016L30.2862 30.9571C30.5382 31.3241 31.0385 31.4149 31.4022 31.1661C31.7679 30.9153 31.8609 30.4169 31.6111 30.0502Z" fill="#59ACF3"/>
<path d="M36.7278 38.9589C37.0935 38.7092 37.1876 38.2097 36.9378 37.844L36.033 36.5191C35.7833 36.1534 35.2849 36.0584 34.9181 36.3091C34.5524 36.5589 34.4584 37.0583 34.7081 37.424L35.6129 38.7489C35.8659 39.1191 36.3685 39.2066 36.7278 38.9589Z" fill="#59ACF3"/>
<path d="M29.1765 47.2121L25.2008 45.0377L23.0264 41.062C22.8853 40.8039 22.6158 40.644 22.3221 40.644C22.0285 40.644 21.759 40.8039 21.6179 41.0609L19.4425 45.0377L15.4668 47.2121C15.2087 47.3531 15.0488 47.6227 15.0488 47.9163C15.0488 48.2099 15.2087 48.4795 15.4657 48.6206L19.4425 50.796L21.6179 54.7727C21.759 55.0298 22.0285 55.1896 22.3221 55.1896C22.6158 55.1896 22.8853 55.0298 23.0264 54.7717L25.2008 50.796L29.1775 48.6206C29.4345 48.4795 29.5944 48.2099 29.5944 47.9163C29.5944 47.6227 29.4345 47.3531 29.1765 47.2121ZM24.2238 49.5003C24.0901 49.5745 23.9793 49.6853 23.9051 49.8201L22.3221 52.7154L20.7381 49.819C20.6639 49.6853 20.5532 49.5745 20.4194 49.5003L17.5231 47.9163L20.4184 46.3333C20.5532 46.2592 20.6639 46.1484 20.7381 46.0147L22.3221 43.1183L23.9051 46.0136C23.9793 46.1484 24.0901 46.2592 24.2248 46.3333L27.1202 47.9163L24.2238 49.5003Z" fill="#59ACF3"/>
<path d="M49.5663 17.1273L52.4167 18.6863L53.9746 21.5346C54.1157 21.7927 54.3852 21.9525 54.6788 21.9525C54.9725 21.9525 55.242 21.7927 55.3831 21.5346L56.941 18.6863L59.7914 17.1273C60.0484 16.9863 60.2083 16.7167 60.2083 16.4231C60.2083 16.1295 60.0484 15.8599 59.7903 15.7189L56.941 14.161L55.3831 11.3127C55.101 10.7965 54.2567 10.7965 53.9746 11.3127L52.4167 14.161L49.5674 15.7189C49.3093 15.8599 49.1494 16.1295 49.1494 16.4231C49.1494 16.7167 49.3093 16.9863 49.5663 17.1273ZM53.3926 15.4566C53.5274 15.3824 53.6382 15.2717 53.7123 15.1369L54.6788 13.37L55.6453 15.1369C55.7195 15.2717 55.8303 15.3824 55.9651 15.4566L57.733 16.4231L55.964 17.3906C55.8303 17.4648 55.7195 17.5756 55.6453 17.7104L54.6788 19.4772L53.7123 17.7104C53.6382 17.5756 53.5274 17.4648 53.3937 17.3906L51.6247 16.4231L53.3926 15.4566Z" fill="#59ACF3"/>
</svg>
