<svg width="76" height="76" viewBox="0 0 76 76" fill="none" xmlns="http://www.w3.org/2000/svg">
<path d="M39.2165 12.0532L39.9765 11.2932C40.6165 10.6532 41.6665 10.6532 42.3165 11.2932L64.6465 33.6232C65.2865 34.2632 65.2865 35.3132 64.6465 35.9632L63.1065 37.5032C62.8165 37.7932 62.8165 38.2532 63.1065 38.5432C63.2465 38.6832 63.4365 38.7532 63.6265 38.7532C63.8165 38.7532 63.9965 38.6832 64.1465 38.5432L65.6865 37.0032C66.9065 35.7832 66.9065 33.8132 65.6865 32.5932L43.3465 10.2532C42.1665 9.07316 40.1165 9.07316 38.9365 10.2532L38.1765 11.0132C37.8865 11.3032 37.8865 11.7632 38.1765 12.0532C38.4665 12.3332 38.9365 12.3332 39.2165 12.0532Z" fill="#59ACF3"/>
<path d="M37.7558 62.8533L34.4258 66.1833C33.7858 66.8233 32.7358 66.8233 32.0858 66.1833L9.75578 43.8533C9.11578 43.2133 9.11578 42.1633 9.75578 41.5133L28.8558 22.4133C29.1458 22.1233 29.1458 21.6633 28.8558 21.3733C28.5658 21.0833 28.1058 21.0833 27.8158 21.3733L8.71578 40.4733C7.49578 41.6933 7.49578 43.6633 8.71578 44.8833L31.0458 67.2233C31.6558 67.8333 32.4558 68.1333 33.2458 68.1333C34.0358 68.1333 34.8458 67.8333 35.4458 67.2233L38.7758 63.8933C39.0658 63.6033 39.0658 63.1433 38.7758 62.8533C38.5058 62.5733 38.0358 62.5733 37.7558 62.8533Z" fill="#59ACF3"/>
<path d="M68.2458 51.7829L67.2058 52.8229L64.9858 50.6029L65.2758 46.2829C65.3958 44.4529 64.7258 42.6529 63.4258 41.3529L46.6058 24.5429C45.9458 23.8829 45.0758 23.5229 44.1458 23.5229C43.2158 23.5329 42.3358 23.8929 41.6858 24.5529C41.1558 25.0829 40.8358 25.7429 40.7158 26.4329L39.9958 25.7129C39.3458 25.0629 38.4658 24.6929 37.5258 24.6829C36.5958 24.6929 35.7258 25.0529 35.0658 25.7129C34.5358 26.2429 34.2158 26.9029 34.0958 27.5929L33.4358 26.9329C32.7758 26.2729 31.9058 25.9129 30.9758 25.9129C29.9658 25.9229 29.0358 26.3429 28.3658 27.1029C27.1558 28.4729 27.2558 30.6029 28.6058 31.9529L29.1758 32.5229C28.5358 32.6329 27.9458 32.9129 27.4558 33.3429C26.7558 33.9529 26.3558 34.8229 26.3258 35.7829C26.2958 36.8129 26.6858 37.8129 27.4158 38.5329L34.9958 46.1129C34.6458 46.063 34.2858 46.0329 33.9158 46.0329C31.9458 46.0429 30.0858 46.8029 28.6958 48.1929C28.4158 48.4629 28.2658 48.8329 28.2658 49.2129C28.2658 49.5829 28.4158 49.9429 28.6758 50.2029L41.6358 63.1629C42.9358 64.4629 44.7258 65.1329 46.5658 65.013L50.8858 64.7229L53.1058 66.9429L51.4058 68.6429C51.1158 68.9329 51.1158 69.3929 51.4058 69.6829C51.5458 69.8229 51.7358 69.8929 51.9258 69.8929C52.1158 69.8929 52.2958 69.8229 52.4458 69.6829L69.2758 52.8529C69.5658 52.5629 69.5658 52.103 69.2758 51.813C68.9958 51.503 68.5258 51.5029 68.2458 51.7829ZM54.1358 65.8929L51.6858 63.4429C51.5458 63.3029 51.3658 63.2329 51.1658 63.2329C51.1458 63.2329 51.1358 63.2329 51.1158 63.2329L46.4658 63.5429C45.0658 63.6329 43.6658 63.1229 42.6658 62.1129L29.7258 49.2229C30.8458 48.1129 32.3358 47.493 33.9258 47.493C35.5158 47.493 37.0058 48.113 38.1358 49.243L44.5558 55.6629C44.6958 55.8029 44.8858 55.8729 45.0758 55.8729C45.2658 55.8729 45.4458 55.8029 45.5958 55.6629C45.8858 55.3729 45.8858 54.9129 45.5958 54.6229L39.1758 48.2029L28.4558 37.4829C28.0158 37.0429 27.7758 36.4329 27.7958 35.8129C27.8158 35.2629 28.0358 34.7729 28.4258 34.4229C28.7958 34.1029 29.2658 33.9229 29.7558 33.9129C30.2758 33.9129 30.7658 34.113 31.1458 34.4729L38.1858 41.513C38.3258 41.653 38.5158 41.7229 38.7058 41.7229C38.8958 41.7229 39.0758 41.653 39.2258 41.513C39.5158 41.2229 39.5158 40.763 39.2258 40.4729L32.2458 33.5029C32.2358 33.4929 32.2358 33.483 32.2258 33.4729L29.6458 30.8929C28.8558 30.1029 28.7758 28.8329 29.4658 28.0529C29.8558 27.6129 30.3958 27.3629 30.9858 27.3629C31.5258 27.3629 32.0258 27.5729 32.4058 27.9529L35.0758 30.6229C35.0858 30.6329 35.0958 30.6329 35.1058 30.6429L42.0758 37.6129C42.2158 37.7529 42.4058 37.8229 42.5958 37.8229C42.7858 37.8229 42.9658 37.7529 43.1158 37.6129C43.4058 37.3229 43.4058 36.8629 43.1158 36.5729L36.0558 29.5129C35.3258 28.7229 35.3358 27.4929 36.1058 26.7229C36.4858 26.3429 36.9958 26.1329 37.5258 26.1229C38.0658 26.1229 38.5758 26.3429 38.9558 26.7229L41.6758 29.4429L45.9458 33.7129C46.0858 33.853 46.2758 33.9229 46.4658 33.9229C46.6558 33.9229 46.8358 33.853 46.9858 33.7129C47.2758 33.4229 47.2758 32.9629 46.9858 32.6729L42.7158 28.4029C41.9358 27.6229 41.9358 26.3429 42.7158 25.5629C43.0958 25.1829 43.6058 24.9729 44.1458 24.9629C44.6858 24.9629 45.1858 25.1729 45.5658 25.5529L62.3758 42.3629C63.3758 43.3629 63.8958 44.7429 63.8058 46.1629L63.4958 50.813C63.4858 51.0229 63.5558 51.233 63.7058 51.3829L66.1558 53.833L54.1358 65.8929Z" fill="#59ACF3"/>
<path d="M54.2459 15.9032C54.0359 16.2432 54.1359 16.7032 54.4859 16.9132C54.6059 16.9832 54.7359 17.0232 54.8659 17.0232C55.1159 17.0232 55.3559 16.9032 55.4859 16.6732C57.0059 14.2232 59.6259 12.7532 62.5059 12.7532C64.6559 12.7532 66.6959 13.5732 68.2459 15.0632C68.5359 15.3432 69.0059 15.3332 69.2859 15.0432C69.5659 14.7532 69.5559 14.2832 69.2659 14.0032C67.4459 12.2532 65.0459 11.2832 62.5059 11.2832C59.1159 11.2932 56.0259 13.0132 54.2459 15.9032Z" fill="#59ACF3"/>
<path d="M51.6455 13.3533C51.7155 13.3733 51.7855 13.3833 51.8555 13.3833C52.1755 13.3833 52.4655 13.1733 52.5555 12.8533C53.2955 10.3433 55.2455 8.42325 57.7655 7.73325C59.6555 7.21325 61.6355 7.44325 63.3555 8.37325C63.7155 8.56325 64.1555 8.43325 64.3455 8.08325C64.5355 7.72325 64.4055 7.28325 64.0555 7.09325C62.0055 5.98325 59.6355 5.70325 57.3755 6.32325C54.3555 7.15325 52.0355 9.44325 51.1455 12.4433C51.0355 12.8333 51.2555 13.2333 51.6455 13.3533Z" fill="#59ACF3"/>
<path d="M63.4368 16.3232C61.1868 16.3232 59.0768 17.2032 57.4968 18.7932C57.2068 19.0832 57.2068 19.5432 57.4968 19.8332C57.6368 19.9732 57.8268 20.0432 58.0168 20.0432C58.2068 20.0432 58.3968 19.9732 58.5368 19.8232C59.8468 18.5132 61.5868 17.7832 63.4368 17.7832C65.2468 17.7832 66.9568 18.4732 68.2568 19.7232C68.5468 20.0032 69.0168 19.9932 69.2968 19.7032C69.5768 19.4132 69.5668 18.9532 69.2768 18.6632C67.6968 17.1532 65.6268 16.3232 63.4368 16.3232Z" fill="#59ACF3"/>
<path d="M68.4863 25.533C68.4863 23.933 67.1762 22.623 65.5662 22.623C63.9662 22.623 62.6562 23.933 62.6562 25.533C62.6562 27.133 63.9662 28.443 65.5662 28.443C67.1762 28.453 68.4863 27.143 68.4863 25.533ZM64.1162 25.533C64.1162 24.733 64.7662 24.083 65.5662 24.083C66.3662 24.083 67.0163 24.733 67.0163 25.533C67.0163 26.333 66.3662 26.983 65.5662 26.983C64.7662 26.983 64.1162 26.333 64.1162 25.533Z" fill="#59ACF3"/>
<path d="M22.0555 62.4932C20.5655 62.4932 19.3555 63.7032 19.3555 65.2032C19.3555 66.6932 20.5655 67.9032 22.0555 67.9032C23.5555 67.9032 24.7655 66.6932 24.7655 65.2032C24.7655 63.7132 23.5555 62.4932 22.0555 62.4932ZM22.0555 66.4432C21.3755 66.4432 20.8155 65.8832 20.8155 65.2032C20.8155 64.5232 21.3755 63.9632 22.0555 63.9632C22.7455 63.9632 23.3055 64.5232 23.3055 65.2032C23.3055 65.8832 22.7455 66.4432 22.0555 66.4432Z" fill="#59ACF3"/>
<path d="M16.1062 57.9532C16.4662 57.7632 16.6062 57.3232 16.4162 56.9632C16.2262 56.6032 15.7862 56.4632 15.4262 56.6532C12.9462 57.9532 11.3462 60.3932 11.1462 63.1832C10.9962 65.2732 11.6462 67.3032 12.9862 68.9132C13.1362 69.0832 13.3362 69.1732 13.5462 69.1732C13.7162 69.1732 13.8762 69.1132 14.0162 69.0032C14.3262 68.7432 14.3662 68.2832 14.1062 67.9732C13.0162 66.6632 12.4762 64.9932 12.6062 63.2832C12.7662 61.0232 14.0762 59.0232 16.1062 57.9532Z" fill="#59ACF3"/>
<path d="M13.1567 55.3731C13.5567 55.2831 13.8067 54.8931 13.7167 54.5031C13.6267 54.1031 13.2367 53.8631 12.8467 53.9431C10.3167 54.4931 8.29667 56.2831 7.42667 58.7131C6.78667 60.5431 6.86667 62.5131 7.66667 64.2631C7.78667 64.5331 8.05667 64.6931 8.33667 64.6931C8.43667 64.6931 8.54667 64.6731 8.63667 64.6231C9.00667 64.4531 9.16667 64.0231 8.99667 63.6531C8.35667 62.2431 8.28667 60.6631 8.80667 59.1931C9.49667 57.2431 11.1267 55.8131 13.1567 55.3731Z" fill="#59ACF3"/>
<path d="M17.5469 59.4731C16.1369 60.6931 15.2869 62.3831 15.1569 64.2331C15.0269 66.0431 15.5969 67.8031 16.7469 69.1931C16.8969 69.3631 17.0969 69.4531 17.3069 69.4531C17.4769 69.4531 17.6369 69.3931 17.7769 69.2831C18.0869 69.0231 18.1269 68.5631 17.8669 68.2531C16.9569 67.1531 16.5069 65.7631 16.6069 64.3331C16.7069 62.8731 17.3769 61.5331 18.4969 60.5731C18.8069 60.3131 18.8369 59.8431 18.5769 59.5431C18.3169 59.2431 17.8569 59.2131 17.5469 59.4731Z" fill="#59ACF3"/>
<path d="M27.7163 17.7831C29.1663 17.7831 30.5263 18.3531 31.5563 19.3731C32.5863 20.4031 33.1463 21.7631 33.1463 23.2131C33.1463 23.6131 33.4763 23.9431 33.8763 23.9431C34.2763 23.9431 34.6063 23.6131 34.6063 23.2131C34.6063 20.2131 37.0463 17.7831 40.0363 17.7831C40.4363 17.7831 40.7663 17.4531 40.7663 17.0531C40.7663 16.6531 40.4363 16.3231 40.0363 16.3231C38.5863 16.3231 37.2263 15.7531 36.1963 14.7331C35.1663 13.7031 34.6063 12.3431 34.6063 10.8931C34.6063 10.4931 34.2763 10.1631 33.8763 10.1631C33.4763 10.1631 33.1463 10.4931 33.1463 10.8931C33.1463 12.3431 32.5763 13.7031 31.5563 14.7331C30.5263 15.7631 29.1663 16.3231 27.7163 16.3231C27.3163 16.3231 26.9863 16.6531 26.9863 17.0531C26.9863 17.4531 27.3163 17.7831 27.7163 17.7831ZM32.5963 15.7631C33.1263 15.2331 33.5563 14.6331 33.8863 13.9831C34.2163 14.6331 34.6463 15.2331 35.1763 15.7631C35.7063 16.2931 36.3063 16.7231 36.9563 17.0531C35.6363 17.7231 34.5563 18.8031 33.8863 20.1231C33.5563 19.4731 33.1263 18.8731 32.5963 18.3431C32.0663 17.8131 31.4663 17.3831 30.8163 17.0531C31.4663 16.7231 32.0663 16.2931 32.5963 15.7631Z" fill="#59ACF3"/>
<path d="M21.9858 40.5329C21.1658 39.7129 20.7158 38.6229 20.7158 37.4629C20.7158 37.0629 20.3858 36.7329 19.9858 36.7329C19.5858 36.7329 19.2458 37.0529 19.2458 37.4529C19.2458 38.6129 18.7958 39.7029 17.9758 40.5229C17.1558 41.3429 16.0658 41.8029 14.9058 41.8029C14.5058 41.8029 14.1758 42.1329 14.1758 42.5329C14.1758 42.9329 14.5058 43.2629 14.9058 43.2629C16.0658 43.2629 17.1558 43.7129 17.9758 44.5329C18.7958 45.3529 19.2458 46.4429 19.2458 47.6029C19.2458 48.0029 19.5758 48.3329 19.9758 48.3329C20.3758 48.3329 20.7058 48.0029 20.7058 47.6029C20.7058 45.2029 22.6558 43.2529 25.0558 43.2529C25.4558 43.2529 25.7858 42.9229 25.7858 42.5229C25.7858 42.1229 25.4558 41.7929 25.0558 41.7929C23.8958 41.8029 22.8058 41.3529 21.9858 40.5329ZM19.9758 44.7929C19.7158 44.3329 19.3958 43.8929 19.0058 43.5129C18.6158 43.1229 18.1858 42.8029 17.7258 42.5429C18.1858 42.2829 18.6158 41.9529 19.0058 41.5729C19.3958 41.1829 19.7158 40.7529 19.9758 40.2929C20.2358 40.7529 20.5558 41.1829 20.9458 41.5729C21.3358 41.9629 21.7658 42.2829 22.2258 42.5429C21.2858 43.0629 20.5058 43.8529 19.9758 44.7929Z" fill="#59ACF3"/>
<path d="M8.28664 25.2733C9.30664 25.2733 10.2566 25.6333 10.9766 26.2933C11.6766 26.9433 12.0566 27.7933 12.0566 28.6933C12.0566 29.0933 12.3866 29.4233 12.7866 29.4233C13.1866 29.4233 13.5166 29.0933 13.5166 28.6933C13.5166 26.8033 15.2066 25.2633 17.2866 25.2633C17.6866 25.2633 18.0166 24.9333 18.0166 24.5333C18.0166 24.1333 17.6866 23.8033 17.2866 23.8033C16.2666 23.8033 15.3166 23.4433 14.5966 22.7833C13.8966 22.1333 13.5166 21.2833 13.5166 20.3833C13.5166 19.9833 13.1866 19.6533 12.7866 19.6533C12.3866 19.6533 12.0566 19.9833 12.0566 20.3833C12.0566 21.2833 11.6666 22.1333 10.9766 22.7833C10.2566 23.4433 9.30664 23.8033 8.28664 23.8033C7.88664 23.8033 7.55664 24.1333 7.55664 24.5333C7.55664 24.9333 7.87664 25.2733 8.28664 25.2733ZM11.9666 23.8633C12.2866 23.5633 12.5666 23.2333 12.7866 22.8833C13.0166 23.2333 13.2866 23.5633 13.6066 23.8633C13.8866 24.1233 14.1966 24.3533 14.5266 24.5433C13.8166 24.9633 13.2166 25.5333 12.7766 26.2033C12.5466 25.8533 12.2766 25.5233 11.9466 25.2233C11.6666 24.9633 11.3566 24.7333 11.0266 24.5433C11.3766 24.3533 11.6766 24.1233 11.9666 23.8633Z" fill="#59ACF3"/>
</svg>
