<svg width="76" height="76" viewBox="0 0 76 76" fill="none" xmlns="http://www.w3.org/2000/svg">
<path d="M46.09 50.24C46.55 49.71 46.85 49.02 46.85 48.25C46.85 46.71 45.7 45.45 44.22 45.24V42.88C44.22 40.67 42.5 38.86 40.33 38.7V36.04H40.53C42.23 36.04 43.61 34.66 43.61 32.96V28.65H62.02C62.86 28.65 63.53 27.97 63.53 27.14V22.94C63.53 22.11 62.85 21.43 62.02 21.43H60.44V8.99C60.44 7.34 59.1 6 57.45 6H14.16C12.51 6 11.17 7.34 11.17 8.99V21.42H9.59C8.75 21.42 8.08 22.1 8.08 22.93V27.14C8.08 27.97 8.76 28.65 9.59 28.65H28V32.96C28 34.66 29.38 36.04 31.08 36.04H31.29V38.66H31.22C30.08 38.66 29 39.15 28.26 40.01L23.79 45.19C22.79 46.35 21.34 47.01 19.81 47.01H17.07V46.16C17.07 45.17 16.26 44.36 15.27 44.36H7.8C6.81 44.36 6 45.17 6 46.16V64.21C6 65.2 6.81 66.01 7.8 66.01H15.26C16.25 66.01 17.06 65.2 17.06 64.21V63.31H22.82C22.95 63.31 23.08 63.33 23.2 63.38L27.37 65C27.66 65.11 27.97 65.17 28.28 65.17H31.29V68.07C31.29 69.06 32.1 69.87 33.09 69.87H38.52C39.51 69.87 40.32 69.06 40.32 68.07V65.17H40.88C42.56 65.17 43.93 63.8 43.93 62.12C43.93 61.54 43.76 61 43.47 60.53C45.12 60.5 46.46 59.15 46.46 57.49C46.46 56.8 46.22 56.17 45.83 55.66C46.91 55.19 47.67 54.11 47.67 52.86C47.66 51.74 47.02 50.75 46.09 50.24ZM15.59 64.22C15.59 64.41 15.44 64.56 15.25 64.56H7.8C7.61 64.56 7.46 64.41 7.46 64.22V46.17C7.46 45.98 7.61 45.83 7.8 45.83H15.26C15.45 45.83 15.6 45.98 15.6 46.17V64.22H15.59ZM44.21 46.73C44.88 46.91 45.38 47.53 45.38 48.26C45.38 48.99 44.89 49.6 44.21 49.79V46.73ZM12.63 8.99C12.63 8.15 13.32 7.46 14.16 7.46H57.43C58.27 7.46 58.96 8.15 58.96 8.99V21.42H54.51V17.23C54.51 16.83 54.18 16.5 53.78 16.5C53.38 16.5 53.05 16.83 53.05 17.23V21.42H48.52V17.23C48.52 16.83 48.19 16.5 47.79 16.5C47.39 16.5 47.06 16.83 47.06 17.23V21.42H42.53V17.23C42.53 16.83 42.2 16.5 41.8 16.5C41.4 16.5 41.07 16.83 41.07 17.23V21.42H36.54V17.23C36.54 16.83 36.21 16.5 35.81 16.5C35.41 16.5 35.08 16.83 35.08 17.23V21.42H30.55V17.23C30.55 16.83 30.22 16.5 29.82 16.5C29.42 16.5 29.09 16.83 29.09 17.23V21.42H24.56V17.23C24.56 16.83 24.23 16.5 23.83 16.5C23.43 16.5 23.1 16.83 23.1 17.23V21.42H18.57V17.23C18.57 16.83 18.24 16.5 17.84 16.5C17.44 16.5 17.11 16.83 17.11 17.23V21.42H12.63V8.99ZM9.53 27.14L9.58 22.88H11.9H59.7H62.01C62.04 22.88 62.06 22.9 62.06 22.93L62.01 27.19L9.53 27.14ZM29.46 32.97V28.66H42.13V32.97C42.13 33.86 41.41 34.58 40.52 34.58H39.58H32.01H31.07C30.19 34.58 29.46 33.86 29.46 32.97ZM38.85 36.05V38.67H32.74V36.05H38.85ZM27.9 63.65L23.73 62.03C23.44 61.92 23.13 61.86 22.82 61.86H17.06V48.49H19.8C21.76 48.49 23.61 47.64 24.89 46.16L29.36 40.98C29.82 40.44 30.5 40.13 31.21 40.13H31.91H40C41.52 40.13 42.75 41.37 42.75 42.88V50.66C42.75 51.15 42.35 51.56 41.81 51.56C39.23 51.56 37.13 49.46 37.13 46.88V45.81C37.13 45.41 36.8 45.08 36.4 45.08H32.84C32.64 45.08 32.44 45.16 32.3 45.31C32.16 45.46 32.09 45.66 32.11 45.86C32.28 48.18 31.82 49.87 30.69 51.02C29.28 52.46 26.73 53.1 23.11 52.9C22.74 52.88 22.36 53.19 22.34 53.59C22.32 53.99 22.63 54.34 23.03 54.36C23.48 54.38 23.92 54.4 24.35 54.4C26.4 54.4 28.09 54.11 29.45 53.55C29.65 54.41 30.21 55.12 30.97 55.53C30.52 56.06 30.23 56.74 30.23 57.5C30.23 58.58 30.8 59.52 31.64 60.06C31.13 60.6 30.82 61.33 30.82 62.13C30.82 62.71 30.99 63.25 31.28 63.71H28.28C28.15 63.72 28.02 63.7 27.9 63.65ZM36.42 49.84H33.1C33.45 48.89 33.62 47.79 33.6 46.56H35.67V46.89C35.66 47.96 35.94 48.96 36.42 49.84ZM38.85 68.08C38.85 68.27 38.7 68.42 38.51 68.42H33.08C32.89 68.42 32.74 68.27 32.74 68.08V65.18H38.85V68.08ZM40.87 63.72H39.58H33.86C32.99 63.72 32.28 63.01 32.28 62.14C32.28 61.27 32.99 60.56 33.86 60.56H40.87C41.74 60.56 42.45 61.27 42.45 62.14C42.46 63.01 41.75 63.72 40.87 63.72ZM43.4 59.09H33.27C32.4 59.09 31.69 58.38 31.69 57.51C31.69 56.64 32.4 55.93 33.27 55.93H43.4C44.27 55.93 44.98 56.64 44.98 57.51C44.98 58.38 44.27 59.09 43.4 59.09ZM44.62 54.46H32.41C31.54 54.46 30.82 53.75 30.82 52.87C30.82 52.85 30.82 52.82 30.82 52.8C31.14 52.57 31.45 52.33 31.72 52.06C31.95 51.83 32.14 51.58 32.33 51.31C32.34 51.31 32.34 51.3 32.35 51.3C32.37 51.3 32.39 51.3 32.41 51.3H37.54C37.62 51.38 37.7 51.45 37.78 51.52C38.86 52.46 40.28 53.03 41.84 53.03C42.81 53.03 43.64 52.44 44 51.61V51.6C44.01 51.58 44.02 51.55 44.03 51.53C44.06 51.45 44.09 51.38 44.12 51.3H44.61C45.48 51.3 46.19 52.01 46.19 52.88C46.2 53.75 45.49 54.46 44.62 54.46Z" fill="#59ACF3"/>
<path d="M12.9093 60.3101H10.5493C10.1493 60.3101 9.81934 60.6401 9.81934 61.0401C9.81934 61.4401 10.1493 61.7701 10.5493 61.7701H12.9093C13.3093 61.7701 13.6393 61.4401 13.6393 61.0401C13.6393 60.6401 13.3093 60.3101 12.9093 60.3101Z" fill="#59ACF3"/>
<path d="M69.6098 19.5C69.6098 18.3 69.0298 17.16 68.0798 16.46C68.2198 15.98 68.2898 15.48 68.2898 14.97C68.2898 11.96 65.8398 9.51001 62.8298 9.51001C62.4598 9.51001 62.0898 9.55001 61.7298 9.62001C61.3298 9.70001 61.0798 10.09 61.1598 10.48C61.2398 10.88 61.6298 11.13 62.0198 11.05C62.2898 11 62.5598 10.97 62.8298 10.97C65.0398 10.97 66.8298 12.76 66.8298 14.97C66.8298 15.5 66.7298 16.01 66.5298 16.49C66.3798 16.85 66.5298 17.26 66.8798 17.43C67.6498 17.82 68.1498 18.63 68.1498 19.51C68.1498 20.37 67.7098 21.13 66.9598 21.55C66.7598 21.66 66.6298 21.85 66.5998 22.08C66.5698 22.3 66.6398 22.53 66.7898 22.69C67.3898 23.33 67.7198 24.18 67.7198 25.06C67.7198 26.66 66.6398 28.05 65.0898 28.44C64.8698 28.49 64.6898 28.64 64.5998 28.85C64.5098 29.05 64.5098 29.29 64.6198 29.49C64.9198 30.08 65.0798 30.73 65.0798 31.42C65.0798 33.86 63.0898 35.85 60.6498 35.85C58.2098 35.85 56.2198 33.86 56.2198 31.42C56.2198 31.02 55.8898 30.69 55.4898 30.69C55.0898 30.69 54.7598 31.02 54.7598 31.42C54.7598 34.67 57.3998 37.31 60.6498 37.31C63.8998 37.31 66.5398 34.67 66.5398 31.42C66.5398 30.79 66.4398 30.17 66.2498 29.59C68.0098 28.81 69.1898 27.05 69.1898 25.07C69.1898 24.09 68.8998 23.15 68.3698 22.35C69.1398 21.6 69.6098 20.58 69.6098 19.5Z" fill="#59ACF3"/>
<path d="M65.3495 37.45C63.6495 37.45 62.2695 38.83 62.2695 40.53C62.2695 42.23 63.6495 43.61 65.3495 43.61C67.0495 43.61 68.4295 42.23 68.4295 40.53C68.4395 38.83 67.0495 37.45 65.3495 37.45ZM65.3495 42.15C64.4595 42.15 63.7295 41.42 63.7295 40.53C63.7295 39.64 64.4595 38.91 65.3495 38.91C66.2395 38.91 66.9695 39.64 66.9695 40.53C66.9695 41.42 66.2495 42.15 65.3495 42.15Z" fill="#59ACF3"/>
<path d="M8.98973 19.8199C9.06973 19.8499 9.15973 19.8699 9.24973 19.8699C9.54973 19.8699 9.81973 19.6899 9.92973 19.3999C10.0697 19.0199 9.87973 18.5999 9.49973 18.4599C8.55973 18.1099 7.92973 17.1899 7.92973 16.1899C7.92973 15.0699 8.71973 14.0799 9.81973 13.8399C10.0797 13.7799 10.2997 13.5799 10.3697 13.3199C10.4397 13.0599 10.3597 12.7799 10.1597 12.5899C9.80973 12.2599 9.61973 11.8299 9.61973 11.3599C9.61973 10.9699 9.74973 10.5999 10.0097 10.2999C10.2697 9.98991 10.2297 9.52991 9.91973 9.26991C9.60973 9.00991 9.14973 9.04991 8.88973 9.35991C8.41973 9.91991 8.16973 10.6299 8.16973 11.3599C8.16973 11.8499 8.28973 12.3399 8.50973 12.7799C7.27973 13.4399 6.46973 14.7399 6.46973 16.1799C6.46973 17.7899 7.47973 19.2599 8.98973 19.8199Z" fill="#59ACF3"/>
</svg>
