<svg width="24" height="24" viewBox="0 0 24 24" fill="none" xmlns="http://www.w3.org/2000/svg">
<path d="M22.1058 1.19995H1.79461C1.63696 1.19995 1.48577 1.26258 1.37429 1.37405C1.26282 1.48552 1.2002 1.63672 1.2002 1.79436V22.1055C1.2002 22.2632 1.26282 22.4144 1.37429 22.5259C1.48577 22.6373 1.63696 22.7 1.79461 22.7H22.1058C22.2634 22.7 22.4146 22.6373 22.5261 22.5259C22.6376 22.4144 22.7002 22.2632 22.7002 22.1055V1.79436C22.7002 1.63672 22.6376 1.48552 22.5261 1.37405C22.4146 1.26258 22.2634 1.19995 22.1058 1.19995ZM12.5446 21.5048V19.7152C12.5446 19.5576 12.482 19.4064 12.3705 19.2949C12.259 19.1835 12.1078 19.1208 11.9502 19.1208C11.7925 19.1208 11.6414 19.1835 11.5299 19.2949C11.4184 19.4064 11.3558 19.5576 11.3558 19.7152V21.5048H2.39534V16.1108H7.76402C7.9119 16.0956 8.04889 16.0261 8.14848 15.9157C8.24807 15.8053 8.3032 15.6619 8.3032 15.5133C8.3032 15.3646 8.24807 15.2212 8.14848 15.1108C8.04889 15.0004 7.9119 14.9309 7.76402 14.9157H2.38902V2.3951H7.71343L7.77034 8.37083C7.77938 8.52553 7.8449 8.67153 7.95448 8.78111C8.06406 8.89069 8.21005 8.95621 8.36475 8.96525C8.5258 8.95556 8.67706 8.88469 8.78756 8.76714C8.89807 8.64958 8.95946 8.49423 8.95917 8.33289L8.90225 2.3698H21.505V7.7448H11.9502C11.7925 7.7448 11.6414 7.80743 11.5299 7.9189C11.4184 8.03038 11.3558 8.18157 11.3558 8.33922V15.5354C11.3558 15.693 11.4184 15.8442 11.5299 15.9557C11.6414 16.0672 11.7925 16.1298 11.9502 16.1298C12.1078 16.1298 12.259 16.0672 12.3705 15.9557C12.482 15.8442 12.5446 15.693 12.5446 15.5354V8.96525H21.505V21.5048H12.5446Z" fill="#1C2B36"/>
</svg>
