<svg width="104" height="76" viewBox="0 0 104 76" fill="none" xmlns="http://www.w3.org/2000/svg">
<path fill-rule="evenodd" clip-rule="evenodd" d="M19.5071 30.3333H23.1592C25.7767 30.3333 27.9046 32.4641 27.9046 35.0806V53.3332H14.7618V35.0806C14.7618 32.46 16.8886 30.3333 19.5071 30.3333ZM12.5713 35.0806V53.7017C12.5713 54.7184 13.3961 55.5237 14.4061 55.5237H28.9998C29.6047 55.5237 30.095 55.0333 30.095 54.4285V35.0806C30.095 31.255 26.9871 28.1428 23.1592 28.1428H19.5071C15.6789 28.1428 12.5713 31.2502 12.5713 35.0806Z" fill="#59ACF3"/>
<path fill-rule="evenodd" clip-rule="evenodd" d="M75.9058 59.64C76.2219 60.4304 77.0736 60.9999 77.9298 60.9999H81.9289C82.9422 60.9999 83.7627 60.1829 83.7627 59.1662V54.4285H81.5722V58.8095H77.9298C77.9644 58.8095 76.0177 54.0218 76.0177 54.0218C75.7931 53.4602 75.1557 53.187 74.594 53.4116C74.0324 53.6363 73.7593 54.2737 73.9839 54.8353L75.9058 59.64Z" fill="#59ACF3"/>
<path fill-rule="evenodd" clip-rule="evenodd" d="M26.0604 58.8267C26.0787 58.7809 22.4278 58.8097 22.4278 58.8097V54.4288H20.2373V59.1664C20.2373 60.1832 21.0578 61.0002 22.0711 61.0002H26.0702C26.9264 61.0002 27.7781 60.4306 28.0942 59.6402L30.0161 54.8355C30.2407 54.2739 29.9676 53.6365 29.4059 53.4119C28.8443 53.1872 28.2069 53.4604 27.9823 54.022L26.0604 58.8267Z" fill="#59ACF3"/>
<path d="M22.4287 37.9996V35.8091C22.4287 35.2042 21.9384 34.7139 21.3335 34.7139C20.7286 34.7139 20.2382 35.2042 20.2382 35.8091V37.9996C20.2382 38.6045 20.7286 39.0948 21.3335 39.0948C21.9384 39.0948 22.4287 38.6045 22.4287 37.9996Z" fill="#59ACF3"/>
<path fill-rule="evenodd" clip-rule="evenodd" d="M80.8411 30.333H84.4932C87.1106 30.333 89.2386 32.4639 89.2386 35.0803V53.333C89.2386 53.333 76.0957 53.4965 76.0957 53.333V35.0803C76.0957 32.4597 78.2226 30.333 80.8411 30.333ZM73.9053 35.0803V53.7015C73.9053 54.7182 74.7301 55.5234 75.7401 55.5234H90.3338C90.9387 55.5234 91.429 55.0331 91.429 54.4282V35.0803C91.429 31.2548 88.3211 28.1426 84.4932 28.1426H80.8411C77.0129 28.1426 73.9053 31.2499 73.9053 35.0803Z" fill="#59ACF3"/>
<path fill-rule="evenodd" clip-rule="evenodd" d="M51.9972 17.9367C53.1737 16.1658 55.1876 15 57.4801 15H77.1847C80.8169 15 83.7609 17.9417 83.7609 21.5729V29.2381C83.7609 29.8429 83.2706 30.3333 82.6657 30.3333C82.0608 30.3333 81.5704 29.8429 81.5704 29.2381V21.5729C81.5704 19.1518 79.6075 17.1905 77.1847 17.1905H57.4801C55.0507 17.1905 53.0943 19.1475 53.0943 21.5704V43.4761C53.0943 44.081 52.604 44.5713 51.9991 44.5713C51.3942 44.5713 50.9039 44.081 50.9039 43.4761V21.5704C50.9039 19.1533 48.9395 17.1905 46.5181 17.1905H26.8136C24.3843 17.1905 22.4278 19.1489 22.4278 21.5738V29.2381C22.4278 29.8429 21.9374 30.3333 21.3325 30.3333C20.7277 30.3333 20.2373 29.8429 20.2373 29.2381V21.5738C20.2373 17.9396 23.1741 15 26.8136 15H46.5181C48.8043 15 50.8187 16.1669 51.9972 17.9367Z" fill="#59ACF3"/>
<path fill-rule="evenodd" clip-rule="evenodd" d="M75.0004 42.3809H29.0005C28.3956 42.3809 27.9053 42.8712 27.9053 43.4761C27.9053 44.081 28.3956 44.5713 29.0005 44.5713H75.0004C75.6052 44.5713 76.0956 44.081 76.0956 43.4761C76.0956 42.8712 75.6052 42.3809 75.0004 42.3809Z" fill="#59ACF3"/>
<path d="M38.858 27.0479H36.6675C36.0626 27.0479 35.5723 27.5382 35.5723 28.1431C35.5723 28.748 36.0626 29.2383 36.6675 29.2383H38.858C39.4629 29.2383 39.9532 28.748 39.9532 28.1431C39.9532 27.5382 39.4629 27.0479 38.858 27.0479Z" fill="#59ACF3"/>
<path d="M67.3336 27.0479H65.1431C64.5382 27.0479 64.0479 27.5382 64.0479 28.1431C64.0479 28.748 64.5382 29.2383 65.1431 29.2383H67.3336C67.9384 29.2383 68.4288 28.748 68.4288 28.1431C68.4288 27.5382 67.9384 27.0479 67.3336 27.0479Z" fill="#59ACF3"/>
<path d="M83.7627 37.9996V35.8091C83.7627 35.2042 83.2723 34.7139 82.6675 34.7139C82.0626 34.7139 81.5722 35.2042 81.5722 35.8091V37.9996C81.5722 38.6045 82.0626 39.0948 82.6675 39.0948C83.2723 39.0948 83.7627 38.6045 83.7627 37.9996Z" fill="#59ACF3"/>
<path fill-rule="evenodd" clip-rule="evenodd" d="M75.0004 53.334H29.0005C28.3956 53.334 27.9053 53.8243 27.9053 54.4292C27.9053 55.0341 28.3956 55.5245 29.0005 55.5245H75.0004C75.6052 55.5245 76.0956 55.0341 76.0956 54.4292C76.0956 53.8243 75.6052 53.334 75.0004 53.334Z" fill="#59ACF3"/>
<path d="M82.4617 12.6477L84.7828 13.935L86.0532 16.29C86.2098 16.5805 86.5137 16.7616 86.8433 16.7616C87.1729 16.7616 87.4767 16.5805 87.6333 16.29L88.9038 13.935L91.2249 12.6477C91.5112 12.4899 91.6877 12.1889 91.6877 11.8628C91.6877 11.5368 91.5112 11.2358 91.2249 11.078L88.9038 9.79066L87.6333 7.43565C87.3201 6.85478 86.3664 6.85478 86.0532 7.43565L84.7828 9.79066L82.4617 11.078C82.1765 11.2364 82 11.5368 82 11.8628C82 12.1889 82.1765 12.4893 82.4617 12.6477ZM85.8837 11.2329C86.0333 11.1499 86.156 11.0254 86.2379 10.8741L86.8433 9.7521L87.4487 10.8741C87.5305 11.0254 87.6532 11.1499 87.804 11.2329L88.9388 11.8628L87.804 12.4928C87.6532 12.5758 87.5305 12.7002 87.4487 12.8516L86.8433 13.9736L86.2379 12.8516C86.156 12.7002 86.0333 12.5758 85.8837 12.4928L84.7477 11.8628L85.8837 11.2329Z" fill="#59ACF3"/>
</svg>
