<svg width="24" height="24" viewBox="0 0 24 24" fill="none" xmlns="http://www.w3.org/2000/svg">
<path d="M5 20V21C5 21.5523 5.44772 22 6 22C6.55228 22 7 21.5523 7 21V20H8C8.55228 20 9 19.5523 9 19C9 18.4477 8.55228 18 8 18H7V17C7 16.4477 6.55228 16 6 16C5.44772 16 5 16.4477 5 17V18H4C3.44772 18 3 18.4477 3 19C3 19.5523 3.44772 20 4 20H5Z" fill="#1C2B36"/>
<path d="M13.9482 2.68359C13.812 2.27541 13.4303 2 13 2C12.6234 2 12.2835 2.2108 12.1133 2.53711L12.0518 2.68359L9.91602 9.08789L4.64844 11.0635C4.25831 11.2099 4 11.5833 4 12C4 12.4167 4.25831 12.7901 4.64844 12.9365L9.91602 14.9111L12.0518 21.3164C12.188 21.7246 12.5697 22 13 22C13.4303 22 13.812 21.7246 13.9482 21.3164L16.083 14.9111L21.3516 12.9365C21.7417 12.7901 22 12.4167 22 12C22 11.5833 21.7417 11.2099 21.3516 11.0635L16.083 9.08789L13.9482 2.68359Z" fill="#1C2B36"/>
<path d="M4 6V7C4 7.55228 4.44772 8 5 8C5.55228 8 6 7.55228 6 7V6H7C7.55228 6 8 5.55228 8 5C8 4.44772 7.55228 4 7 4H6V3C6 2.44772 5.55228 2 5 2C4.44772 2 4 2.44772 4 3V4H3C2.44772 4 2 4.44772 2 5C2 5.55228 2.44772 6 3 6H4Z" fill="#1C2B36"/>
</svg>
