<svg width="24" height="24" viewBox="0 0 24 24" fill="none" xmlns="http://www.w3.org/2000/svg">
<path d="M12 1.49414C17.8014 1.49435 22.5047 6.19856 22.5049 12C22.5047 17.8014 17.8014 22.5047 12 22.5049C6.19856 22.5047 1.49435 17.8014 1.49414 12C1.49435 6.19856 6.19856 1.49435 12 1.49414ZM12 2.70508C6.86682 2.70529 2.70529 6.86682 2.70508 12C2.70529 17.1332 6.86682 21.2947 12 21.2949C17.1332 21.2947 21.2947 17.1332 21.2949 12C21.2947 6.86682 17.1332 2.70529 12 2.70508ZM12 5.61914C12.334 5.61914 12.6053 5.89066 12.6055 6.22461V11.3945H17.7754L17.8965 11.4072C18.1722 11.4635 18.3797 11.7077 18.3799 12C18.3797 12.2923 18.1723 12.5366 17.8965 12.5928L17.7754 12.6045H12C11.666 12.6045 11.3947 12.334 11.3945 12V6.22461C11.3947 5.89066 11.666 5.61914 12 5.61914Z" fill="#1C2B36"/>
</svg>
