<svg width="24" height="24" viewBox="0 0 24 24" fill="none" xmlns="http://www.w3.org/2000/svg">
<rect width="24" height="24" rx="12" fill="#1C2B36"/>
<g clip-path="url(#clip0_79_3692)">
<path d="M6 17.5L6.84814 14.4202C6.32378 13.5162 6.04871 12.4924 6.05158 11.4458C6.05158 8.16635 8.73352 5.5 12.0258 5.5C13.6246 5.5 15.1261 6.11882 16.2521 7.2424C17.3811 8.36597 18.0029 9.86027 18 11.4487C18 14.7281 15.318 17.3945 12.0229 17.3945H12.0201C11.0201 17.3945 10.0372 17.1435 9.16332 16.6702L6 17.5ZM9.31518 15.5951L9.4957 15.7034C10.2579 16.154 11.1318 16.3907 12.0229 16.3935H12.0258C14.7622 16.3935 16.9914 14.1778 16.9914 11.4515C16.9914 10.1312 16.4756 8.89069 15.5387 7.95532C14.6017 7.01996 13.3524 6.50665 12.0258 6.50665C9.2894 6.5038 7.06017 8.71958 7.06017 11.4458C7.06017 12.3783 7.32092 13.288 7.81948 14.0751L7.93696 14.2633L7.43553 16.0856L9.31518 15.5951Z" fill="white"/>
<path d="M6.20898 17.2917L7.02847 14.3173C6.52131 13.4476 6.25483 12.458 6.25483 11.4485C6.25769 8.2831 8.84509 5.70801 12.0256 5.70801C13.57 5.70801 15.017 6.30687 16.1058 7.39052C17.1946 8.47417 17.7935 9.91713 17.7935 11.4514C17.7935 14.6168 15.2032 17.1919 12.0256 17.1919H12.0227C11.0571 17.1919 10.1087 16.9495 9.26629 16.4932L6.20898 17.2917Z" fill="#1C2B36"/>
<path d="M6 17.5L6.84814 14.4202C6.32378 13.5162 6.04871 12.4924 6.05158 11.4458C6.05158 8.16635 8.73352 5.5 12.0258 5.5C13.6246 5.5 15.1261 6.11882 16.2521 7.2424C17.3811 8.36597 18.0029 9.86027 18 11.4487C18 14.7281 15.318 17.3945 12.0229 17.3945H12.0201C11.0201 17.3945 10.0372 17.1435 9.16332 16.6702L6 17.5ZM9.31518 15.5951L9.4957 15.7034C10.2579 16.154 11.1318 16.3907 12.0229 16.3935H12.0258C14.7622 16.3935 16.9914 14.1778 16.9914 11.4515C16.9914 10.1312 16.4756 8.89069 15.5387 7.95532C14.6017 7.01996 13.3524 6.50665 12.0258 6.50665C9.2894 6.5038 7.06017 8.71958 7.06017 11.4458C7.06017 12.3783 7.32092 13.288 7.81948 14.0751L7.93696 14.2633L7.43553 16.0856L9.31518 15.5951Z" fill="white"/>
<path fill-rule="evenodd" clip-rule="evenodd" d="M10.5328 8.95921C10.421 8.71111 10.3035 8.70541 10.1975 8.70256C10.1116 8.69971 10.0113 8.69971 9.91098 8.69971C9.81069 8.69971 9.65024 8.73678 9.5127 8.88507C9.37516 9.03336 8.99121 9.39267 8.99121 10.1256C8.99121 10.8556 9.52703 11.5628 9.60153 11.6626C9.67602 11.7624 10.6359 13.3109 12.1517 13.9069C13.4124 14.4031 13.6703 14.3033 13.9425 14.2777C14.2147 14.252 14.825 13.9183 14.9511 13.5704C15.0743 13.2225 15.0743 12.9259 15.0371 12.8632C14.9998 12.8005 14.8995 12.7634 14.7505 12.6893C14.6015 12.6151 13.868 12.2558 13.7305 12.2045C13.5929 12.156 13.4926 12.1303 13.3952 12.2786C13.2949 12.4269 13.0084 12.7605 12.9224 12.8604C12.8365 12.9602 12.7477 12.9716 12.5987 12.8974C12.4497 12.8233 11.9683 12.6664 11.3981 12.1588C10.954 11.7653 10.6531 11.2777 10.5671 11.1294C10.4812 10.9811 10.5585 10.9012 10.633 10.8271C10.6989 10.7615 10.782 10.6531 10.8565 10.5676C10.931 10.482 10.9568 10.4193 11.0055 10.3195C11.0542 10.2197 11.0313 10.1341 10.9941 10.06C10.9568 9.98868 10.6646 9.25294 10.5328 8.95921Z" fill="white"/>
</g>
<defs>
<clipPath id="clip0_79_3692">
<rect width="12" height="12" fill="white" transform="translate(6 5.5)"/>
</clipPath>
</defs>
</svg>
