<svg width="24" height="24" viewBox="0 0 24 24" fill="none" xmlns="http://www.w3.org/2000/svg">
<rect width="24" height="24" rx="12" fill="#1C2B36"/>
<path d="M17.7528 9.11471C17.6144 8.6007 17.2092 8.19543 16.6952 8.05705C15.7561 7.80005 12 7.80005 12 7.80005C12 7.80005 8.24381 7.80005 7.30477 8.04716C6.80066 8.18555 6.3855 8.6007 6.24712 9.11471C6 10.0537 6 12.001 6 12.001C6 12.001 6 13.9582 6.24712 14.8873C6.3855 15.4013 6.79077 15.8066 7.30477 15.945C8.2537 16.202 12 16.202 12 16.202C12 16.202 15.7561 16.202 16.6952 15.9549C17.2092 15.8165 17.6144 15.4112 17.7528 14.8972C17.9999 13.9582 17.9999 12.0109 17.9999 12.0109C17.9999 12.0109 18.0098 10.0537 17.7528 9.11471Z" fill="white"/>
<path d="M10.8037 13.8002L13.9273 12.0012L10.8037 10.2021V13.8002Z" fill="#1C2B36"/>
</svg>
