<svg width="76" height="76" viewBox="0 0 76 76" fill="none" xmlns="http://www.w3.org/2000/svg">
<path d="M32.5152 51.4801C32.1152 49.7601 30.5952 48.5601 28.8252 48.5601H25.0852L27.0152 40.3201C27.4152 38.6101 27.0152 36.8401 25.9252 35.4701C24.8352 34.1001 23.2052 33.3101 21.4452 33.3101C19.6952 33.3101 18.0552 34.1001 16.9652 35.4701C15.8752 36.8401 15.4752 38.6101 15.8752 40.3201L17.8052 48.5601H14.0752C12.3052 48.5601 10.7952 49.7601 10.3852 51.4801L6.50524 68.0901C6.45524 68.3101 6.50524 68.5401 6.64524 68.7101C6.78524 68.8901 6.99524 68.9901 7.21524 68.9901H35.6752C35.8952 68.9901 36.1052 68.8901 36.2452 68.7101C36.3852 68.5401 36.4352 68.3101 36.3852 68.0901L32.5152 51.4801ZM17.3152 39.9901C17.0152 38.7201 17.3152 37.4001 18.1252 36.3801C18.9352 35.3601 20.1452 34.7701 21.4552 34.7701C22.7652 34.7701 23.9752 35.3601 24.7852 36.3801C25.5952 37.4001 25.8952 38.7201 25.5952 39.9901L23.5952 48.5601H19.3152L17.3152 39.9901ZM11.8152 51.8101C12.0652 50.7601 12.9952 50.0201 14.0752 50.0201H28.8352C29.9152 50.0201 30.8452 50.7601 31.0952 51.8101L33.4352 61.8201L30.0752 54.7801C29.6152 53.8201 28.6352 53.1901 27.5652 53.1901H15.3452C14.2752 53.1901 13.2952 53.8101 12.8352 54.7801L9.47524 61.8201L11.8152 51.8101ZM34.5252 67.5201H8.37524L14.1452 55.4001C14.3652 54.9401 14.8352 54.6501 15.3352 54.6501H27.5552C28.0652 54.6501 28.5252 54.9401 28.7452 55.4001L34.5252 67.5201Z" fill="#59ACF3"/>
<path d="M21.4541 36.6101C20.0541 36.6101 18.9141 37.7501 18.9141 39.1601C18.9141 40.5601 20.0541 41.7001 21.4541 41.7001C22.8541 41.7001 23.9941 40.5601 23.9941 39.1601C23.9941 37.7501 22.8541 36.6101 21.4541 36.6101ZM21.4541 40.2301C20.8641 40.2301 20.3741 39.7501 20.3741 39.1501C20.3741 38.5501 20.8541 38.0601 21.4541 38.0601C22.0541 38.0601 22.5341 38.5501 22.5341 39.1501C22.5241 39.7501 22.0441 40.2301 21.4541 40.2301Z" fill="#59ACF3"/>
<path d="M38.9352 13.3C40.6752 13.3 42.0852 11.89 42.0852 10.15C42.0852 8.41 40.6752 7 38.9352 7C37.1952 7 35.7852 8.41 35.7852 10.15C35.7752 11.89 37.1952 13.3 38.9352 13.3ZM38.9352 8.46C39.8652 8.46 40.6252 9.22 40.6252 10.15C40.6252 11.08 39.8652 11.84 38.9352 11.84C38.0052 11.84 37.2452 11.08 37.2452 10.15C37.2452 9.22 37.9952 8.46 38.9352 8.46Z" fill="#59ACF3"/>
<path d="M48.8945 45.8999H32.3945C31.9945 45.8999 31.6645 46.2299 31.6645 46.6299C31.6645 47.0299 31.9945 47.3599 32.3945 47.3599H48.8945C49.8345 47.3599 50.5945 46.5999 50.5945 45.6599V35.1099C50.5945 34.1699 49.8345 33.4099 48.8945 33.4099H30.3745C29.9745 33.4099 29.6445 33.7399 29.6445 34.1399C29.6445 34.5399 29.9745 34.8699 30.3745 34.8699H48.8945C49.0245 34.8699 49.1345 34.9799 49.1345 35.1099V45.6599C49.1345 45.7899 49.0245 45.8999 48.8945 45.8999Z" fill="#59ACF3"/>
<path d="M70.4444 26.8101C70.0744 26.3101 69.5044 26.0301 68.8944 26.0301H67.2744V24.0601C67.2744 22.8401 66.2744 21.8401 65.0544 21.8401H60.5744C60.7044 21.3801 60.7744 20.9101 60.7744 20.4301C60.7744 17.4601 58.3544 15.0401 55.3844 15.0401C54.8844 15.0401 54.3944 15.1101 53.9144 15.2401C53.3644 13.2701 51.5544 11.8401 49.4344 11.8401C47.1944 11.8401 45.3144 13.4301 44.8744 15.5401C44.1944 15.2101 43.4444 15.0301 42.6544 15.0301C39.8644 15.0301 37.5844 17.3001 37.5844 20.1001C37.5844 20.7001 37.7044 21.2801 37.9144 21.8301H24.9244C25.3844 20.7101 26.4644 19.9401 27.7144 19.9401C28.4744 19.9401 29.1844 20.2101 29.7244 20.7001C29.9544 20.9101 30.2944 20.9501 30.5744 20.8001C30.8444 20.6501 30.9944 20.3401 30.9444 20.0301C30.9344 19.9701 30.9344 19.9101 30.9344 19.8401C30.9344 18.3601 32.1444 17.1501 33.6244 17.1501C34.2144 17.1501 34.7744 17.3401 35.2444 17.6901C35.5644 17.9301 36.0244 17.8701 36.2644 17.5501C36.5044 17.2301 36.4444 16.7701 36.1244 16.5301C35.4044 15.9801 34.5344 15.6901 33.6244 15.6901C31.6644 15.6901 30.0244 17.0501 29.5844 18.8801C29.0044 18.6201 28.3744 18.4801 27.7244 18.4801C25.6644 18.4801 23.9144 19.8901 23.3944 21.8401H11.7744C10.5544 21.8401 9.5544 22.8401 9.5544 24.0601V26.0301H7.9444C7.3244 26.0301 6.7644 26.3101 6.3944 26.8101C6.0144 27.3101 5.9044 27.9501 6.0844 28.5601C7.2544 32.4001 9.0744 35.9801 11.5144 39.1901C11.7544 39.5101 12.2144 39.5701 12.5444 39.3301C12.8644 39.0901 12.9244 38.6301 12.6844 38.3001C10.3544 35.2301 8.6044 31.8101 7.4844 28.1401C7.4344 27.9801 7.4644 27.8101 7.5644 27.6801C7.6144 27.6101 7.7344 27.4901 7.9444 27.4901H9.5644V28.3901C9.5644 29.6101 10.5544 30.6101 11.7844 30.6101H13.4144L13.9844 33.4601C14.0644 33.8601 14.4544 34.1101 14.8444 34.0401C15.2444 33.9601 15.4944 33.5801 15.4244 33.1801L14.9144 30.6101H61.9444L59.7344 43.1101C53.9944 48.1401 46.5144 51.0901 38.4144 51.0901C37.9644 51.0901 37.5244 51.0801 37.0744 51.0601C36.6544 51.0201 36.3244 51.3601 36.3144 51.7601C36.2944 52.1601 36.6144 52.5101 37.0144 52.5201C37.4744 52.5401 37.9444 52.5501 38.4144 52.5501C46.2544 52.5501 53.5344 49.9101 59.3344 45.3401L55.7644 65.5501C55.5644 66.6901 54.5844 67.5101 53.4244 67.5101H39.2844C38.8844 67.5101 38.5544 67.8401 38.5544 68.2401C38.5544 68.6401 38.8844 68.9701 39.2844 68.9701H53.4444C55.3044 68.9701 56.8944 67.6401 57.2244 65.8001L61.0944 43.8501C65.5244 39.8401 68.9144 34.6201 70.7644 28.5401C70.9344 27.9501 70.8144 27.3201 70.4444 26.8101ZM39.0444 20.1101C39.0444 18.1201 40.6644 16.5101 42.6444 16.5101C43.5444 16.5101 44.3844 16.8301 45.0244 17.4101C45.2544 17.6201 45.5944 17.6601 45.8744 17.5101C46.1444 17.3601 46.2944 17.0501 46.2344 16.7401C46.2244 16.6601 46.2244 16.5901 46.2244 16.5101C46.2244 14.7501 47.6544 13.3101 49.4244 13.3101C51.1044 13.3101 52.5044 14.6201 52.6044 16.2901C52.6244 16.5401 52.7544 16.7601 52.9644 16.8801C53.1744 17.0001 53.4344 17.0101 53.6544 16.9001C54.1744 16.6401 54.7644 16.5001 55.3644 16.5001C57.5344 16.5001 59.2944 18.2601 59.2944 20.4301C59.2944 20.9101 59.2044 21.3901 59.0244 21.8401H39.5044C39.2044 21.3101 39.0444 20.7201 39.0444 20.1101ZM11.7744 23.3101H65.0544C65.4744 23.3101 65.8144 23.6501 65.8144 24.0701V28.4001C65.8144 28.8101 65.4744 29.1501 65.0644 29.1501H11.7744C11.3644 29.1501 11.0244 28.8101 11.0244 28.4001V24.0701C11.0244 23.6401 11.3544 23.3101 11.7744 23.3101ZM69.3444 28.1401C67.7844 33.2901 65.0644 37.8001 61.5144 41.4301L63.4244 30.6101H65.0544C66.2744 30.6101 67.2744 29.6101 67.2744 28.3901V27.4901H68.8944C69.1044 27.4901 69.2244 27.6101 69.2744 27.6801C69.3644 27.8201 69.3944 27.9801 69.3444 28.1401Z" fill="#59ACF3"/>
</svg>
