<svg width="24" height="24" viewBox="0 0 24 24" fill="none" xmlns="http://www.w3.org/2000/svg">
<path d="M17.8333 4.5H6.16667C5.062 4.50132 4.00296 4.94073 3.22185 5.72185C2.44073 6.50296 2.00132 7.562 2 8.66666H22C21.9987 7.562 21.5593 6.50296 20.7781 5.72185C19.997 4.94073 18.938 4.50132 17.8333 4.5ZM2 15.3333C2.00132 16.438 2.44073 17.497 3.22185 18.2781C4.00296 19.0593 5.062 19.4987 6.16667 19.5H17.8333C18.938 19.4987 19.997 19.0593 20.7781 18.2781C21.5593 17.497 21.9987 16.438 22 15.3333V10.3333H2V15.3333ZM7.83333 14.9167C7.83333 15.1639 7.76002 15.4056 7.62267 15.6111C7.48532 15.8167 7.29009 15.9769 7.06169 16.0715C6.83328 16.1661 6.58194 16.1909 6.33947 16.1426C6.09699 16.0944 5.87426 15.9754 5.69945 15.8005C5.52463 15.6257 5.40558 15.403 5.35735 15.1605C5.30912 14.918 5.33387 14.6667 5.42848 14.4383C5.52309 14.2099 5.68331 14.0147 5.88887 13.8773C6.09443 13.74 6.3361 13.6667 6.58333 13.6667C6.91485 13.6667 7.23279 13.7984 7.46722 14.0328C7.70164 14.2672 7.83333 14.5851 7.83333 14.9167Z" fill="#1C2B36"/>
</svg>
