<svg width="104" height="76" viewBox="0 0 104 76" fill="none" xmlns="http://www.w3.org/2000/svg">
<g clip-path="url(#clip0_133_8926)">
<path d="M81.9801 21.5145H37.7705C37.2251 16.7307 33.1559 13 28.2304 13C22.9313 13 18.6191 17.3092 18.6191 22.6057V51.8642C18.6191 58.497 24.0138 63.894 30.6469 63.894H81.9801C84.3364 63.894 86.2565 61.9767 86.2565 59.623V25.7879C86.2565 23.4315 84.3392 21.5145 81.9801 21.5145ZM29.3622 44.5303C32.9187 45.0785 35.6568 48.1522 35.6568 51.8614C35.6568 53.5959 34.2441 55.0087 32.5095 55.0087C30.7749 55.0087 29.3622 53.5959 29.3622 51.8614V44.5303ZM20.801 22.6057C20.801 18.512 24.1337 15.1818 28.2304 15.1818C32.3242 15.1818 35.6543 18.5119 35.6543 22.6057V45.7717C33.8925 43.6253 31.217 42.2535 28.2304 42.2535C25.2414 42.2535 22.5658 43.6253 20.801 45.7717V22.6057ZM84.0746 59.6211C84.0746 60.7747 83.1364 61.7102 81.9801 61.7102H30.6469C25.2196 61.7102 20.801 57.292 20.801 51.8643C20.801 48.1251 23.5801 45.0323 27.1802 44.5193V51.8643C27.1802 54.8016 29.5693 57.1935 32.5093 57.1935C35.4493 57.1935 37.8385 54.8043 37.8385 51.8643L37.8358 23.6964H81.9803C83.134 23.6964 84.0749 24.6347 84.0749 25.791L84.0746 59.6211Z" fill="#59ACF3"/>
<path d="M85.4617 18.6477L87.7828 19.935L89.0532 22.29C89.2098 22.5805 89.5137 22.7616 89.8433 22.7616C90.1729 22.7616 90.4767 22.5805 90.6333 22.29L91.9038 19.935L94.2249 18.6477C94.5112 18.4899 94.6877 18.1889 94.6877 17.8628C94.6877 17.5368 94.5112 17.2358 94.2249 17.078L91.9038 15.7907L90.6333 13.4356C90.3201 12.8548 89.3664 12.8548 89.0532 13.4356L87.7828 15.7907L85.4617 17.078C85.1765 17.2364 85 17.5368 85 17.8628C85 18.1889 85.1765 18.4893 85.4617 18.6477ZM88.8837 17.2329C89.0333 17.1499 89.156 17.0254 89.2379 16.8741L89.8433 15.7521L90.4487 16.8741C90.5305 17.0254 90.6532 17.1499 90.804 17.2329L91.9388 17.8628L90.804 18.4928C90.6532 18.5758 90.5305 18.7002 90.4487 18.8516L89.8433 19.9736L89.2379 18.8516C89.156 18.7002 89.0333 18.5758 88.8837 18.4928L87.7477 17.8628L88.8837 17.2329Z" fill="#59ACF3"/>
<path d="M69.5093 34.2306L72.07 35.6509L73.4716 38.249C73.6444 38.5694 73.9796 38.7693 74.3432 38.7693C74.7068 38.7693 75.0421 38.5694 75.2148 38.249L76.6164 35.6509L79.1771 34.2306C79.493 34.0566 79.6877 33.7245 79.6877 33.3648C79.6877 33.0051 79.493 32.673 79.1771 32.499L76.6164 31.0787L75.2148 28.4806C74.8693 27.8398 73.8171 27.8398 73.4716 28.4806L72.07 31.0787L69.5093 32.499C69.1947 32.6737 69 33.0051 69 33.3648C69 33.7245 69.1947 34.0559 69.5093 34.2306ZM73.2846 32.6698C73.4497 32.5783 73.585 32.441 73.6753 32.274L74.3432 31.0362L75.0111 32.274C75.1014 32.441 75.2367 32.5783 75.4031 32.6698L76.6551 33.3648L75.4031 34.0598C75.2367 34.1513 75.1014 34.2886 75.0111 34.4556L74.3432 35.6934L73.6753 34.4556C73.585 34.2886 73.4497 34.1513 73.2846 34.0598L72.0313 33.3648L73.2846 32.6698Z" fill="#59ACF3"/>
</g>
<defs>
<clipPath id="clip0_133_8926">
<rect width="104" height="76" fill="white"/>
</clipPath>
</defs>
</svg>
