<svg width="76" height="76" viewBox="0 0 76 76" fill="none" xmlns="http://www.w3.org/2000/svg">
<path d="M28.5303 6C31.7001 6.00015 34.2695 8.58033 34.2695 11.7402V13.5996H38.2305C39.0902 13.5999 39.7998 14.3001 39.7998 15.1699V16.6699H46.9199C48.6498 16.6699 50.0593 18.0798 50.0596 19.8096V30.4502C50.0595 30.8501 49.73 31.1796 49.3301 31.1797C48.9301 31.1797 48.5997 30.8501 48.5996 30.4502V19.8096C48.5994 18.8798 47.8498 18.1299 46.9199 18.1299H39.7998V19.3896C39.7998 20.2495 39.1003 20.9597 38.2305 20.96H18.8301C17.9701 20.96 17.2598 20.2596 17.2598 19.3896V18.1299H10.1396C9.20995 18.1301 8.46019 18.8799 8.45996 19.8096V66.75C8.45996 67.6799 9.20981 68.4295 10.1396 68.4297H46.9199C47.8499 68.4297 48.5996 67.68 48.5996 66.75V64.6396C48.5998 64.2398 48.9302 63.9102 49.3301 63.9102C49.7399 63.9102 50.0601 64.2398 50.0703 64.6396V66.75C50.0703 68.48 48.6597 69.8896 46.9297 69.8896H10.1396C8.40981 69.8895 7 68.4799 7 66.75V19.7998C7.00011 18.07 8.40987 16.6603 10.1396 16.6602H17.2598V15.1602C17.2598 14.3002 17.9601 13.5898 18.8301 13.5898H22.79V11.7402C22.79 8.57023 25.3603 6 28.5303 6ZM38.0703 37.5801C43.7003 31.9503 52.8796 31.9501 58.5195 37.5898C63.1394 42.2097 63.9697 49.2095 61 54.6895C64.1498 56.3294 67.3793 58.6499 68.4395 59.71C70.7094 61.98 70.7094 65.6694 68.4395 67.9395C67.2995 69.0795 65.7996 69.6494 64.3096 69.6494C62.8198 69.6493 61.3301 69.0799 60.2002 67.9502C59.1402 66.8902 56.8099 63.6598 55.1699 60.5098C53.0301 61.6697 50.6501 62.2597 48.2803 62.2598C44.5804 62.2598 40.8903 60.8598 38.0703 58.04C32.4303 52.4 32.4303 43.2201 38.0703 37.5801ZM60.25 55.9395C59.75 56.6794 59.1803 57.3803 58.5303 58.0303C57.8703 58.6803 57.1697 59.25 56.4297 59.75C57.9997 62.8 60.2402 65.9199 61.2402 66.9199C62.9403 68.6197 65.7102 68.6101 67.4102 66.9102C69.1101 65.2102 69.1098 62.44 67.4199 60.75C66.4099 59.75 63.29 57.5095 60.25 55.9395ZM29.8604 56.2002C30.7802 56.2003 31.5302 56.96 31.5303 57.8799V63.1504C31.53 64.0801 30.7801 64.8299 29.8604 64.8301H14C13.0802 64.83 12.3303 64.0702 12.3301 63.1504V57.8799C12.3301 56.9499 13.0801 56.2002 14 56.2002H29.8604ZM14 57.6699C13.8901 57.67 13.7901 57.7599 13.79 57.8799V63.1504C13.7903 63.2602 13.8802 63.3603 14 63.3604H29.8604C29.9701 63.3602 30.0701 63.2701 30.0703 63.1504V57.8799C30.0703 57.77 29.9802 57.6701 29.8604 57.6699H14ZM48.2998 34.7998C44.9698 34.7998 41.6394 36.0696 39.1094 38.5996C36.6495 41.0596 35.2998 44.3199 35.2998 47.7998C35.2998 51.2797 36.6495 54.54 39.1094 57C44.1694 62.06 52.4202 62.0597 57.4902 56.9697C62.56 51.9097 62.5599 43.6595 57.5 38.5996C54.96 36.0697 51.6298 34.7998 48.2998 34.7998ZM41.3193 40.8301C45.1593 36.9801 51.4195 36.9801 55.2695 40.8301C59.1191 44.67 59.1191 50.9296 55.2695 54.7695C53.3495 56.6995 50.8191 57.6602 48.2891 57.6602C45.7592 57.6601 43.2393 56.7001 41.3193 54.7803C37.4693 50.9403 37.4693 44.6801 41.3193 40.8301ZM48.2988 39.4199C46.1489 39.42 43.9993 40.2302 42.3594 41.8701C39.0794 45.1401 39.0794 50.47 42.3594 53.75C45.6394 57.0198 50.9693 57.0201 54.2393 53.7402C57.5092 50.4603 57.5092 45.1399 54.2393 41.8799C52.6093 40.2399 50.4488 39.4199 48.2988 39.4199ZM52.6299 42.9902C53.2199 43.0302 53.7606 43.3002 54.1406 43.7402C54.9402 44.6502 54.84 46.0399 53.9102 46.8398L48.2197 52.0703C47.9099 52.3301 47.5602 52.5101 47.1904 52.5801C47.0505 52.6101 46.9104 52.6201 46.7705 52.6201C46.7206 52.6201 46.6603 52.6104 46.6104 52.6104C46.0304 52.5604 45.4806 52.2798 45.1006 51.8398L43.5205 49.9502C43.1405 49.5002 42.9598 48.9296 43.0098 48.3496C43.0598 47.7698 43.3304 47.2403 43.7803 46.8604C44.2302 46.4804 44.8 46.2997 45.3799 46.3496C45.9699 46.3996 46.4999 46.6701 46.8799 47.1201L47.0098 47.2803L51.0205 43.54C51.4804 43.1402 52.04 42.9403 52.6299 42.9902ZM52.5303 44.4404C52.3403 44.4304 52.15 44.4901 52 44.6201L47.4297 48.8799C47.2797 49.0198 47.0798 49.0901 46.8799 49.0801C46.68 49.06 46.4903 48.9695 46.3604 48.8096L45.75 48.0596C45.63 47.9197 45.4596 47.8296 45.2598 47.8096H45.2002C45.0304 47.8096 44.8604 47.8697 44.7305 47.9795C44.5806 48.1094 44.4898 48.2896 44.4697 48.4795C44.4497 48.6695 44.5106 48.8598 44.6406 49.0098L46.2197 50.9004C46.3397 51.0403 46.5199 51.1303 46.7197 51.1504C46.7897 51.1604 46.85 51.1496 46.9199 51.1396C47.0499 51.1097 47.1598 51.0497 47.2598 50.9697L52.9502 45.7402C53.2701 45.4703 53.3 45.0004 53.0303 44.6904C52.9003 44.5405 52.7302 44.4505 52.5303 44.4404ZM19.3203 36.9297C20.4403 36.9297 21.3506 37.8302 21.3506 38.9502V43.9102C21.3505 45.0201 20.4402 45.9297 19.3203 45.9297H14.3604C13.2404 45.9297 12.3302 45.0301 12.3301 43.9102H12.3203V38.9502C12.3203 37.8402 13.2306 36.9297 14.3506 36.9297H19.3203ZM14.3506 38.3896C14.0406 38.3896 13.79 38.6402 13.79 38.9502V43.9102C13.7902 44.2201 14.0407 44.4697 14.3506 44.4697H19.3105C19.6204 44.4696 19.87 44.22 19.8701 43.9102V38.9502C19.8701 38.6403 19.6204 38.3898 19.3105 38.3896H14.3506ZM29.9297 42.5098C30.3297 42.5098 30.6592 42.8402 30.6592 43.2402C30.6591 43.6401 30.3296 43.9697 29.9297 43.9697H26.3701C25.9702 43.9697 25.6398 43.6401 25.6396 43.2402C25.6396 42.8402 25.9701 42.5098 26.3701 42.5098H29.9297ZM17.5293 40.1699C17.8293 39.9099 18.2996 39.94 18.5596 40.25C18.8195 40.56 18.7895 41.0203 18.4795 41.2803L16.8496 42.6699C16.7197 42.7898 16.5498 42.8495 16.3799 42.8496C16.1699 42.8496 15.9593 42.7696 15.8193 42.5996L15.1396 41.7998C14.8797 41.4898 14.9097 41.0295 15.2197 40.7695C15.5297 40.5098 15.9901 40.5397 16.25 40.8496L16.46 41.0898L17.5293 40.1699ZM31.3994 38.8896C31.7994 38.8896 32.1299 39.2201 32.1299 39.6201C32.1298 40.03 31.8093 40.3496 31.3994 40.3496H26.3701C25.9702 40.3496 25.6398 40.02 25.6396 39.6201C25.6396 39.2201 25.9701 38.8896 26.3701 38.8896H31.3994ZM19.3105 24.7305C20.4304 24.7306 21.3398 25.6301 21.3398 26.75V31.7197C21.3398 32.8296 20.4304 33.7401 19.3105 33.7402H14.3506C13.2406 33.7402 12.3303 32.83 12.3203 31.71V26.75C12.3203 25.64 13.2306 24.7305 14.3506 24.7305H19.3105ZM14.3506 26.1904C14.0406 26.1904 13.79 26.44 13.79 26.75V31.71C13.79 32.02 14.0406 32.2695 14.3506 32.2695H19.3105C19.6204 32.2694 19.8701 32.0199 19.8701 31.71V26.75C19.8701 26.4401 19.6204 26.1906 19.3105 26.1904H14.3506ZM38.8506 30.3105C39.2505 30.3107 39.5801 30.6401 39.5801 31.04C39.5801 31.45 39.2505 31.7704 38.8506 31.7705H26.3809C25.9809 31.7705 25.6504 31.44 25.6504 31.04C25.6504 30.64 25.9809 30.3105 26.3809 30.3105H38.8506ZM17.5195 28C17.8195 27.74 18.2898 27.7701 18.5498 28.0801C18.8098 28.3901 18.7797 28.8504 18.4697 29.1104L16.8398 30.5C16.7099 30.6099 16.54 30.6699 16.3701 30.6699C16.1702 30.6699 15.9603 30.5898 15.8203 30.4199L15.1299 29.6299C14.8699 29.3299 14.9 28.8596 15.21 28.5996C15.51 28.3398 15.9803 28.3698 16.2402 28.6797L16.4502 28.9199L17.5195 28ZM44 26.6904C44.4 26.6904 44.7305 27.0199 44.7305 27.4199C44.7305 27.8299 44.4 28.1604 44 28.1504H26.3809C25.9809 28.1504 25.6504 27.8199 25.6504 27.4199C25.6504 27.0199 25.9809 26.6904 26.3809 26.6904H44ZM18.8301 15.0596C18.7701 15.0596 18.7198 15.11 18.7197 15.1699H18.71V19.3896C18.71 19.4496 18.7603 19.5 18.8203 19.5H38.2197C38.2797 19.5 38.3301 19.4496 38.3301 19.3896V15.1699C38.33 15.11 38.2797 15.0596 38.2197 15.0596H18.8301ZM28.5303 7.46973C26.1803 7.46973 24.2598 9.38023 24.2598 11.7402H24.25V13.5898H32.7998V11.7402C32.7998 9.39033 30.8801 7.46988 28.5303 7.46973Z" fill="#59ACF3"/>
</svg>
