<svg width="104" height="76" viewBox="0 0 104 76" fill="none" xmlns="http://www.w3.org/2000/svg">
<path fill-rule="evenodd" clip-rule="evenodd" d="M51.21 71.0035H46.847C46.4337 71.0035 46.0663 70.6361 46.0663 70.2228C46.0663 69.8094 46.4337 69.442 46.847 69.442H51.21C54.8841 69.442 57.8694 66.4568 57.8694 62.7368V30.3191C57.8694 28.2983 56.216 26.599 54.1953 26.599H39.8233C27.8858 26.599 20.9961 36.8372 19.5265 47.033L17.3679 62.1857C17.1383 63.7931 17.6435 65.4465 18.8376 66.7783C20.2613 68.4317 22.5117 69.442 24.7621 69.442H28.3444C28.7577 69.442 29.0792 69.8094 29.0792 70.2228C29.0792 70.6361 28.7577 71.0035 28.3444 71.0035H24.7162C22.0525 71.0035 19.3887 69.8095 17.6435 67.7886C16.1739 66.0893 15.5768 64.0227 15.8524 61.956L18.0109 46.8033C18.8835 40.8329 21.4094 35.4169 25.0376 31.5127C29.0332 27.2875 34.1737 25.0371 39.8227 25.0371H54.1946C57.088 25.0371 59.4303 27.4253 59.4303 30.3187V62.7363C59.4303 67.2831 55.7561 71.0001 51.2128 71.0001L51.21 71.0035Z" fill="#59ACF3"/>
<path d="M54.1939 24.8369C57.1999 24.8369 59.6293 27.317 59.6295 30.3184V62.7363C59.6295 67.3595 55.9202 71.1444 51.3102 71.1973L51.3062 71.2031H46.8463C46.3226 71.2029 45.8658 70.7463 45.8658 70.2227C45.8659 69.699 46.3227 69.2424 46.8463 69.2422H51.2096C54.7723 69.2422 57.6685 66.3468 57.6685 62.7363V30.3193C57.6685 28.4058 56.102 26.7989 54.1949 26.7988H39.8228C28.212 26.7989 21.4016 36.6011 19.7965 46.5859L19.7242 47.0615L17.566 62.2139C17.3452 63.7593 17.8291 65.3541 18.9859 66.6445L18.9889 66.6475C20.3731 68.2549 22.567 69.2421 24.7613 69.2422H28.3443C28.8833 69.2424 29.2788 69.7151 29.2789 70.2227C29.2789 70.7303 28.8833 71.2029 28.3443 71.2031H24.7154C21.9949 71.203 19.2756 69.9846 17.4918 67.9189C15.9856 66.1772 15.3708 64.0539 15.6539 61.9297V61.9277L17.8121 46.7754L17.8131 46.7744C18.6909 40.7682 21.2319 35.3137 24.8902 31.377L24.8922 31.375C28.9242 27.1114 34.1165 24.837 39.8219 24.8369H54.1939ZM39.8219 25.0371C34.1732 25.0372 29.0332 27.2877 25.0377 31.5127C21.4095 35.4169 18.883 40.8333 18.0103 46.8037L15.8521 61.9561C15.5766 64.0227 16.1735 66.0898 17.6432 67.7891C19.3882 69.8096 22.0519 71.0038 24.7154 71.0039H28.3443C28.7575 71.0037 29.0787 70.6359 29.0787 70.2227C29.0786 69.8095 28.7574 69.4426 28.3443 69.4424H24.7613C22.5111 69.4423 20.2611 68.4315 18.8375 66.7783C17.6434 65.4465 17.1381 63.793 17.3678 62.1855L19.526 47.0332C20.9956 36.8374 27.8854 26.5987 39.8228 26.5986H54.1949C56.2156 26.5987 57.8687 28.2986 57.8687 30.3193V62.7363C57.8687 66.4564 54.8837 69.4424 51.2096 69.4424H46.8463C46.4331 69.4426 46.0661 69.8095 46.066 70.2227C46.066 70.6359 46.4331 71.0037 46.8463 71.0039H51.2096L51.2125 71C55.7558 70.9999 59.4303 67.283 59.4303 62.7363V30.3184C59.4301 27.4251 57.0872 25.0371 54.1939 25.0371H39.8219Z" fill="#59ACF3"/>
<path fill-rule="evenodd" clip-rule="evenodd" d="M26.3673 56.2187H17.5063C17.093 56.2187 16.7715 55.8972 16.7715 55.438C16.7715 55.0247 17.093 54.7032 17.5063 54.7032H26.3673C26.8266 54.7032 27.148 55.0247 27.148 55.438C27.148 55.8973 26.7806 56.2187 26.3673 56.2187ZM43.7248 51.1209C43.3115 51.1209 42.9441 50.7994 42.9441 50.3402V25.8217C42.9441 25.4084 43.3115 25.0869 43.7248 25.0869C44.1382 25.0869 44.5056 25.4084 44.5056 25.8217V50.3402C44.5056 50.7535 44.1382 51.1209 43.7248 51.1209Z" fill="#59ACF3"/>
<path d="M26.3662 54.5029C26.9278 54.5029 27.3467 54.9067 27.3467 55.4385C27.3464 56.0156 26.8821 56.4189 26.3662 56.4189H17.5049C16.9735 56.4187 16.5705 55.9997 16.5703 55.4385C16.5703 54.9148 16.9813 54.5032 17.5049 54.5029H26.3662ZM17.5049 54.7031C17.0918 54.7034 16.7705 55.0253 16.7705 55.4385C16.7707 55.8973 17.0919 56.2185 17.5049 56.2188H26.3662C26.7794 56.2188 27.1472 55.8975 27.1475 55.4385C27.1475 55.0251 26.8255 54.7031 26.3662 54.7031H17.5049ZM43.7236 24.8867C44.2313 24.8867 44.7038 25.2824 44.7041 25.8213V50.3398C44.7041 50.8636 44.2474 51.3213 43.7236 51.3213C43.2077 51.3212 42.7432 50.9171 42.7432 50.3398V25.8213C42.7434 25.2824 43.2161 24.8868 43.7236 24.8867ZM43.7236 25.0869C43.3105 25.087 42.9436 25.4082 42.9434 25.8213V50.3398C42.9434 50.799 43.3104 51.121 43.7236 51.1211C44.137 51.1211 44.5049 50.7532 44.5049 50.3398V25.8213C44.5046 25.4082 44.1368 25.0869 43.7236 25.0869Z" fill="#59ACF3"/>
<path fill-rule="evenodd" clip-rule="evenodd" d="M37.5699 75.0002C30.1298 75.0002 24.0703 68.9378 24.0703 61.5006C24.0703 54.0605 30.1326 48.001 37.5699 48.001C45.01 48.001 51.0695 54.0633 51.0695 61.5006C51.0695 68.9407 45.0072 75.0002 37.5699 75.0002ZM37.5699 49.5631C31.0024 49.5631 25.6324 54.9365 25.6324 61.5006C25.6324 68.114 30.9599 73.4843 37.5699 73.4843C44.1833 73.4843 49.5074 68.1108 49.5074 61.5006C49.5074 54.9331 44.1799 49.5631 37.5699 49.5631Z" fill="#59ACF3"/>
<path d="M37.5703 47.8008C45.1207 47.801 51.2695 53.9534 51.2695 61.501C51.2693 69.0512 45.1177 75.2 37.5703 75.2002C30.0199 75.2002 23.8703 69.0485 23.8701 61.501C23.8701 53.9504 30.0226 47.8008 37.5703 47.8008ZM37.5703 48.001C30.133 48.001 24.0703 54.0609 24.0703 61.501C24.0705 68.9381 30.1304 75 37.5703 75C45.0073 74.9998 51.0691 68.9408 51.0693 61.501C51.0693 54.0638 45.0102 48.0012 37.5703 48.001ZM37.5703 49.5635C44.1801 49.5637 49.5078 54.9336 49.5078 61.501C49.5076 68.1109 44.1834 73.4842 37.5703 73.4844C30.9605 73.4844 25.633 68.1142 25.6328 61.501C25.6328 54.9369 31.0028 49.5635 37.5703 49.5635ZM37.5703 49.7627C31.1133 49.7627 25.832 55.0474 25.832 61.501C25.8323 68.0047 31.0719 73.2842 37.5703 73.2842C44.0719 73.284 49.3074 68.0015 49.3076 61.501C49.3076 55.0436 44.0692 49.7629 37.5703 49.7627Z" fill="#59ACF3"/>
<path fill-rule="evenodd" clip-rule="evenodd" d="M37.569 69.7182C33.0682 69.7182 29.3516 66.044 29.3516 61.5007C29.3516 56.9539 33.0257 53.2832 37.569 53.2832C39.7735 53.2832 41.8402 54.1558 43.3558 55.6714C44.9173 57.2329 45.744 59.2996 45.744 61.5041C45.744 63.6626 44.9173 65.7752 43.3558 67.2908C41.8402 68.8523 39.7735 69.7249 37.569 69.7249V69.7182ZM37.569 54.8414C33.8949 54.8414 30.9097 57.8266 30.9097 61.5008C30.9097 65.1749 33.8949 68.206 37.569 68.206C41.2432 68.206 44.2284 65.2208 44.2284 61.5008C44.2284 57.8266 41.2432 54.8414 37.569 54.8414Z" fill="#59ACF3"/>
<path d="M37.5693 53.083C39.827 53.0831 41.9442 53.9774 43.4971 55.5303C45.0973 57.1305 45.9443 59.2483 45.9443 61.5039C45.9443 63.7125 45.0982 65.8786 43.4951 67.4346L43.4941 67.4336C41.941 69.0314 39.8252 69.9247 37.5693 69.9248H37.3691V69.9121C32.8491 69.8052 29.1515 66.0879 29.1514 61.501C29.1514 56.8437 32.9156 53.083 37.5693 53.083ZM37.5693 53.2832C33.026 53.2832 29.3516 56.9542 29.3516 61.501C29.3517 66.0442 33.0686 69.7178 37.5693 69.7178V69.7246C39.7736 69.7245 41.84 68.8523 43.3555 67.291C44.917 65.7754 45.7441 63.6624 45.7441 61.5039C45.7441 59.2995 44.9169 57.2333 43.3555 55.6719C41.84 54.1564 39.7737 53.2833 37.5693 53.2832ZM37.5693 54.8418C41.2433 54.842 44.2285 57.827 44.2285 61.501C44.2284 65.2208 41.2433 68.2059 37.5693 68.2061C33.8953 68.2061 30.9103 65.175 30.9102 61.501C30.9102 57.8269 33.8952 54.8418 37.5693 54.8418ZM37.5693 55.041C34.0057 55.041 31.1094 57.9373 31.1094 61.501C31.1095 65.0663 34.0075 68.0059 37.5693 68.0059C41.1319 68.0057 44.0282 65.1113 44.0283 61.501C44.0283 57.9374 41.1329 55.0412 37.5693 55.041Z" fill="#59ACF3"/>
<path fill-rule="evenodd" clip-rule="evenodd" d="M19.0211 46.2555C18.8833 46.2555 18.7914 46.2096 18.6536 46.1637L14.5203 43.7295V43.6836C13.4181 42.9947 13.0506 41.7547 13.5558 40.2851C15.944 33.1665 19.8477 28.118 25.4478 24.8565C25.5397 24.8106 25.6315 24.7188 25.7234 24.6728C26.4582 24.1676 27.5145 23.5247 28.6627 24.2136L31.3264 25.7751H31.3723C31.9234 26.1425 32.2908 26.6936 32.5204 27.3366C32.6123 27.7499 32.3826 28.1633 31.9693 28.3011C31.6019 28.4388 31.1426 28.2092 31.0507 27.7959C30.9589 27.5662 30.8211 27.2448 30.5456 27.0611L27.8819 25.4995C27.5604 25.3158 27.2848 25.4536 26.5041 25.9588C26.4122 26.0047 26.2744 26.0966 26.1826 26.1425V26.1884C20.901 29.2196 17.2761 33.9959 14.9333 40.7901C14.7955 41.2034 14.6578 41.9841 15.2548 42.3975L19.3882 44.8316C19.7556 45.0154 19.8933 45.5205 19.6637 45.8421C19.5719 46.1176 19.2966 46.2555 19.0211 46.2555Z" fill="#59ACF3"/>
<path d="M25.9022 24.3137C26.628 23.8507 27.6552 23.3775 28.7635 24.0413L31.3807 25.5754H31.4325L31.4833 25.6086C32.0046 25.9562 32.3677 26.4528 32.6112 27.0217L32.7088 27.2698L32.7128 27.2815L32.7157 27.2932C32.8298 27.8067 32.5425 28.3213 32.0321 28.4914L32.0311 28.4905C31.5609 28.6613 30.9908 28.3796 30.8612 27.8625C30.7679 27.6301 30.6494 27.3711 30.4344 27.2278H30.4335L27.7821 25.6731C27.7232 25.6395 27.6755 25.6252 27.6288 25.6223C27.5804 25.6194 27.5193 25.6284 27.4335 25.6594C27.2526 25.7247 27.0077 25.8712 26.6122 26.1272L26.6034 26.133L26.5936 26.1379C26.5561 26.1567 26.5058 26.1861 26.4462 26.2219C26.4263 26.2338 26.4041 26.2454 26.3827 26.258V26.3049L26.2821 26.3625C21.0517 29.3644 17.4525 34.0954 15.1219 40.8528L15.1229 40.8538C15.0584 41.0472 14.9974 41.3169 15.0174 41.5784C15.037 41.8328 15.1311 42.0665 15.3631 42.2297L19.4774 44.6526C19.9386 44.8832 20.1243 45.5071 19.8387 45.9358C19.702 46.2951 19.3446 46.4552 19.0213 46.4553C18.8413 46.4553 18.702 46.3909 18.5907 46.3538L18.5702 46.3469L18.5516 46.3362L14.4188 43.9026L14.3202 43.844V43.7893C13.7818 43.4247 13.414 42.9276 13.243 42.3323C13.0629 41.7048 13.1033 40.9845 13.3661 40.22C15.7672 33.0638 19.6988 27.9731 25.3465 24.6838L25.3583 24.678C25.3849 24.6646 25.4161 24.6419 25.4657 24.6047C25.5027 24.577 25.5544 24.5391 25.6102 24.508L25.9022 24.3137ZM28.6629 24.2141C27.6584 23.6114 26.7237 24.0277 26.0135 24.4797L25.4481 24.8567C19.848 28.1181 15.9437 33.1668 13.5555 40.2854C13.0504 41.755 13.4182 42.9949 14.5204 43.6838V43.7297L18.6532 46.1643C18.791 46.2102 18.8836 46.2561 19.0213 46.2561C19.2968 46.2559 19.5721 46.1174 19.6639 45.842C19.8932 45.5205 19.7548 45.0159 19.3876 44.8323L15.2547 42.3977C14.6577 41.9843 14.7957 41.2036 14.9335 40.7903C17.2763 33.9962 20.901 29.2199 26.1825 26.1887V26.1428C26.2743 26.0969 26.4119 26.0052 26.5038 25.9592C27.2845 25.454 27.5602 25.3165 27.8817 25.5002L30.5458 27.0618C30.821 27.2455 30.9588 27.5666 31.0506 27.7961C31.1425 28.2095 31.6022 28.4388 31.9696 28.301C32.3825 28.1631 32.612 27.7502 32.5204 27.3371C32.2908 26.6942 31.923 26.143 31.3719 25.7756H31.326L28.6629 24.2141Z" fill="#59ACF3"/>
<path fill-rule="evenodd" clip-rule="evenodd" d="M38.5337 26.6474C38.1203 26.6474 37.7529 26.3259 37.7529 25.8666V22.0547C37.7529 20.2636 39.2226 18.8398 40.9678 18.8398H50.5632C52.3544 18.8398 53.824 20.2636 53.824 22.0547V25.8207C53.824 26.28 53.4566 26.6015 53.0433 26.6015C52.63 26.6015 52.2626 26.28 52.2626 25.8207V22.0547C52.2626 21.1362 51.4818 20.3554 50.5633 20.3554H40.9678C40.0493 20.3554 39.3145 21.1362 39.3145 22.0547V25.8666C39.3145 26.3259 38.947 26.6474 38.5337 26.6474Z" fill="#59ACF3"/>
<path d="M50.5635 18.6396C52.4613 18.6398 54.0244 20.1495 54.0244 22.0547V25.8203C54.0244 26.3977 53.559 26.8018 53.043 26.8018C52.5271 26.8016 52.0625 26.3975 52.0625 25.8203V22.0547C52.0625 21.2467 51.3715 20.5558 50.5635 20.5557H40.9678C40.1668 20.5557 39.5147 21.2394 39.5146 22.0547V25.8662C39.5146 26.4436 39.0492 26.8477 38.5332 26.8477C38.0174 26.8474 37.5527 26.4434 37.5527 25.8662V22.0547C37.5528 20.1512 39.114 18.6397 40.9678 18.6396H50.5635ZM40.9678 18.8398C39.2226 18.8399 37.753 20.2636 37.7529 22.0547V25.8662C37.7529 26.3253 38.1201 26.6472 38.5332 26.6475C38.9465 26.6475 39.3145 26.3255 39.3145 25.8662V22.0547C39.3145 21.1362 40.0493 20.3555 40.9678 20.3555H50.5635C51.4819 20.3556 52.2627 21.1362 52.2627 22.0547V25.8203C52.2627 26.2794 52.6298 26.6014 53.043 26.6016C53.4563 26.6016 53.8242 26.2796 53.8242 25.8203V22.0547C53.8242 20.2636 52.3545 18.84 50.5635 18.8398H40.9678Z" fill="#59ACF3"/>
<path fill-rule="evenodd" clip-rule="evenodd" d="M80.2297 64.669C79.7705 64.669 79.449 64.3016 79.449 63.8883V13.5158C79.449 10.4847 78.2549 7.63722 76.1422 5.52798C74.0296 3.41538 71.1363 2.22124 68.1999 2.22124H55.7569C52.8176 2.22124 49.9242 3.4153 47.8145 5.52798C45.7019 7.64059 44.5078 10.488 44.5078 13.5158V19.6241C44.5078 20.0374 44.1863 20.3589 43.727 20.3589C43.3137 20.3589 42.9922 20.0374 42.9922 19.6241V13.5158C42.9922 10.0713 44.324 6.85647 46.7582 4.42516C49.1464 2.03696 52.4071 0.65918 55.7563 0.65918H68.1993C71.5519 0.65918 74.8587 2.03696 77.2437 4.42516C79.6319 6.85929 80.9638 10.0741 80.9638 13.5158V63.8883C80.9638 64.3016 80.6431 64.669 80.2297 64.669ZM76.1423 64.669C75.683 64.669 75.3616 64.3016 75.3616 63.8883V13.5158C75.3616 11.5869 74.6267 9.79576 73.249 8.46391C71.9171 7.08612 70.1259 6.3513 68.1971 6.3513H55.754C53.8252 6.3513 51.9881 7.08612 50.7021 8.46391C49.3244 9.84169 48.5895 11.6329 48.5895 13.5158V19.6241C48.5895 20.0374 48.2221 20.4048 47.8088 20.4048C47.3955 20.4048 47.028 20.0374 47.028 19.6241V13.5158C47.028 11.1735 47.9466 9.01501 49.5999 7.36163C51.2073 5.75419 53.4118 4.78979 55.7541 4.78979H68.1971C70.5393 4.78979 72.7438 5.70834 74.3513 7.36163C76.0046 9.01501 76.9231 11.1735 76.9231 13.5158V63.8883C76.8772 64.3016 76.5556 64.669 76.1423 64.669Z" fill="#59ACF3"/>
<path d="M68.1973 4.58984C70.5911 4.58989 72.8465 5.52847 74.4922 7.21973C76.182 8.90957 77.123 11.119 77.123 13.5156V63.8994L77.1221 63.9102C77.068 64.3967 76.6836 64.869 76.1426 64.8691C75.5654 64.8691 75.1613 64.4045 75.1611 63.8887V13.5156C75.1611 11.6391 74.4477 9.90017 73.1104 8.60742L73.1055 8.60254C71.8127 7.26523 70.0738 6.55181 68.1973 6.55176H55.7539C53.8752 6.55179 52.0932 7.26712 50.8486 8.60059L50.8438 8.60547C49.5032 9.94603 48.7891 11.6862 48.7891 13.5156V19.624C48.7891 20.1478 48.3324 20.6045 47.8086 20.6045C47.2849 20.6044 46.8281 20.1478 46.8281 19.624V13.5156C46.8282 11.119 47.7682 8.90957 49.458 7.21973C51.1014 5.57637 53.3565 4.58989 55.7539 4.58984H68.1973ZM68.1992 0.458984C71.4989 0.458984 74.7529 1.77244 77.1553 4.05957L77.3857 4.28418L77.3867 4.28516C79.8111 6.75628 81.164 10.0212 81.1641 13.5156V63.8887C81.1638 64.396 80.7688 64.8691 80.2295 64.8691C79.6524 64.869 79.2492 64.4045 79.249 63.8887V13.5156C79.249 10.5379 78.076 7.7417 76.001 5.66992V5.66895C73.9258 3.59381 71.0831 2.42098 68.2002 2.4209H55.7568C52.8709 2.42091 50.0284 3.59383 47.9561 5.66895C45.8808 7.74421 44.7081 10.5412 44.708 13.5156V19.624C44.708 20.1558 44.2882 20.5586 43.7266 20.5586C43.203 20.5584 42.792 20.1477 42.792 19.624V13.5156C42.792 10.1275 44.0621 6.95698 46.3887 4.51758L46.6172 4.2832C49.0418 1.85885 52.3527 0.459112 55.7559 0.458984H68.1992ZM55.7539 4.79004C53.4117 4.79008 51.207 5.75393 49.5996 7.36133C47.9464 9.01466 47.0284 11.1734 47.0283 13.5156V19.624C47.0283 20.0373 47.3953 20.4052 47.8086 20.4053C48.2219 20.4053 48.5898 20.0374 48.5898 19.624V13.5156C48.5899 11.6327 49.3244 9.84161 50.7021 8.46387C51.988 7.08613 53.8251 6.3516 55.7539 6.35156H68.1973C70.1261 6.35162 71.9172 7.08613 73.249 8.46387C74.6268 9.79568 75.3613 11.5868 75.3613 13.5156V63.8887C75.3615 64.3018 75.6835 64.6689 76.1426 64.6689C76.5556 64.6688 76.8768 64.3017 76.9229 63.8887V13.5156C76.9228 11.1734 76.0049 9.01466 74.3516 7.36133C72.7442 5.70808 70.5395 4.79009 68.1973 4.79004H55.7539ZM55.7559 0.65918C52.4068 0.659308 49.1459 2.03672 46.7578 4.4248C44.3237 6.85607 42.9922 10.0712 42.9922 13.5156V19.624C42.9922 20.0372 43.3134 20.3582 43.7266 20.3584C44.1858 20.3584 44.5078 20.0374 44.5078 19.624V13.5156C44.5079 10.488 45.702 7.64087 47.8145 5.52832C49.9242 3.41564 52.8176 2.22169 55.7568 2.22168H68.2002C71.1365 2.22177 74.03 3.41579 76.1426 5.52832C78.255 7.63748 79.4492 10.4847 79.4492 13.5156V63.8887C79.4494 64.3018 79.7705 64.6688 80.2295 64.6689C80.6427 64.6689 80.9637 64.3018 80.9639 63.8887V13.5156C80.9638 10.074 79.6323 6.85889 77.2441 4.4248C74.8591 2.03661 71.5518 0.65918 68.1992 0.65918H55.7559Z" fill="#59ACF3"/>
<path fill-rule="evenodd" clip-rule="evenodd" d="M87.7579 75H68.5639C66.4513 75 64.6602 73.2088 64.6602 71.0962C64.6602 68.9377 66.4054 67.1465 68.5639 67.1465H87.7579C89.9165 67.1465 91.6617 68.9377 91.6617 71.0962C91.6617 73.2547 89.9165 75 87.7579 75ZM68.5639 68.7081C67.278 68.7081 66.2217 69.8103 66.2217 71.0963C66.2217 72.3823 67.278 73.4385 68.5639 73.4385H87.7579C89.0438 73.4385 90.1461 72.3822 90.1461 71.0963C90.1461 69.7644 89.0898 68.7081 87.7579 68.7081H68.5639Z" fill="#59ACF3"/>
<path d="M87.7578 66.9463C90.0297 66.9463 91.8611 68.83 91.8613 71.0957C91.8613 73.3647 90.0268 75.2002 87.7578 75.2002H68.5635C66.3406 75.1999 64.46 73.3186 64.46 71.0957C64.4602 68.8301 66.2918 66.9465 68.5635 66.9463H87.7578ZM68.5635 67.1465C66.4053 67.1467 64.6604 68.9375 64.6602 71.0957C64.6602 73.2082 66.4511 74.9997 68.5635 75H87.7578C89.9164 75 91.6621 73.2542 91.6621 71.0957C91.6618 68.9374 89.9162 67.1465 87.7578 67.1465H68.5635ZM87.7578 68.708C89.0897 68.708 90.1465 69.7648 90.1465 71.0967C90.1462 72.3824 89.0436 73.4385 87.7578 73.4385H68.5635C67.2779 73.4382 66.2219 72.3823 66.2217 71.0967C66.2217 69.8108 67.2778 68.7083 68.5635 68.708H87.7578ZM68.5635 68.9082C67.3932 68.9085 66.4219 69.9162 66.4219 71.0967C66.4221 72.2719 67.3884 73.238 68.5635 73.2383H87.7578C88.9382 73.2383 89.9461 72.267 89.9463 71.0967C89.9463 69.8753 88.9792 68.9082 87.7578 68.9082H68.5635Z" fill="#59ACF3"/>
<path fill-rule="evenodd" clip-rule="evenodd" d="M85.4155 68.7105C84.9562 68.7105 84.6348 68.3431 84.6348 67.9297V65.4497C84.6348 65.0363 84.2674 64.6689 83.8999 64.6689H72.4673C72.0539 64.6689 71.6406 65.0363 71.6406 65.4497V67.9297C71.6406 68.3431 71.3191 68.7105 70.9058 68.7105C70.4465 68.7105 70.125 68.3431 70.125 67.9297V65.4497C70.125 64.2097 71.2272 63.1074 72.4673 63.1074H83.8999C85.1399 63.1074 86.1504 64.2096 86.1504 65.4497V67.9297C86.1504 68.3431 85.8288 68.7105 85.4155 68.7105Z" fill="#59ACF3"/>
<path d="M83.9004 62.9072C85.2607 62.9075 86.3503 64.1095 86.3506 65.4492V67.9297C86.3506 68.4375 85.9542 68.9102 85.415 68.9102C84.8379 68.9099 84.4346 68.4456 84.4346 67.9297V65.4492C84.4344 65.3019 84.3682 65.1549 84.2607 65.043C84.1523 64.93 84.0183 64.8693 83.9004 64.8691H72.4668C72.318 64.8693 72.1587 64.9366 72.0352 65.0508C71.9117 65.1651 71.841 65.3101 71.8408 65.4492V67.9297C71.8408 68.4375 71.4444 68.9102 70.9053 68.9102C70.3282 68.9099 69.9248 68.4456 69.9248 67.9297V65.4492C69.9251 64.0991 71.1166 62.9075 72.4668 62.9072H83.9004ZM72.4668 63.1074C71.2271 63.1077 70.1253 64.2096 70.125 65.4492V67.9297C70.125 68.3429 70.4463 68.7107 70.9053 68.7109C71.3186 68.7109 71.6406 68.343 71.6406 67.9297V65.4492C71.6409 65.0362 72.0538 64.6692 72.4668 64.6689H83.9004C84.2675 64.6692 84.6345 65.0362 84.6348 65.4492V67.9297C84.6348 68.3429 84.956 68.7107 85.415 68.7109C85.8284 68.7109 86.1504 68.343 86.1504 67.9297V65.4492C86.1501 64.2095 85.14 63.1077 83.9004 63.1074H72.4668Z" fill="#59ACF3"/>
<path fill-rule="evenodd" clip-rule="evenodd" d="M55.6831 6.30908C55.2698 6.30908 54.9023 5.98759 54.9023 5.57426V1.4409C54.9023 0.981637 55.2698 0.660156 55.6831 0.660156C56.0964 0.660156 56.4638 0.981644 56.4638 1.4409V5.57426C56.4638 5.98759 56.0964 6.30908 55.6831 6.30908Z" fill="#59ACF3"/>
<path d="M55.6816 0.458984C56.1975 0.458984 56.6628 0.862374 56.6631 1.43945V5.57324C56.6631 6.11241 56.1894 6.50781 55.6816 6.50781C55.1741 6.50757 54.7012 6.11224 54.7012 5.57324V1.43945C54.7014 0.862542 55.166 0.459231 55.6816 0.458984ZM55.6816 0.65918C55.2686 0.659425 54.9016 0.980614 54.9014 1.43945V5.57324C54.9014 5.98642 55.2685 6.30737 55.6816 6.30762C56.095 6.30762 56.4629 5.98658 56.4629 5.57324V1.43945C56.4626 0.980447 56.0948 0.65918 55.6816 0.65918Z" fill="#59ACF3"/>
<path fill-rule="evenodd" clip-rule="evenodd" d="M37.7077 46.2558H27.6068C26.9179 46.2558 26.183 45.8884 25.7697 45.3372C25.4482 44.878 25.4023 44.4187 25.54 43.9595V43.9135L27.8364 37.8971C28.5712 36.0142 30.0868 32.0186 33.9905 32.0186H37.7106C38.8587 32.0186 39.7773 32.9371 39.7773 34.0393V44.1857C39.7773 45.3339 38.8587 46.2524 37.7106 46.2524L37.7077 46.2558ZM27.0103 44.4187C27.1021 44.5565 27.3318 44.7402 27.6073 44.7402H37.7083C38.0298 44.7402 38.2594 44.4646 38.2594 44.1891V34.0426C38.2594 33.813 38.0298 33.5374 37.7083 33.5374H33.9883C31.646 33.5374 30.406 35.5122 29.3037 38.4515L27.0074 44.422L27.0103 44.4187Z" fill="#59ACF3"/>
<path d="M37.7106 31.8184C38.966 31.8185 39.9771 32.8237 39.9772 34.0391V44.1855C39.9772 45.4116 39.0202 46.396 37.8073 46.4463L37.8004 46.4561H27.6061C26.8543 46.4559 26.0601 46.0584 25.609 45.457L25.6051 45.4521C25.2549 44.9518 25.1979 44.4409 25.3395 43.9375V43.877L25.3532 43.8418L27.6491 37.8262L27.6501 37.8242C28.0161 36.8863 28.5879 35.3895 29.567 34.1289C30.5506 32.8627 31.9581 31.8185 33.9899 31.8184H37.7106ZM33.9899 32.0186C30.0863 32.0188 28.5704 36.0146 27.8356 37.8975L25.5397 43.9131V43.959C25.402 44.4181 25.4479 44.8777 25.7692 45.3369C26.1825 45.888 26.9173 46.2557 27.6061 46.2559H37.7077L37.7106 46.252C38.8586 46.2518 39.777 45.3336 39.777 44.1855V34.0391C39.7769 32.9371 38.8585 32.0187 37.7106 32.0186H33.9899ZM37.7077 33.5371C38.0292 33.5371 38.2594 33.8133 38.2594 34.043V44.1895C38.2592 44.4649 38.029 44.7402 37.7077 44.7402H27.6071C27.3318 44.7402 27.1024 44.5567 27.0104 44.4189L27.0075 44.4219L29.3034 38.4512C30.4056 35.512 31.6458 33.5371 33.9879 33.5371H37.7077ZM33.9879 33.7373C32.8845 33.7373 32.0417 34.1982 31.3327 35.0225C30.6162 35.8555 30.0403 37.0564 29.4909 38.5215L29.4899 38.5234L27.2379 44.3779C27.3227 44.4592 27.459 44.54 27.6071 44.54H37.7077C37.9079 44.54 38.059 44.3653 38.0592 44.1895V34.043C38.0592 33.9911 38.0302 33.9134 37.9626 33.8457C37.8977 33.7809 37.809 33.7373 37.7077 33.7373H33.9879Z" fill="#59ACF3"/>
<path fill-rule="evenodd" clip-rule="evenodd" d="M36.4701 40.1015H31.8315C31.4182 40.1015 31.0967 39.78 31.0967 39.3208C31.0967 38.9074 31.4182 38.5859 31.8315 38.5859H36.4701C36.9294 38.5859 37.2508 38.9074 37.2508 39.3208C37.2508 39.78 36.8834 40.1015 36.4701 40.1015Z" fill="#59ACF3"/>
<path d="M36.4697 38.3848C37.0312 38.3848 37.4509 38.7878 37.4512 39.3193C37.4512 39.8967 36.9857 40.3008 36.4697 40.3008H31.8311C31.2995 40.3005 30.8965 39.8808 30.8965 39.3193C30.8967 38.7959 31.3076 38.385 31.8311 38.3848H36.4697ZM31.8311 38.585C31.4181 38.5852 31.0969 38.9064 31.0967 39.3193C31.0967 39.7784 31.4179 40.1004 31.8311 40.1006H36.4697C36.8831 40.1006 37.251 39.7786 37.251 39.3193C37.2507 38.9062 36.9288 38.585 36.4697 38.585H31.8311Z" fill="#59ACF3"/>
<path fill-rule="evenodd" clip-rule="evenodd" d="M36.4699 36.3388H33.6684C33.2551 36.3388 32.9336 36.0173 32.9336 35.5581C32.9336 35.1447 33.2551 34.8232 33.6684 34.8232H36.4699C36.9292 34.8232 37.2507 35.1447 37.2507 35.5581C37.2507 36.0173 36.8833 36.3388 36.4699 36.3388Z" fill="#59ACF3"/>
<path d="M36.4707 34.623C37.0322 34.623 37.4509 35.0261 37.4512 35.5576C37.4512 36.135 36.9867 36.5391 36.4707 36.5391H33.6689C33.1374 36.5388 32.7344 36.1191 32.7344 35.5576C32.7346 35.0342 33.1455 34.6233 33.6689 34.623H36.4707ZM33.6689 34.8232C33.256 34.8235 32.9348 35.1446 32.9346 35.5576C32.9346 36.0167 33.2558 36.3386 33.6689 36.3389H36.4707C36.884 36.3389 37.252 36.0169 37.252 35.5576C37.2517 35.1445 36.9298 34.8232 36.4707 34.8232H33.6689Z" fill="#59ACF3"/>
</svg>
