<svg width="76" height="76" viewBox="0 0 76 76" fill="none" xmlns="http://www.w3.org/2000/svg">
<path d="M8.72393 34.7767V47.0137C8.72393 50.9655 11.9328 54.1743 15.8846 54.1743H50.7591C51.048 54.1743 51.306 54.0093 51.4401 53.7513C51.5742 53.4934 51.533 53.1838 51.3576 52.9568L49.2321 50.2123C48.4995 49.2733 48.1074 48.0971 48.1074 46.9002V34.9314C50.0162 34.6735 51.502 33.0536 51.502 31.0725C51.502 28.9161 49.748 27.162 47.5915 27.162H34.2195V11.4685C34.2195 8.45566 31.7638 6 28.751 6C25.7382 6 23.2825 8.45566 23.2825 11.4685V27.1517H9.91049C7.75405 27.1517 6 28.9058 6 31.0622C6 32.8059 7.14529 34.2711 8.72393 34.7767ZM49.2217 52.6679H39.0896C37.0982 52.6679 35.4783 51.048 35.4783 49.067V45.1978C35.4783 44.785 35.1378 44.4446 34.7251 44.4446C34.3124 44.4446 33.9719 44.785 33.9719 45.1978V49.0773C33.9719 50.4805 34.5394 51.7496 35.4576 52.6782H26.4604C24.4691 52.6782 22.8595 51.0583 22.8595 49.0773V45.1978C22.8595 44.785 22.519 44.4446 22.1063 44.4446C21.6935 44.4446 21.3531 44.785 21.3531 45.1978V49.0773C21.3737 51.2956 22.715 52.5544 22.8388 52.6782H15.8846C12.7686 52.6782 10.2303 50.14 10.2303 47.024V34.983H15.2758V38.4498C15.2758 38.8626 15.6163 39.203 16.029 39.203C16.4417 39.203 16.7822 38.8626 16.7822 38.4498V34.983H21.4562V37.0776C21.4562 37.4903 21.7967 37.8308 22.2094 37.8308C22.6222 37.8308 22.9627 37.4903 22.9627 37.0776V34.983H27.6367V38.4498C27.6367 38.8626 27.9772 39.203 28.3899 39.203C28.8026 39.203 29.1431 38.8626 29.1431 38.4498V34.983H33.8171V37.0776C33.8171 37.4903 34.1576 37.8308 34.5703 37.8308C34.983 37.8308 35.3235 37.4903 35.3235 37.0776V34.983H39.9975V38.4498C39.9975 38.8626 40.338 39.203 40.7507 39.203C41.1635 39.203 41.5039 38.8626 41.5039 38.4498V34.983H46.5804V46.9002C46.5804 48.4273 47.0963 49.9234 48.0249 51.1306L49.2217 52.6679ZM24.7889 11.4685C24.7889 9.2811 26.5636 7.50642 28.751 7.50642C30.9384 7.50642 32.7131 9.2811 32.7131 11.4685V27.1517H24.7889V11.4685ZM9.91049 28.6685H47.5812C48.9019 28.6685 49.9853 29.7415 49.9853 31.0725C49.9853 32.4035 48.9122 33.4766 47.5812 33.4766H9.91049C8.5898 33.4663 7.50642 32.3932 7.50642 31.0622C7.50642 29.7312 8.5898 28.6685 9.91049 28.6685Z" fill="#59ACF3"/>
<path d="M65.2862 59.6532H56.3509C57.4549 58.6214 58.1462 57.1563 58.1462 55.5364C58.1462 53.9164 57.4549 52.441 56.3509 51.4195H65.0695C68.1752 51.4195 70.7031 48.8916 70.7031 45.7859C70.7031 42.6802 68.1752 40.1523 65.0695 40.1523H53.2865C52.8737 40.1523 52.5332 40.4928 52.5332 40.9056C52.5332 41.3183 52.8737 41.6588 53.2865 41.6588H65.0695C67.3395 41.6588 69.1864 43.5057 69.1864 45.7756C69.1864 48.0455 67.3395 49.8925 65.0695 49.8925H52.5229C52.1102 49.8925 51.7697 50.2329 51.7697 50.6457C51.7697 51.0584 52.1102 51.3989 52.5229 51.3989C54.7929 51.3989 56.6398 53.2458 56.6398 55.5157C56.6398 57.7857 54.7929 59.6326 52.5229 59.6326C52.1102 59.6326 51.7697 59.9731 51.7697 60.3858C51.7697 60.7985 52.1102 61.139 52.5229 61.139H65.2862C67.5561 61.1699 69.4134 63.0065 69.4134 65.2765C69.4134 67.5464 67.5664 69.3933 65.2965 69.3933H18.35C16.0801 69.3933 14.2331 67.5464 14.2331 65.2765C14.2331 64.1828 14.6562 63.151 15.4403 62.3771C16.2142 61.6033 17.2563 61.1699 18.35 61.1699C18.7627 61.1699 19.1032 60.8294 19.1032 60.4167C19.1032 60.004 18.7627 59.6635 18.35 59.6635H11.633C9.36309 59.6635 7.51618 57.8166 7.51618 55.5467C7.51618 54.9173 7.65031 54.3188 7.9289 53.7514C8.11462 53.3799 7.94953 52.9259 7.57809 52.7402C7.20664 52.5545 6.75266 52.7196 6.56693 53.091C6.19549 53.8545 6.00977 54.68 6.00977 55.5364C6.00977 58.642 8.53766 61.1699 11.6433 61.1699H14.522C14.4705 61.2112 14.4292 61.2628 14.3776 61.3041C13.3148 62.3668 12.7267 63.7804 12.7267 65.2765C12.7267 68.3822 15.2546 70.91 18.3603 70.91H65.2862C68.3919 70.91 70.9198 68.3822 70.9198 65.2765C70.9198 62.1811 68.3919 59.6532 65.2862 59.6532Z" fill="#59ACF3"/>
<path d="M63.0469 36.2727C64.9558 36.2727 66.5138 34.7147 66.5138 32.8059C66.5138 30.8971 64.9558 29.3391 63.0469 29.3391C61.1381 29.3391 59.5801 30.8971 59.5801 32.8059C59.5698 34.7147 61.1278 36.2727 63.0469 36.2727ZM63.0469 30.8455C64.12 30.8455 64.997 31.7225 64.997 32.7956C64.997 33.879 64.12 34.756 63.0469 34.756C61.9636 34.756 61.0865 33.879 61.0865 32.7956C61.0865 31.7225 61.9636 30.8455 63.0469 30.8455Z" fill="#59ACF3"/>
<path d="M66.5557 27.3992C68.4645 27.3992 70.0225 25.8412 70.0225 23.9324C70.0225 22.0236 68.4645 20.4656 66.5557 20.4656C64.6469 20.4656 63.0889 22.0236 63.0889 23.9324C63.0889 25.8412 64.6469 27.3992 66.5557 27.3992ZM66.5557 21.972C67.6288 21.972 68.5058 22.849 68.5058 23.9221C68.5058 25.0055 67.6288 25.8825 66.5557 25.8825C65.4723 25.8825 64.5953 25.0055 64.5953 23.9221C64.5953 22.849 65.4723 21.972 66.5557 21.972Z" fill="#59ACF3"/>
<path d="M55.0307 27.6985C57.7959 27.6985 60.0452 25.4492 60.0452 22.6737C60.0452 19.9085 57.7959 17.6592 55.0307 17.6592C52.2552 17.6592 50.0059 19.9085 50.0059 22.6737C50.0059 25.4492 52.2552 27.6985 55.0307 27.6985ZM55.0307 19.1656C56.9601 19.1656 58.5388 20.7339 58.5388 22.6737C58.5388 24.6135 56.9705 26.1921 55.0307 26.1921C53.0909 26.1921 51.5123 24.6135 51.5123 22.6737C51.5123 20.7442 53.0909 19.1656 55.0307 19.1656Z" fill="#59ACF3"/>
</svg>
