<svg width="24" height="24" viewBox="0 0 24 24" fill="none" xmlns="http://www.w3.org/2000/svg">
<rect width="24" height="24" rx="12" fill="#1C2B36"/>
<path d="M12 6C13.6292 6 13.8344 6.007 14.4775 6.0332C15.118 6.0618 15.5536 6.16488 15.9346 6.3125C16.3275 6.46729 16.6637 6.67155 16.9971 7.00488C17.3305 7.33833 17.538 7.67202 17.6904 8.06738C17.8381 8.45087 17.9402 8.88704 17.9688 9.52539C17.9973 10.166 18.0049 10.3685 18.0049 12C18.0049 13.6315 17.9973 13.834 17.9688 14.4746C17.9402 15.1153 17.8381 15.5515 17.6904 15.9326C17.5356 16.3256 17.3305 16.6617 16.9971 16.9951C16.6637 17.3285 16.3299 17.5351 15.9346 17.6875C15.5512 17.8351 15.1156 17.9382 14.4775 17.9668C13.8368 17.9954 13.6336 18.002 12.002 18.002C10.3707 18.002 10.168 17.9954 9.52734 17.9668C8.88687 17.9382 8.45131 17.8351 8.07031 17.6875C7.67741 17.5327 7.34119 17.3284 7.00781 16.9951C6.67438 16.6617 6.46689 16.328 6.31445 15.9326C6.16678 15.5491 6.06472 15.113 6.03613 14.4746C6.00756 13.834 6 13.6291 6 12C6 10.3708 6.00755 10.1657 6.03613 9.52734C6.06472 8.88697 6.16687 8.45128 6.31445 8.07031C6.46928 7.6773 6.67435 7.34128 7.00781 7.00781C7.34128 6.67435 7.67492 6.46689 8.07031 6.31445C8.45133 6.16685 8.88725 6.06471 9.52539 6.03613C10.166 6.00756 10.3709 6 12 6ZM12 8.91992C10.2995 8.92 8.91818 10.2991 8.91797 12.002C8.91797 13.705 10.297 15.0849 12 15.085C13.7031 15.085 15.082 13.705 15.082 12.002C15.0818 10.2991 13.7029 8.91992 12 8.91992ZM12 9.99902C13.1052 9.99902 14.001 10.8948 14.001 12C14.001 13.1052 13.1052 14.001 12 14.001C10.8949 14.0009 9.99905 13.1051 9.99902 12C9.99902 10.8948 10.8949 9.9991 12 9.99902ZM15.2041 8.07715C14.8068 8.07715 14.4844 8.3996 14.4844 8.79688C14.4846 9.19397 14.807 9.51562 15.2041 9.51562C15.6011 9.51541 15.9226 9.19384 15.9229 8.79688C15.9229 8.39973 15.6012 8.07736 15.2041 8.07715Z" fill="white"/>
</svg>
