<svg width="76" height="76" viewBox="0 0 76 76" fill="none" xmlns="http://www.w3.org/2000/svg">
<path d="M13.9701 11.28H31.5801V13.89L24.5201 17.49C23.3801 18.07 22.6701 19.23 22.6701 20.52V21.16C22.6701 22.05 23.4001 22.78 24.2901 22.78H50.4001C51.2901 22.78 52.0201 22.05 52.0201 21.16V20.52C52.0201 19.24 51.3101 18.08 50.1701 17.49L43.1201 13.89V11.28H67.2201C68.6801 11.28 69.8601 10.09 69.8601 8.64C69.8601 7.19 68.6701 6 67.2201 6H13.9701C12.5101 6 11.3301 7.19 11.3301 8.64C11.3301 10.09 12.5101 11.28 13.9701 11.28ZM33.0401 13.6V11.28H41.6301V13.6H33.0401ZM50.5401 20.51V21.15C50.5401 21.24 50.4701 21.3 50.3901 21.3H24.2801C24.2001 21.3 24.1301 21.23 24.1301 21.15V20.51C24.1301 19.78 24.5301 19.12 25.1901 18.79L32.4901 15.07H42.2001L49.4901 18.79C50.1301 19.12 50.5401 19.78 50.5401 20.51ZM13.9701 7.46H67.2001C67.8501 7.46 68.3801 7.99 68.3801 8.64C68.3801 9.29 67.8501 9.82 67.2001 9.82H13.9701C13.3201 9.82 12.7901 9.29 12.7901 8.64C12.7901 7.99 13.3201 7.46 13.9701 7.46Z" fill="#59ACF3"/>
<path d="M56.8203 53.3198V57.0498C56.8203 57.4498 57.1503 57.7798 57.5503 57.7798C57.9503 57.7798 58.2803 57.4498 58.2803 57.0498V53.3198C58.2803 52.9198 57.9503 52.5898 57.5503 52.5898C57.1503 52.5898 56.8203 52.9198 56.8203 53.3198Z" fill="#59ACF3"/>
<path d="M44.73 47.51H46.71C47.11 47.51 47.44 47.18 47.44 46.78C47.44 46.38 47.11 46.05 46.71 46.05H44.73C44.33 46.05 44 46.38 44 46.78C44 47.18 44.33 47.51 44.73 47.51Z" fill="#59ACF3"/>
<path d="M30.8395 59.13H25.1595C24.8795 59.13 24.6495 58.9 24.6495 58.62V48.0201C24.6495 47.7401 24.8795 47.51 25.1595 47.51H34.4995C34.8995 47.51 35.2295 47.18 35.2295 46.78C35.2295 46.38 34.8995 46.05 34.4995 46.05H25.1595C24.0695 46.05 23.1895 46.9301 23.1895 48.0201V58.63C23.1895 59.72 24.0695 60.6 25.1595 60.6H30.8395C31.2395 60.6 31.5695 60.27 31.5695 59.87C31.5695 59.47 31.2395 59.13 30.8395 59.13Z" fill="#59ACF3"/>
<path d="M28.1792 33.1699C26.3992 33.1699 24.9492 34.6199 24.9492 36.3999C24.9492 38.1699 26.3992 39.6199 28.1792 39.6199C29.9492 39.6199 31.3992 38.1799 31.3992 36.3999C31.3892 34.6099 29.9492 33.1699 28.1792 33.1699ZM28.1792 38.1499C27.2092 38.1499 26.4092 37.3599 26.4092 36.3899C26.4092 35.6799 26.8392 35.0699 27.4492 34.7899V35.4999C27.4492 35.8999 27.7792 36.2299 28.1792 36.2299C28.5792 36.2299 28.9092 35.8999 28.9092 35.4999V34.7899C29.5092 35.0699 29.9292 35.6799 29.9292 36.3899C29.9292 37.3599 29.1392 38.1499 28.1792 38.1499Z" fill="#59ACF3"/>
<path d="M37.9292 33.1699C36.1492 33.1699 34.6992 34.6199 34.6992 36.3999C34.6992 38.1699 36.1492 39.6199 37.9292 39.6199C39.6992 39.6199 41.1492 38.1799 41.1492 36.3999C41.1392 34.6099 39.6992 33.1699 37.9292 33.1699ZM37.9292 38.1499C36.9592 38.1499 36.1592 37.3599 36.1592 36.3899C36.1592 35.6799 36.5892 35.0699 37.1892 34.7899V35.4999C37.1892 35.8999 37.5192 36.2299 37.9192 36.2299C38.3192 36.2299 38.6492 35.8999 38.6492 35.4999V34.7899C39.2492 35.0699 39.6692 35.6799 39.6692 36.3899C39.6792 37.3599 38.8892 38.1499 37.9292 38.1499Z" fill="#59ACF3"/>
<path d="M47.6692 33.1699C45.8992 33.1699 44.4492 34.6199 44.4492 36.3999C44.4492 38.1699 45.8892 39.6199 47.6692 39.6199C49.4492 39.6199 50.8992 38.1799 50.8992 36.3999C50.8992 34.6099 49.4492 33.1699 47.6692 33.1699ZM47.6692 38.1499C46.6992 38.1499 45.9192 37.3599 45.9192 36.3899C45.9192 35.4199 46.7092 34.6199 47.6692 34.6199C48.3792 34.6199 48.9892 35.0499 49.2692 35.6499H48.5592C48.1592 35.6499 47.8292 35.9799 47.8292 36.3799C47.8292 36.7799 48.1592 37.1099 48.5592 37.1099H49.2692C48.9892 37.7299 48.3792 38.1499 47.6692 38.1499Z" fill="#59ACF3"/>
<path d="M9.94973 41.2701H15.0697C15.4697 41.2701 15.7997 40.9401 15.7997 40.5401C15.7997 40.1401 15.4697 39.8101 15.0697 39.8101H9.94973C9.54973 39.8101 9.21973 40.1401 9.21973 40.5401C9.21973 40.9401 9.53973 41.2701 9.94973 41.2701Z" fill="#59ACF3"/>
<path d="M9.94973 46.96H15.0697C15.4697 46.96 15.7997 46.63 15.7997 46.23C15.7997 45.83 15.4697 45.5 15.0697 45.5H9.94973C9.54973 45.5 9.21973 45.83 9.21973 46.23C9.21973 46.63 9.53973 46.96 9.94973 46.96Z" fill="#59ACF3"/>
<path d="M9.94973 52.66H15.0697C15.4697 52.66 15.7997 52.33 15.7997 51.93C15.7997 51.53 15.4697 51.2 15.0697 51.2H9.94973C9.54973 51.2 9.21973 51.53 9.21973 51.93C9.21973 52.33 9.53973 52.66 9.94973 52.66Z" fill="#59ACF3"/>
<path d="M9.94973 58.3499H15.0697C15.4697 58.3499 15.7997 58.0199 15.7997 57.6199C15.7997 57.2199 15.4697 56.8899 15.0697 56.8899H9.94973C9.54973 56.8899 9.21973 57.2199 9.21973 57.6199C9.21973 58.0199 9.53973 58.3499 9.94973 58.3499Z" fill="#59ACF3"/>
<path d="M9.94973 64.0498H15.0697C15.4697 64.0498 15.7997 63.7198 15.7997 63.3198C15.7997 62.9198 15.4697 62.5898 15.0697 62.5898H9.94973C9.54973 62.5898 9.21973 62.9198 9.21973 63.3198C9.21973 63.7198 9.53973 64.0498 9.94973 64.0498Z" fill="#59ACF3"/>
<path d="M67.48 33.97H58.28V32.66C58.28 31.36 57.23 30.3 55.93 30.3H48.02V28.52C48.02 28.12 47.69 27.79 47.29 27.79C46.89 27.79 46.56 28.12 46.56 28.52V30.3H29.29V28.52C29.29 28.12 28.96 27.79 28.56 27.79C28.16 27.79 27.83 28.12 27.83 28.52V30.3H19.9C18.6 30.3 17.55 31.36 17.55 32.66V33.97H8.36C7.06 33.97 6 35.03 6 36.33V69.16C6 69.56 6.33 69.89 6.73 69.89H18.28C18.29 69.89 18.29 69.89 18.3 69.89H57.55C57.56 69.89 57.56 69.89 57.57 69.89H69.12C69.52 69.89 69.85 69.56 69.85 69.16V36.33C69.84 35.03 68.78 33.97 67.48 33.97ZM17.55 68.42H7.46V36.32C7.46 35.83 7.86 35.43 8.35 35.43H17.54V68.42H17.55ZM68.38 68.42H58.29V67.01C58.29 66.61 57.96 66.28 57.56 66.28C57.16 66.28 56.83 66.61 56.83 67.01V68.41H19.01V42.48H52.7C53.1 42.48 53.43 42.15 53.43 41.75C53.43 41.35 53.1 41.02 52.7 41.02H19.01V32.66C19.01 32.17 19.41 31.76 19.9 31.76H28.55H28.56H28.57H47.28H47.29H47.3H55.93C56.42 31.76 56.82 32.16 56.82 32.66V38.26C56.82 38.66 57.15 38.99 57.55 38.99C57.95 38.99 58.28 38.66 58.28 38.26V35.43H67.48C67.97 35.43 68.37 35.83 68.37 36.32V68.42H68.38Z" fill="#59ACF3"/>
<path d="M65.8896 39.8101H63.5796C63.1796 39.8101 62.8496 40.1401 62.8496 40.5401C62.8496 40.9401 63.1796 41.2701 63.5796 41.2701H65.8896C66.2896 41.2701 66.6196 40.9401 66.6196 40.5401C66.6196 40.1401 66.2996 39.8101 65.8896 39.8101Z" fill="#59ACF3"/>
<path d="M65.8896 45.5H63.5796C63.1796 45.5 62.8496 45.83 62.8496 46.23C62.8496 46.63 63.1796 46.96 63.5796 46.96H65.8896C66.2896 46.96 66.6196 46.63 66.6196 46.23C66.6196 45.83 66.2996 45.5 65.8896 45.5Z" fill="#59ACF3"/>
<path d="M65.89 51.2H60.77C60.37 51.2 60.04 51.53 60.04 51.93C60.04 52.33 60.37 52.66 60.77 52.66H65.89C66.29 52.66 66.62 52.33 66.62 51.93C66.62 51.53 66.3 51.2 65.89 51.2Z" fill="#59ACF3"/>
<path d="M65.89 56.8899H60.77C60.37 56.8899 60.04 57.2199 60.04 57.6199C60.04 58.0199 60.37 58.3499 60.77 58.3499H65.89C66.29 58.3499 66.62 58.0199 66.62 57.6199C66.62 57.2199 66.3 56.8899 65.89 56.8899Z" fill="#59ACF3"/>
<path d="M65.89 62.5898H60.77C60.37 62.5898 60.04 62.9198 60.04 63.3198C60.04 63.7198 60.37 64.0498 60.77 64.0498H65.89C66.29 64.0498 66.62 63.7198 66.62 63.3198C66.62 62.9198 66.3 62.5898 65.89 62.5898Z" fill="#59ACF3"/>
<path d="M55.5405 53.3298C56.4405 52.4798 56.9705 51.3298 57.0005 50.0798C57.0105 49.6398 56.9505 49.2198 56.8505 48.7998L61.5305 44.4498C61.9705 44.0398 62.2305 43.4798 62.2505 42.8898C62.2805 42.2898 62.0605 41.7098 61.6505 41.2698C61.2405 40.8298 60.6805 40.5698 60.0805 40.5498C59.4705 40.5198 58.9005 40.7398 58.4605 41.1498L53.7405 45.5298C53.4005 45.4298 53.0605 45.3598 52.7005 45.3298C51.3705 45.2398 50.0005 45.7098 49.0005 46.6098C46.1905 49.1298 41.7905 51.8798 36.8005 50.7298C36.3305 50.6198 35.8505 50.7798 35.5305 51.1398C35.2105 51.4998 35.1205 52.0098 35.3005 52.4498C37.8605 59.1098 42.3005 63.9098 48.5205 66.7298C48.6905 66.8098 48.8705 66.8398 49.0505 66.8398C49.3305 66.8398 49.6005 66.7498 49.8305 66.5798C50.2105 66.2898 50.4105 65.8198 50.3305 65.3398C49.5505 60.1898 52.7405 55.9698 55.5405 53.3298ZM59.4705 42.2198C59.6205 42.0798 59.8205 41.9998 60.0405 42.0098C60.2505 42.0198 60.4505 42.1098 60.5905 42.2598C60.7305 42.4098 60.8105 42.6098 60.8005 42.8298C60.7905 43.0398 60.7005 43.2298 60.5505 43.3798L56.2405 47.3798C56.1305 47.2098 56.0205 47.0298 55.8805 46.8798C55.6705 46.6298 55.4205 46.4198 55.1705 46.2198L59.4705 42.2198ZM48.8605 65.2698C48.1505 64.9398 47.4705 64.5798 46.8105 64.1898C46.6805 61.8098 48.3905 59.7998 48.4005 59.7698C48.6605 59.4698 48.6305 58.9998 48.3305 58.7398C48.0305 58.4798 47.5705 58.4998 47.3005 58.8098C47.2205 58.8998 45.6205 60.7598 45.3605 63.2498C44.3705 62.5598 43.4505 61.7998 42.5805 60.9698C43.9305 58.1998 46.6305 56.7498 46.6505 56.7298C47.0105 56.5398 47.1405 56.0998 46.9605 55.7398C46.7705 55.3798 46.3305 55.2498 45.9705 55.4298C45.8405 55.4998 43.1005 56.9598 41.4905 59.8798C40.4605 58.7498 39.5505 57.5098 38.7405 56.1598C41.2205 56.0698 43.1805 54.6398 43.2805 54.5698C43.6005 54.3298 43.6705 53.8698 43.4205 53.5498C43.1805 53.2298 42.7205 53.1598 42.4005 53.3998C42.3805 53.4198 40.2505 54.9498 37.9005 54.6598C37.5005 53.8798 37.1205 53.0698 36.7905 52.2298C42.2705 53.3498 46.9805 50.4098 49.9905 47.7098C50.7005 47.0698 51.6605 46.7398 52.6205 46.7998C53.4805 46.8598 54.2405 47.2198 54.7705 47.8398C55.3005 48.4498 55.5705 49.2398 55.5505 50.0398C55.5205 50.8898 55.1705 51.6798 54.5505 52.2698C51.5305 55.0898 48.1305 59.6298 48.8605 65.2698Z" fill="#59ACF3"/>
<path d="M35.6198 59.4099C34.2198 59.4099 33.0898 60.5499 33.0898 61.9499C33.0898 63.3499 34.2298 64.4799 35.6198 64.4799C37.0198 64.4799 38.1598 63.3399 38.1598 61.9499C38.1598 60.5499 37.0198 59.4099 35.6198 59.4099ZM35.6198 63.0199C35.0298 63.0199 34.5498 62.5399 34.5498 61.9499C34.5498 61.3599 35.0298 60.8699 35.6198 60.8699C36.2098 60.8699 36.6998 61.3499 36.6998 61.9499C36.6898 62.5399 36.2098 63.0199 35.6198 63.0199Z" fill="#59ACF3"/>
<path d="M39.85 49.45C41.56 49.45 42.96 48.06 42.96 46.35C42.96 44.64 41.57 43.24 39.85 43.24C38.14 43.24 36.75 44.63 36.75 46.35C36.75 48.06 38.14 49.45 39.85 49.45ZM39.85 44.71C40.76 44.71 41.49 45.45 41.49 46.35C41.49 47.25 40.75 47.98 39.85 47.98C38.95 47.98 38.22 47.25 38.22 46.35C38.21 45.45 38.95 44.71 39.85 44.71Z" fill="#59ACF3"/>
<path d="M55.9906 58.8398C54.2806 58.8398 52.8906 60.2298 52.8906 61.9498C52.8906 63.6598 54.2806 65.0498 55.9906 65.0498C57.7006 65.0498 59.1006 63.6598 59.1006 61.9498C59.1006 60.2398 57.7006 58.8398 55.9906 58.8398ZM55.9906 63.5798C55.0906 63.5798 54.3606 62.8498 54.3606 61.9498C54.3606 61.0398 55.0906 60.3098 55.9906 60.3098C56.9006 60.3098 57.6306 61.0498 57.6306 61.9498C57.6306 62.8498 56.9006 63.5798 55.9906 63.5798Z" fill="#59ACF3"/>
</svg>
