<svg width="240" height="64" viewBox="0 0 240 64" fill="none" xmlns="http://www.w3.org/2000/svg">
<rect width="240" height="64" fill="white"/>
<path d="M31.5408 10.8721L33.2819 6.57129L35.0844 10.8721L39.2883 12.5933L35.053 14.4029L33.3119 18.6154L31.5408 14.2837L27.2441 12.5933L31.5408 10.8721Z" fill="#FFD659"/>
<path d="M57.4813 23.8428L59.2223 19.542L61.0248 23.8428L65.2287 25.5641L60.9934 27.3736L59.2523 31.5861L57.4813 27.2544L53.1846 25.5641L57.4813 23.8428Z" fill="#FFD659"/>
<path d="M32.1477 22.8778C33.9332 23.6067 36.7687 25.8066 36.7687 28.6076H10.8453L8.55859 28.6115C8.55859 27.2777 9.54378 24.1734 12.5851 23.0896C13.7151 22.687 14.746 22.6107 15.5006 22.6393C15.7483 21.836 16.1199 21.1148 16.6154 20.487C16.9565 20.0539 17.2766 19.7658 17.4843 19.5979C17.9912 19.1896 18.8411 18.6706 19.9959 18.5065C21.6575 18.2699 22.8942 18.9263 23.3001 19.1419C24.0833 19.5577 24.5703 20.0548 24.8623 20.353L24.8665 20.3573C25.4725 20.9755 25.9717 21.691 26.3586 22.4924C26.8807 22.3913 27.4143 22.3149 27.9516 22.2653C28.0507 22.2558 28.3099 22.2329 28.5309 22.2214C28.6052 22.2195 30.3469 22.1432 32.1477 22.8778Z" fill="#59ACF3"/>
<path d="M38.7489 27.8802H39.8545C39.8545 27.8802 41.363 28.1905 41.3184 29.3492C41.2752 30.5079 40.3467 30.8511 39.5129 31.1487L37.0508 54.4138C37.0508 54.4138 36.9783 56.3121 35.3471 57.3872C33.7172 58.4623 31.6385 58.3433 31.6385 58.3433L12.4835 58.3471C12.4835 58.3471 11.0126 58.2128 10.0088 57.4315C9.00497 56.6502 8.57555 55.5105 8.50305 55.0217C8.43055 54.5329 5.82339 31.1487 5.82339 31.1487C5.82339 31.1487 4.08203 30.5826 4.08203 29.4682C4.08203 28.3539 4.78889 27.8802 5.51109 27.8802H7.10885H9.61841H36.2393H36.3021H38.7489Z" fill="#1C2B36"/>
<path d="M40.0684 55.9093C39.3682 56.0065 38.7424 55.7608 38.2402 55.4728C37.8658 55.258 37.4899 54.978 37.1318 54.6974L36.7803 54.4181L36.458 54.1476C36.1647 53.8897 35.9593 53.6769 35.8506 53.5763C35.7707 53.5024 35.7408 53.4839 35.7314 53.4786C35.7283 53.4768 35.7255 53.4754 35.7207 53.4738C35.7151 53.4719 35.701 53.4674 35.6738 53.463L35.6729 53.463C35.5621 53.4449 35.5208 53.4558 35.2197 53.5743C34.8866 53.7055 34.3843 53.8885 33.6709 53.7335L33.6699 53.7335C33.3219 53.6576 32.9395 53.5057 32.6104 53.2814C32.2987 53.0689 31.9108 52.7034 31.7871 52.1554C31.7299 51.9027 31.7236 51.6682 31.7236 51.5167L31.7236 51.4816C31.724 51.467 31.7246 51.4479 31.7256 51.4249C31.7276 51.3786 31.7313 51.315 31.7383 51.2404C31.7519 51.095 31.7801 50.8867 31.8398 50.6661C31.8829 50.5073 31.9715 50.3563 31.998 50.3097C32.0476 50.2227 32.1116 50.1177 32.1855 50.0011C32.3345 49.766 32.5441 49.4499 32.8057 49.0636C33.3299 48.2894 34.0798 47.2103 35.0137 45.8849C36.756 43.4121 39.1485 40.0716 41.9297 36.2277C41.4554 35.825 41.1152 35.2754 40.9932 34.6486L40.9609 34.4357L40.9414 34.1515C40.9124 32.7972 41.8043 32.0387 42.002 31.8917L42.001 31.8907C42.003 31.8892 42.0058 31.8884 42.0078 31.8868C42.0093 31.8857 42.0103 31.884 42.0117 31.8829L42.0127 31.8839C42.5192 31.5105 43.1193 31.3854 43.7217 31.3439C44.0388 24.3135 44.3493 17.4308 44.667 10.3878L44.667 10.3781L45.5928 10.4288L44.667 10.3771L44.668 10.3761L44.668 10.3702C44.6682 10.3672 44.6687 10.3635 44.6689 10.3595C44.6695 10.3514 44.6699 10.3412 44.6709 10.3292C44.6729 10.3046 44.6762 10.2712 44.6807 10.2316C44.6896 10.1526 44.7042 10.0445 44.7285 9.91711C44.7765 9.66643 44.8658 9.31848 45.0322 8.9591C45.3713 8.22709 46.1036 7.34109 47.4746 7.34094C48.4463 7.34094 49.3152 7.52466 49.9385 8.13C50.5519 8.72585 50.7387 9.55152 50.8086 10.3448C50.876 11.1098 51.1017 16.6006 51.3096 21.8478C51.414 24.483 51.5146 27.0727 51.5889 29.0031C51.626 29.9682 51.6564 30.769 51.6777 31.3282C51.6786 31.3498 51.6799 31.3709 51.6807 31.3917C52.2114 31.486 52.6983 31.6679 53.1084 31.9552C53.7213 32.3846 54.1167 33.014 54.2168 33.7628L54.2324 33.9142C54.288 34.613 54.1207 35.2661 53.7168 35.8038C53.5679 36.0021 53.3949 36.1749 53.2031 36.3234C56.4603 41.0135 59.7216 45.7075 62.9824 50.4015L63.0234 50.4601L63.1787 50.4601L63.2188 51.3448C63.234 51.6839 63.1916 52.0646 63.0898 52.3536C62.916 52.8489 62.5444 53.1748 62.2324 53.3693C61.9127 53.5686 61.5511 53.6966 61.2295 53.7462L61.2266 53.7472C60.207 53.9014 59.393 53.3055 58.918 52.9034C58.9046 53.0316 58.8858 53.1665 58.8525 53.3009C58.7663 53.6492 58.5839 54.0533 58.1943 54.3624C57.7068 54.7498 57.1329 54.8005 56.7422 54.7853C56.3425 54.7696 55.9769 54.6768 55.7969 54.632C55.0545 54.4495 54.6133 54.117 54.3281 53.9015C54.2512 53.8434 54.2038 53.8075 54.1719 53.7853C54.1373 53.8218 54.0867 53.8811 54.001 53.9962C53.8313 54.224 53.402 54.8805 52.5645 55.0021L52.5635 55.0021C52.0315 55.0786 51.5865 54.9087 51.2578 54.7081C50.9477 54.5189 50.6824 54.2653 50.501 54.0919C50.3972 53.9927 50.3168 53.9169 50.251 53.8575C50.2237 53.9249 50.1905 54.0081 50.1494 54.1154C50.0036 54.4964 49.6891 55.409 48.749 55.7433L48.749 55.7423C48.4829 55.8371 48.2195 55.8662 47.9512 55.8273C47.7154 55.793 47.5107 55.7089 47.3828 55.6564C47.1203 55.5486 46.8644 55.4319 46.3877 55.3507L46.3887 55.3497C45.7893 55.248 45.4353 55.3057 45.0508 55.3575C44.6074 55.4173 44.0575 55.4813 43.3574 55.1437L43.3584 55.1427C42.7605 54.855 42.4444 54.4648 42.251 54.2072C42.1858 54.2848 42.1036 54.3892 41.9912 54.5392C41.6962 54.9328 41.111 55.7649 40.0684 55.9093Z" fill="#1C2B36" stroke="white" stroke-width="1.85294"/>
<path d="M16.9566 44.4623L19.2334 38.8381L21.5905 44.4623L27.0879 46.7131L21.5494 49.0794L19.2726 54.5881L16.9566 48.9235L11.3379 46.7131L16.9566 44.4623Z" fill="#FFD659"/>
<path d="M229.746 39V24.284L229.408 21.892H238.3V23.816H232.086V29.276H237.52L237 31.2H232.086V37.076H238.586L238.066 39H229.746Z" fill="#1C2B36"/>
<path d="M224.207 21.892V37.05L224.363 39H223.141L213.391 28.08L212.273 26.39V37.05L212.533 39H210.141V24.284L209.803 21.892H211.389L220.931 32.708L222.075 34.398V24.284L221.737 21.892H224.207Z" fill="#1C2B36"/>
<path d="M204.537 21.892V37.05L204.797 39H202.197V24.284L201.859 21.892H204.537Z" fill="#1C2B36"/>
<path d="M196.402 21.892V37.05L196.662 39H194.062V31.2H184.91V37.05L185.17 39H182.57V24.284L182.232 21.892H184.91V29.12H194.062V24.284L193.724 21.892H196.402Z" fill="#1C2B36"/>
<path d="M168.57 37.414C168.596 37.388 168.83 35.178 168.83 35.178C168.83 35.178 170.728 37.466 173.302 37.466C174.784 37.466 176.084 36.452 176.084 34.632C176.084 31.2 168.622 31.07 168.622 26.468C168.622 23.79 170.702 21.58 173.64 21.58C175.694 21.58 177.15 22.308 177.93 22.802L177.254 24.7C177.202 24.57 175.538 23.426 173.562 23.426C172.34 23.426 171.066 24.258 171.066 25.766C171.066 29.51 178.398 29.198 178.398 34.294C178.398 37.232 176.396 39.338 173.224 39.338C170.156 39.338 168.57 37.414 168.57 37.414Z" fill="#1C2B36"/>
<path d="M167.889 40.95L167.109 42.51H155.513V40.95H167.889Z" fill="#1C2B36"/>
<path d="M152.834 21.892V37.05L152.99 39H151.768L142.018 28.08L140.9 26.39V37.05L141.16 39H138.768V24.284L138.43 21.892H140.016L149.558 32.708L150.702 34.398V24.284L150.364 21.892H152.834Z" fill="#1C2B36"/>
<path d="M121.106 39L127.71 21.892L129.296 21.554L134.6 36.14L135.9 39H133.066L131.428 34.528H125.058L123.368 39H121.106ZM128.048 26.598L125.76 32.552H130.778L128.62 26.572L128.36 25.558L128.048 26.598Z" fill="#1C2B36"/>
<path d="M111.07 39V24.284L110.732 21.892H119.624V23.816H113.41V29.276H118.844L118.324 31.2H113.41V37.076H119.91L119.39 39H111.07Z" fill="#1C2B36"/>
<path d="M98.9591 39V24.284L98.6211 21.892H101.299V37.024H108.007L107.487 39H98.9591Z" fill="#1C2B36"/>
<path d="M94.8979 23.712L93.7019 25.48C92.4799 24.206 91.0499 23.504 89.3339 23.504C85.9799 23.504 83.6659 26.936 83.6659 30.55C83.6659 34.736 86.6039 37.336 89.5159 37.336C91.8819 37.336 94.5599 35.152 94.5599 35.152L95.1319 37.076C95.1319 37.076 92.6359 39.338 89.0999 39.338C85.0699 39.338 81.1699 36.374 81.1699 30.81C81.1699 25.48 84.8619 21.58 89.4379 21.58C91.5959 21.58 93.3639 22.308 94.8979 23.712Z" fill="#1C2B36"/>
</svg>
