<svg width="64" height="64" viewBox="0 0 64 64" fill="none" xmlns="http://www.w3.org/2000/svg">
<g clip-path="url(#clip0_193_7955)">
<path d="M28.8608 10.3L30.6008 6L32.4008 10.3L36.6008 12.02L32.3608 13.83L30.6208 18.04L28.8508 13.71L24.5508 12.02L28.8508 10.3H28.8608Z" fill="#1C2B36"/>
<path d="M54.8002 23.27L56.5402 18.97L58.3402 23.27L62.5402 24.99L58.3002 26.8L56.5602 31.01L54.7902 26.68L50.4902 24.99L54.7902 23.27H54.8002Z" fill="#1C2B36"/>
<path d="M10.6701 24.6701C12.0701 24.1701 13.2401 24.3801 13.4601 24.4301L14.6401 24.6901L14.8301 23.4901C14.9701 22.6401 15.2701 21.9101 15.7301 21.3201C15.9501 21.0401 16.1601 20.8601 16.2301 20.8001C16.4601 20.6101 16.9601 20.2801 17.6301 20.1901C18.5601 20.0601 19.2701 20.4401 19.5401 20.5801C20.0101 20.8301 20.3101 21.1301 20.5401 21.3701C21.1401 21.9801 21.6001 22.7401 21.9001 23.6101L22.2401 24.6001L23.2601 24.3401C23.9701 24.1601 24.7201 24.0301 25.4701 23.9601C25.5301 23.9601 25.7601 23.9301 25.9401 23.9201C25.9501 23.9201 27.2701 23.8701 28.5901 24.4101C29.7001 24.8601 31.7901 26.3901 31.7901 28.0201H34.0801C34.0801 25.2201 31.2401 23.0201 29.4601 22.2901C27.6601 21.5601 25.9201 21.6301 25.8401 21.6301C25.6201 21.6401 25.3601 21.6601 25.2601 21.6701C24.7201 21.7201 24.1901 21.8001 23.6701 21.9001C23.2801 21.1001 22.7801 20.3801 22.1801 19.7601C21.8901 19.4601 21.4001 18.9601 20.6101 18.5401C20.2001 18.3201 18.9701 17.6701 17.3101 17.9001C16.1601 18.0601 15.3101 18.5801 14.8001 18.9901C14.5901 19.1601 14.2701 19.4501 13.9301 19.8801C13.4301 20.5101 13.0601 21.2301 12.8201 22.0301C12.0701 22.0001 11.0301 22.0801 9.90012 22.4801C6.86012 23.5601 5.87012 26.6701 5.87012 28.0001H8.16012C8.16012 27.5901 8.60012 25.3701 10.6701 24.6401V24.6701Z" fill="#1C2B36"/>
<path d="M34.1004 53.85L33.7804 53.58C33.4904 53.32 33.2804 53.11 33.1704 53.01C33.0904 52.94 33.0604 52.92 33.0504 52.91C33.0504 52.91 33.0504 52.91 33.0404 52.91C33.0404 52.91 33.0204 52.91 32.9904 52.9C32.8804 52.88 32.8404 52.9 32.5404 53.01C32.2104 53.14 31.7004 53.32 30.9904 53.17C30.6404 53.09 30.2604 52.94 29.9304 52.72C29.6204 52.51 29.2304 52.14 29.1104 51.59C29.0504 51.34 29.0504 51.1 29.0504 50.95V50.91C29.0504 50.91 29.0504 50.88 29.0504 50.85C29.0504 50.8 29.0504 50.74 29.0604 50.67C29.0704 50.52 29.1004 50.32 29.1604 50.1C29.2004 49.94 29.2904 49.79 29.3204 49.74C29.3704 49.65 29.4304 49.55 29.5104 49.43C29.6604 49.2 29.8704 48.88 30.1304 48.49C30.6504 47.72 31.4004 46.64 32.3404 45.31C33.3004 43.94 34.4704 42.3 35.7904 40.46L36.8404 30.57C37.6704 30.27 38.6004 29.93 38.6504 28.77C38.6904 27.62 37.2004 27.3 37.1904 27.3H2.83039C2.11039 27.3 1.40039 27.77 1.40039 28.89C1.40039 30 3.12039 30.56 3.14039 30.57C3.14039 30.57 5.75039 53.94 5.82039 54.44C5.89039 54.93 6.32039 56.07 7.33039 56.85C8.33039 57.63 9.79039 57.76 9.80039 57.77H28.9604C28.9604 57.77 31.0504 57.88 32.6704 56.81C33.9904 55.94 34.2904 54.54 34.3504 54.04L34.1004 53.84V53.85ZM18.8704 48.51L16.5904 54.02L14.2704 48.35L8.65039 46.14L14.2704 43.89L16.5504 38.27L18.9104 43.89L24.4104 46.14L18.8704 48.51Z" fill="#1C2B36"/>
<path d="M59.9806 51.6C60.1506 51.49 60.5206 51.1328 60.5206 50.38L60.4906 49.98L50.1706 35.12L50.8706 34.58C51.0006 34.48 51.1206 34.37 51.2106 34.24C51.4706 33.89 51.5806 33.47 51.5306 32.98V32.85C51.4706 32.4 51.2206 32 50.8106 31.71C50.5306 31.51 50.1706 31.37 49.7506 31.3L49.0206 31.17L48.8906 28.03L48.6106 20.88C48.3306 13.88 48.1606 10.02 48.1106 9.42001C48.0406 8.62001 47.8606 8.12001 47.5206 7.79001C47.1506 7.43001 46.5706 7.26001 45.7006 7.26001C44.9706 7.26001 44.4306 7.62001 44.1006 8.34001C43.9746 8.61153 43.9143 8.88305 43.8743 9.06339L43.8706 9.08001C43.8506 9.18001 43.8306 9.26001 43.8306 9.32001L43.8106 9.65001L42.8406 31.2L42.0106 31.26C41.4606 31.3 41.0906 31.41 40.8006 31.61L40.7306 31.67C40.5606 31.82 40.0706 32.31 40.0906 33.13L40.1306 33.51C40.2006 33.87 40.4206 34.24 40.7506 34.52L41.4106 35.07L40.9106 35.77C38.1306 39.62 35.7406 42.95 34.0006 45.42C33.0706 46.75 32.3206 47.82 31.8006 48.59C31.5506 48.97 31.3506 49.28 31.2006 49.51C31.1406 49.61 31.0806 49.7 31.0406 49.78C30.9906 49.87 30.9706 49.91 30.9706 49.92C30.9306 50.08 30.9106 50.23 30.8906 50.34V50.48C30.8906 50.65 30.8906 50.81 30.9306 50.97C30.9906 51.23 31.2006 51.42 31.3706 51.54C31.5806 51.68 31.8406 51.79 32.1006 51.85C32.5306 51.94 32.8106 51.85 33.1106 51.73L33.1355 51.7202C33.4529 51.595 33.69 51.5015 34.0506 51.56L34.3206 51.63L34.4406 51.69C34.4606 51.7 34.5306 51.74 34.7106 51.9L34.8606 52.04C34.9706 52.14 35.1206 52.29 35.3106 52.46L35.9506 52.98C36.2206 53.2 36.5906 53.48 36.9406 53.68C37.4106 53.95 37.8106 54.05 38.1806 54C38.7966 53.9205 39.1855 53.3969 39.4455 53.0469L39.4506 53.04C39.6106 52.82 39.7106 52.71 39.7806 52.62L40.5306 51.72L41.2306 52.66C41.4006 52.88 41.6006 53.13 42.0006 53.32C42.4706 53.54 42.8106 53.5 43.1706 53.45L43.179 53.4489C43.6361 53.3893 44.0849 53.3307 44.7906 53.45C45.3306 53.54 45.6506 53.67 45.9106 53.78C46.0806 53.85 46.2106 53.9 46.3306 53.92C46.4406 53.94 46.5506 53.92 46.6806 53.88C47.1506 53.71 47.3506 53.26 47.5106 52.84L48.1406 51.29L49.3906 52.43C49.5506 52.59 49.7706 52.8 49.9906 52.93C50.2306 53.08 50.4506 53.13 50.6806 53.1C51.0506 53.04 51.2806 52.77 51.4706 52.51C51.6306 52.3 51.7406 52.17 51.7406 52.17L52.2906 51.58L53.0706 52.13C53.3906 52.37 53.7106 52.61 54.2706 52.75C54.4406 52.8 54.7306 52.87 55.0306 52.88C55.3806 52.89 55.6706 52.82 55.8706 52.66C56.0406 52.53 56.1506 52.34 56.2106 52.1C56.2306 52.01 56.2506 51.92 56.2506 51.83L56.4306 50.09L57.7606 51.22C58.1606 51.56 58.6806 51.93 59.3006 51.85H59.3306C59.5506 51.81 59.7806 51.72 59.9806 51.6Z" fill="#1C2B36"/>
</g>
<defs>
<clipPath id="clip0_193_7955">
<rect width="61.15" height="51.78" fill="white" transform="translate(1.40039 6)"/>
</clipPath>
</defs>
</svg>
