<svg width="104" height="76" viewBox="0 0 104 76" fill="none" xmlns="http://www.w3.org/2000/svg">
<path d="M56.125 51.3707C56.5426 51.3707 56.919 51.1207 57.0788 50.734C57.2361 50.3498 57.1484 49.9064 56.8546 49.6099C56.5581 49.316 56.1146 49.2284 55.7305 49.3857C55.3438 49.5455 55.0938 49.9219 55.0938 50.3395C55.0938 50.6128 55.202 50.8758 55.3954 51.0691C55.5887 51.2625 55.8517 51.3707 56.125 51.3707Z" fill="#59ACF3"/>
<path d="M46.8447 51.3707C47.2623 51.3707 47.6387 51.1207 47.7986 50.734C47.9558 50.3498 47.8682 49.9064 47.5743 49.6099C47.2778 49.316 46.8344 49.2284 46.4503 49.3857C46.0635 49.5455 45.8135 49.9219 45.8135 50.3395C45.8135 50.6128 45.9218 50.8758 46.1151 51.0691C46.3085 51.2625 46.5714 51.3707 46.8447 51.3707Z" fill="#59ACF3"/>
<path d="M66.4381 50.3395C66.4381 49.9219 66.1881 49.5455 65.8013 49.3857C65.4172 49.2284 64.9738 49.316 64.6773 49.6099C64.3834 49.9064 64.2958 50.3499 64.453 50.734C64.6129 51.1207 64.9893 51.3707 65.4069 51.3707C65.6802 51.3707 65.9432 51.2625 66.1365 51.0691C66.3299 50.8758 66.4381 50.6128 66.4381 50.3395Z" fill="#59ACF3"/>
<path d="M75.7184 50.3395C75.7184 49.9219 75.4683 49.5455 75.0816 49.3857C74.6975 49.2284 74.2541 49.316 73.9576 49.6099C73.6637 49.9064 73.5761 50.3499 73.7333 50.734C73.8932 51.1207 74.2696 51.3707 74.6872 51.3707C74.9605 51.3707 75.2234 51.2625 75.4168 51.0691C75.6102 50.8758 75.7184 50.6128 75.7184 50.3395Z" fill="#59ACF3"/>
<path d="M27.251 50.3396C27.251 50.7572 27.5011 51.1336 27.8878 51.2934C28.2719 51.4507 28.7153 51.363 29.0118 51.0691C29.3057 50.7727 29.3933 50.3292 29.2361 49.9451C29.0762 49.5584 28.6998 49.3083 28.2822 49.3083C27.7125 49.3083 27.251 49.7698 27.251 50.3396Z" fill="#59ACF3"/>
<path d="M36.5322 50.3398C36.5322 50.7574 36.7823 51.1338 37.169 51.2937C37.5532 51.4509 37.9966 51.3633 38.293 51.0694C38.5869 50.7729 38.6746 50.3295 38.5173 49.9454C38.3575 49.5587 37.9811 49.3086 37.5635 49.3086C36.9937 49.3086 36.5322 49.7701 36.5322 50.3398Z" fill="#59ACF3"/>
<path d="M42.3672 26.6211C42.3672 27.0387 42.6173 27.4151 43.004 27.5749C43.3881 27.7322 43.8315 27.6445 44.128 27.3506C44.4219 27.0542 44.5095 26.6107 44.3523 26.2266C44.1924 25.8399 43.8161 25.5898 43.3984 25.5898C42.8287 25.5898 42.3672 26.0513 42.3672 26.6211Z" fill="#59ACF3"/>
<path d="M36.79 26.6214C36.79 27.9955 34.7275 27.9955 34.7275 26.6214C34.7275 25.2473 36.79 25.2473 36.79 26.6214Z" fill="#59ACF3"/>
<path d="M52.7116 26.6208C52.7116 26.2031 52.4615 25.8268 52.0748 25.6669C51.6907 25.5096 51.2472 25.5973 50.9508 25.8912C50.6569 26.1877 50.5692 26.6311 50.7265 27.0152C50.8863 27.4019 51.2627 27.652 51.6804 27.652C51.9536 27.652 52.2166 27.5437 52.41 27.3504C52.6033 27.157 52.7116 26.8941 52.7116 26.6208Z" fill="#59ACF3"/>
<path d="M43.7506 34.8708C43.7506 34.4531 43.5006 34.0768 43.1138 33.9169C42.7297 33.7596 42.2863 33.8473 41.9898 34.1412C41.6959 34.4377 41.6083 34.8811 41.7655 35.2652C41.9254 35.6519 42.3018 35.902 42.7194 35.902C42.9927 35.902 43.2557 35.7937 43.449 35.6004C43.6424 35.407 43.7506 35.1441 43.7506 34.8708Z" fill="#59ACF3"/>
<path d="M53.0309 34.8708C53.0309 34.4531 52.7808 34.0768 52.3941 33.9169C52.01 33.7596 51.5666 33.8473 51.2701 34.1412C50.9762 34.4377 50.8886 34.8811 51.0458 35.2652C51.2057 35.6519 51.5821 35.902 51.9997 35.902C52.273 35.902 52.5359 35.7937 52.7293 35.6004C52.9227 35.407 53.0309 35.1441 53.0309 34.8708Z" fill="#59ACF3"/>
<path d="M61.9002 34.0463L61.6424 33.8916H61.2815C60.7762 33.8916 60.3456 34.2577 60.2631 34.7578C60.1832 35.258 60.4745 35.7401 60.9566 35.8999C61.4362 36.0623 61.9595 35.8484 62.1941 35.4024C62.4287 34.9538 62.305 34.4021 61.9002 34.0978L61.9002 34.0463Z" fill="#59ACF3"/>
<path d="M77.42 7.64683C77.0282 7.42254 76.5358 7.47668 76.2031 7.78605C75.8731 8.09283 75.7803 8.58007 75.9763 8.98742C76.7007 10.5549 77.072 12.2615 77.059 13.9888C77.059 20.6916 71.4904 26.1576 64.5814 26.1576C62.4957 26.1576 60.441 25.642 58.6003 24.6624C58.2084 24.4381 57.716 24.4922 57.3834 24.8016C57.0534 25.1084 56.9606 25.5956 57.1565 26.003C58.3424 28.5217 60.2244 30.6487 62.5834 32.1311C64.9423 33.6109 67.675 34.3843 70.4596 34.3559C78.5035 34.3559 84.9997 27.9623 84.9997 20.1768C84.9972 17.5961 84.2882 15.0671 82.9527 12.8576C81.6173 10.6507 79.7042 8.8482 77.42 7.64683ZM70.4592 32.2933C66.6694 32.3165 63.0706 30.6305 60.6624 27.7044C61.9385 28.0498 63.2585 28.2225 64.581 28.22C72.5728 28.22 79.1211 21.8264 79.1211 13.9894C79.116 13.0355 79.0103 12.0868 78.8118 11.1535C81.4233 13.4273 82.9264 16.7144 82.9367 20.1768C82.9367 26.8281 77.3682 32.2933 70.4592 32.2933Z" fill="#59ACF3"/>
<path d="M23.1775 46.7301H37.2022C39.4168 46.6734 41.2756 45.0389 41.6158 42.8501C41.9587 40.6613 40.6878 38.5396 38.5944 37.81C38.6279 37.6038 38.6459 37.4156 38.6459 37.2428C38.6588 35.6702 38.0478 34.1569 36.947 33.0354C35.8436 31.914 34.3406 31.2746 32.768 31.2617C30.9324 31.2695 29.2103 32.1512 28.1275 33.6336C27.648 33.4608 27.1427 33.3732 26.6322 33.3758C24.147 33.4041 22.1464 35.4279 22.1464 37.9132V38.0163C20.5995 38.3257 19.362 39.7178 19.0527 41.6256C18.8542 42.8889 19.2332 44.1753 20.0839 45.1318C20.8367 46.0831 21.9659 46.6656 23.1775 46.7301ZM21.1151 41.9865C21.2182 41.0584 21.7854 40.0271 22.8166 40.0271H23.1259C23.4869 40.1019 23.8633 39.9781 24.1082 39.6997C24.3531 39.4238 24.4305 39.0371 24.3119 38.6865C24.2371 38.4364 24.2036 38.1734 24.2087 37.913C24.2087 36.5673 25.2864 35.4665 26.6321 35.4381C27.0936 35.4432 27.5422 35.5876 27.9212 35.8506C28.1687 36.013 28.4754 36.062 28.7616 35.9821C29.0477 35.9047 29.2875 35.7062 29.4164 35.4381C30.0429 34.1542 31.3397 33.337 32.7679 33.3241C34.8844 33.3808 36.5602 35.1262 36.5318 37.2428C36.537 37.6269 36.4829 38.0085 36.3771 38.3771C36.2818 38.6813 36.3307 39.0139 36.5138 39.2743C36.6943 39.5373 36.9856 39.6997 37.3052 39.7178C38.6871 39.7461 39.7828 40.8882 39.7544 42.27C39.726 43.6519 38.584 44.7476 37.2021 44.7192H23.1774C22.5896 44.6547 22.0508 44.3582 21.6822 43.8942C21.2155 43.376 21.0068 42.6748 21.1151 41.9865Z" fill="#59ACF3"/>
<path d="M29.5197 29.9212L31.8399 22.7023C31.9791 22.2563 32.4045 21.9598 32.8712 21.9804H70.9747C71.6218 21.5009 72.2096 20.9466 72.7278 20.3305C72.2585 20.0598 71.7249 19.918 71.1809 19.918H32.8708C31.5379 19.9154 30.3546 20.7688 29.9318 22.032L26.8896 31.3127H27.3537C27.9931 30.7326 28.7252 30.2608 29.5192 29.9205L29.5197 29.9212Z" fill="#59ACF3"/>
<path d="M84.9999 55.9089V55.7542L78.1941 34.6143L76.2348 35.3877L82.5768 54.9813H21.4253L23.4362 48.794H22.8175C22.3251 48.7553 21.8404 48.6496 21.3738 48.4846L19.0535 55.7035V55.9097H19.002V65.1904C19.002 66.8997 20.3864 68.2841 22.0956 68.2841H81.9067C83.616 68.2841 85.0004 66.8997 85.0004 65.1904L84.9999 55.9089ZM82.9374 65.2932C82.9374 65.5665 82.8292 65.8295 82.6358 66.0228C82.4425 66.2162 82.1795 66.3245 81.9062 66.3245H22.0951C21.5253 66.3245 21.0639 65.863 21.0639 65.2932V57.0434H82.9374L82.9374 65.2932Z" fill="#59ACF3"/>
<path d="M45.9062 43.6364C46.3239 43.6364 46.7002 43.3863 46.8601 42.9996C47.0174 42.6155 46.9297 42.172 46.6358 41.8756C46.3393 41.5817 45.8959 41.494 45.5118 41.6513C45.1251 41.8111 44.875 42.1875 44.875 42.6052C44.875 42.8784 44.9833 43.1414 45.1766 43.3348C45.37 43.5281 45.6329 43.6364 45.9062 43.6364Z" fill="#59ACF3"/>
<path d="M53.5468 43.6364C53.9645 43.6364 54.3409 43.3863 54.5007 42.9996C54.658 42.6155 54.5703 42.172 54.2764 41.8756C53.9799 41.5817 53.5365 41.494 53.1524 41.6513C52.7657 41.8111 52.5156 42.1875 52.5156 42.6052C52.5156 42.8784 52.6239 43.1414 52.8173 43.3348C53.0106 43.5281 53.2735 43.6364 53.5468 43.6364Z" fill="#59ACF3"/>
<path d="M73.1403 42.6052C73.1403 42.1875 72.8902 41.8111 72.5035 41.6513C72.1194 41.494 71.6759 41.5817 71.3795 41.8756C71.0856 42.1721 70.9979 42.6155 71.1552 42.9996C71.315 43.3863 71.6914 43.6364 72.1091 43.6364C72.3823 43.6364 72.6453 43.5281 72.8387 43.3347C73.0321 43.1414 73.1403 42.8785 73.1403 42.6052Z" fill="#59ACF3"/>
<path d="M62.8281 43.6364C63.2457 43.6364 63.6221 43.3863 63.782 42.9996C63.9392 42.6155 63.8516 42.172 63.5577 41.8756C63.2612 41.5817 62.8178 41.494 62.4337 41.6513C62.0469 41.8111 61.7969 42.1875 61.7969 42.6052C61.7969 42.8784 61.9052 43.1414 62.0985 43.3348C62.2919 43.5281 62.5548 43.6364 62.8281 43.6364Z" fill="#59ACF3"/>
</svg>
