<svg width="24" height="24" viewBox="0 0 24 24" fill="none" xmlns="http://www.w3.org/2000/svg">
<path fill-rule="evenodd" clip-rule="evenodd" d="M3.18687 5.73114C6.57117 5.68129 9.65469 4.27925 12 2C14.3453 4.27925 17.4288 5.68129 20.8131 5.73114C20.936 6.52609 21 7.34274 21 8.17561C21 14.558 17.2434 19.9877 12 22C6.75664 19.9877 3 14.558 3 8.17561C3 7.34274 3.06397 6.52609 3.18687 5.73114ZM16.1705 10.2609C16.6098 9.78383 16.6098 9.0104 16.1705 8.53335C15.7312 8.05631 15.0188 8.05631 14.5795 8.53335L10.875 12.5558L9.4205 10.9764C8.98116 10.4994 8.26884 10.4994 7.8295 10.9764C7.39017 11.4535 7.39017 12.2269 7.8295 12.704L10.0795 15.1471C10.5188 15.6241 11.2312 15.6241 11.6705 15.1471L16.1705 10.2609Z" fill="#1C2B36"/>
</svg>
