<svg width="24" height="24" viewBox="0 0 24 24" fill="none" xmlns="http://www.w3.org/2000/svg">
<rect width="24" height="24" rx="12" fill="#1C2B36"/>
<path fill-rule="evenodd" clip-rule="evenodd" d="M7.01869 11.1467C10.1194 9.79572 12.1871 8.90509 13.2216 8.47479C16.1755 7.24618 16.7893 7.03276 17.1893 7.02571C17.2773 7.02416 17.4741 7.04597 17.6015 7.14937C17.7091 7.23669 17.7387 7.35464 17.7529 7.43742C17.767 7.5202 17.7847 7.70879 17.7707 7.85614C17.6106 9.53801 16.918 13.6195 16.5656 15.5032C16.4165 16.3003 16.1229 16.5675 15.8387 16.5937C15.221 16.6505 14.752 16.1855 14.1537 15.7933C13.2176 15.1797 12.6887 14.7977 11.78 14.1988C10.7299 13.5068 11.4106 13.1265 12.0091 12.5049C12.1658 12.3422 14.8873 9.86677 14.9399 9.64221C14.9465 9.61412 14.9526 9.50943 14.8904 9.45416C14.8282 9.39888 14.7365 9.41778 14.6702 9.43281C14.5763 9.45412 13.0808 10.4426 10.1837 12.3982C9.75921 12.6897 9.37471 12.8317 9.03022 12.8243C8.65044 12.8161 7.91991 12.6096 7.37683 12.433C6.71072 12.2165 6.18131 12.102 6.22741 11.7343C6.25142 11.5428 6.51518 11.3469 7.01869 11.1467Z" fill="white"/>
</svg>
