<svg width="24" height="24" viewBox="0 0 24 24" fill="none" xmlns="http://www.w3.org/2000/svg">
<rect width="24" height="24" rx="12" fill="#1C2B36"/>
<g clip-path="url(#clip0_79_3696)">
<path d="M14.6205 6H12.5488V14.1739C12.5488 15.1478 11.752 15.9478 10.7604 15.9478C9.76886 15.9478 8.97206 15.1478 8.97206 14.1739C8.97206 13.2174 9.75115 12.4348 10.7073 12.4V10.3478C8.60022 10.3826 6.90039 12.0696 6.90039 14.1739C6.90039 16.2957 8.63563 18 10.7781 18C12.9206 18 14.6559 16.2783 14.6559 14.1739V9.9826C15.435 10.5391 16.3911 10.8696 17.4004 10.887V8.83478C15.8422 8.78261 14.6205 7.53043 14.6205 6Z" fill="white"/>
</g>
<defs>
<clipPath id="clip0_79_3696">
<rect width="12" height="12" fill="white" transform="translate(6 6)"/>
</clipPath>
</defs>
</svg>
