<svg width="24" height="24" viewBox="0 0 24 24" fill="none" xmlns="http://www.w3.org/2000/svg">
<path d="M12 2.3999C17.3018 2.3999 21.6004 6.69776 21.6006 11.9995C21.6006 17.3014 17.3019 21.6001 12 21.6001C6.69825 21.5999 2.40039 17.3013 2.40039 11.9995C2.4006 6.69789 6.69838 2.40011 12 2.3999ZM12 5.99951C11.3373 5.99951 10.7999 6.53708 10.7998 7.19971V11.9995C10.7998 12.3177 10.9265 12.6231 11.1514 12.8481L14.5459 16.2427L14.6367 16.3247C15.1079 16.709 15.8028 16.6816 16.2422 16.2427C16.6814 15.8033 16.7096 15.1075 16.3252 14.6362L16.2422 14.5454L13.2002 11.5024V7.19971C13.2001 6.53708 12.6627 5.99951 12 5.99951Z" fill="#1C2B36"/>
</svg>
