<svg width="24" height="24" viewBox="0 0 24 24" fill="none" xmlns="http://www.w3.org/2000/svg">
<rect width="24" height="24" rx="12" fill="#1C2B36"/>
<g clip-path="url(#clip0_79_3690)">
<path d="M16.3371 7.27128C16.0437 7.00871 14.8698 6.14378 12.2287 6.12833C12.2287 6.12833 9.12416 5.94299 7.61052 7.33306C6.76103 8.18256 6.46757 9.40274 6.43668 10.9318C6.40579 12.4609 6.35946 15.3183 9.12417 16.106V17.2953C9.12417 17.2953 9.10872 17.7741 9.41763 17.8668C9.80376 17.9903 10.02 17.6196 10.3907 17.2335C10.5915 17.0173 10.8695 16.7084 11.0703 16.4612C12.9546 16.6157 14.4065 16.2605 14.5764 16.1987C14.9625 16.0751 17.1094 15.7971 17.4646 12.9397C17.8353 9.97422 17.3102 8.10533 16.3371 7.27128ZM16.6615 12.708C16.368 15.1021 14.6227 15.2565 14.2983 15.3492C14.1593 15.3955 12.8928 15.7044 11.2865 15.6118C11.2865 15.6118 10.0972 17.0482 9.71109 17.4343C9.64931 17.4961 9.58752 17.5115 9.54119 17.5115C9.47941 17.4961 9.46396 17.4189 9.46396 17.3107C9.46396 17.1563 9.47941 15.3337 9.47941 15.3337C7.14717 14.685 7.28617 12.2447 7.30162 10.9627C7.33251 9.68075 7.56419 8.64591 8.27468 7.93543C9.55664 6.77703 12.1978 6.94693 12.1978 6.94693C14.4219 6.96238 15.4876 7.62652 15.7348 7.8582C16.5379 8.56869 16.9549 10.2522 16.6615 12.708Z" fill="white"/>
<path d="M13.3099 10.8696C13.279 10.2827 12.9856 9.97376 12.4141 9.94287" stroke="white" stroke-width="0.272346" stroke-linecap="round" stroke-linejoin="round"/>
<path d="M14.0828 11.1167C14.0983 10.5761 13.9284 10.1127 13.604 9.75748C13.2642 9.38678 12.8008 9.18599 12.2139 9.13965" stroke="white" stroke-width="0.272346" stroke-linecap="round" stroke-linejoin="round"/>
<path d="M14.8546 11.4257C14.8546 10.4835 14.5612 9.74205 14.0051 9.20144C13.4491 8.66084 12.754 8.38281 11.9199 8.38281" stroke="white" stroke-width="0.272346" stroke-linecap="round" stroke-linejoin="round"/>
<path d="M12.4452 12.8625C12.4452 12.8625 12.6614 12.8779 12.7695 12.7389L12.9858 12.4609C13.0939 12.3219 13.341 12.2292 13.6036 12.3682C13.7426 12.4454 13.9897 12.5999 14.1442 12.7235C14.3141 12.847 14.6539 13.125 14.6539 13.125C14.8238 13.264 14.8547 13.4648 14.7465 13.6811C14.6384 13.8819 14.484 14.0672 14.2832 14.2371C14.1287 14.3761 13.9743 14.4379 13.8198 14.4688H13.758C13.6963 14.4688 13.619 14.4533 13.5572 14.4379C13.3256 14.3761 12.9394 14.2062 12.2753 13.851C11.8583 13.6193 11.503 13.3722 11.2096 13.1405C11.0551 13.0169 10.8852 12.8779 10.7308 12.708L10.669 12.6462C10.4991 12.4763 10.3601 12.3219 10.2365 12.1674C10.0048 11.874 9.7577 11.5187 9.52602 11.1017C9.17077 10.453 9.00088 10.0669 8.9391 9.81974C8.92365 9.75796 8.9082 9.69618 8.9082 9.61895V9.55717C8.92365 9.40272 9.00087 9.24826 9.13988 9.09381C9.30978 8.90847 9.49513 8.75401 9.69591 8.63045C9.91215 8.52233 10.1129 8.55323 10.2519 8.72312C10.2519 8.72312 10.53 9.06292 10.6535 9.23282C10.7616 9.38727 10.9161 9.6344 11.0088 9.77341C11.1478 10.0205 11.0551 10.2831 10.9315 10.3912L10.6535 10.6075C10.5145 10.7156 10.53 10.9318 10.53 10.9318C10.53 10.9318 10.9161 12.4609 12.4452 12.8625Z" fill="white"/>
</g>
<defs>
<clipPath id="clip0_79_3690">
<rect width="12" height="12" fill="white" transform="translate(6 6)"/>
</clipPath>
</defs>
</svg>
