<svg width="104" height="76" viewBox="0 0 104 76" fill="none" xmlns="http://www.w3.org/2000/svg">
<path d="M84.2992 29.1304C83.8279 28.5918 83.8215 27.8384 84.2639 27.2933C85.075 26.3091 85.572 25.4307 85.8123 24.5074C86.3349 22.4909 85.8989 20.4551 84.5909 18.772C83.6772 17.5922 82.3948 16.6849 80.9232 16.1143V12.2768C80.9232 11.9946 80.6924 11.7638 80.4103 11.7638H79.487V9.36896C79.487 8.61556 78.8715 8 78.118 8H76.4157C75.6623 8 75.0467 8.61554 75.0467 9.36896V11.7638H74.1234C73.8413 11.7638 73.6105 11.9946 73.6105 12.2768V16.1143C72.1389 16.6881 70.8566 17.5922 69.9333 18.7816C68.6349 20.4647 68.1988 22.5004 68.7182 24.5106C68.949 25.4243 69.4459 26.3155 70.257 27.2965C70.7091 27.8351 70.7027 28.5949 70.241 29.1336C69.1029 30.4416 68.5066 31.8875 68.5066 33.3301V38.2961H58.3404V34.0226C58.3404 26.7901 53.7078 20.6351 47.2607 18.3264C48.4405 18.1629 49.3478 17.1627 49.3478 15.9413V15.5149C49.3478 14.1812 48.261 13.0944 46.9273 13.0944H43.4393V10.2219C43.4393 9.00043 42.439 8.00022 41.2176 8.00022H34.2671C33.0456 8.00022 32.0454 9.00051 32.0454 10.2219V13.0944H28.5157C27.182 13.0944 26.0952 14.1812 26.0952 15.5149V15.9413C26.0952 17.2749 27.182 18.3617 28.5157 18.3617H28.9869C22.5911 20.6957 18 26.825 18 34.0226V63.2607C18 66.1685 20.3692 68.5281 23.2674 68.5281H48.7096H48.7192H71.4334H71.443H83.6348C84.9428 68.5281 86.0103 67.4669 86.0103 66.1589V33.3302C86.0103 31.8779 85.43 30.4673 84.2759 29.1336L84.2992 29.1304ZM76.0821 9.37569C76.0821 9.18654 76.236 9.03265 76.4252 9.03265H78.1275C78.3167 9.03265 78.4705 9.18654 78.4705 9.37569V11.7609H76.0854V9.37569H76.0821ZM74.6459 12.7932H79.8779L79.894 15.7843C79.0573 15.5631 78.1756 15.4349 77.2683 15.4349C76.361 15.4349 75.4826 15.5631 74.6427 15.7843V12.7932H74.6459ZM76.4925 39.3319C76.6368 39.3319 76.7586 39.4506 76.7586 39.598V45.2405H74.9473V43.4356C74.9473 43.1534 74.7164 42.9226 74.4343 42.9226H69.0067C68.7245 42.9226 68.4937 43.1534 68.4937 43.4356V45.2405H51.7109V43.4356C51.7109 43.1534 51.48 42.9226 51.1979 42.9226H45.7607C45.4786 42.9226 45.2477 43.1534 45.2477 43.4356V45.2405H43.4267V39.598C43.4267 39.4538 43.5453 39.3319 43.6928 39.3319H76.4961H76.4925ZM33.0872 10.2285C33.0872 9.57128 33.6258 9.03271 34.283 9.03271H41.2335C41.8907 9.03271 42.4293 9.5713 42.4293 10.2285V13.101H33.0838V10.2285H33.0872ZM28.5316 17.3425C27.7622 17.3425 27.137 16.7173 27.137 15.9479V15.5215C27.137 14.7521 27.7622 14.127 28.5316 14.127H46.9559C47.7253 14.127 48.3504 14.7521 48.3504 15.5215V15.9479C48.3504 16.7173 47.7253 17.3425 46.9559 17.3425H28.5316ZM23.2835 67.5088C20.94 67.5088 19.042 65.6013 19.042 63.2673V34.0293C19.042 25.3953 26.0694 18.3684 34.703 18.3684H41.6791C50.313 18.3684 57.34 25.3958 57.34 34.0293V38.3028H43.7054C42.9969 38.3028 42.4134 38.883 42.4134 39.5947V45.7501C42.4134 46.0322 42.6443 46.2631 42.9264 46.2631H45.3212L48.1682 67.4991H23.284L23.2835 67.5088ZM71.0041 67.5088H70.8919H70.8823H53.099H53.0894H49.191L46.2768 45.7434V43.9577H50.6881V45.7626C50.6881 46.0447 50.9189 46.2755 51.2011 46.2755H69.0098C69.2919 46.2755 69.5228 46.0447 69.5228 45.7626V43.9577H73.9245V45.6921L71.0007 67.5084L71.0041 67.5088ZM85.0072 66.1656C85.0072 66.9093 84.4013 67.5088 83.6575 67.5088H72.0394L73.5174 56.4455H85.0074L85.0072 66.1656ZM85.0072 55.4125H73.655L74.8765 46.2656H77.2714C77.5535 46.2656 77.7843 46.0348 77.7843 45.7527V40.3827H85.0073L85.0072 55.4125ZM85.0072 39.3634H77.765C77.6528 38.7639 77.1335 38.3119 76.4987 38.3119H69.5482V33.3459C69.5482 32.1404 70.0451 30.951 71.0357 29.8161C71.8212 28.9024 71.8308 27.5688 71.071 26.6519C70.3529 25.7895 69.9329 25.0264 69.7373 24.2667C69.3013 22.5644 69.6604 20.8459 70.7632 19.429C72.1899 17.5824 74.6263 16.4699 77.2777 16.4699C79.929 16.4699 82.3558 17.5728 83.7921 19.4194C84.895 20.846 85.2636 22.5644 84.8276 24.2667C84.6224 25.0361 84.196 25.7959 83.4843 26.6616C82.7149 27.5849 82.7406 28.9185 83.526 29.8258C84.5102 30.9703 85.004 32.1598 85.004 33.3556V39.3827L85.0072 39.3634Z" fill="#59ACF3"/>
<path d="M17.5 63.2607V34.0225C17.5001 27.2144 21.4878 21.3395 27.2363 18.5625C26.2664 18.087 25.5948 17.0921 25.5947 15.9414V15.5146C25.5948 13.905 26.9059 12.5948 28.5156 12.5947V13.0947L28.2686 13.1074C27.0504 13.2318 26.0948 14.2645 26.0947 15.5146V15.9414L26.1074 16.1885C26.2318 17.4067 27.2654 18.3613 28.5156 18.3613H28.9873C22.5915 20.6953 18.0001 26.8249 18 34.0225V63.2607L18.0068 63.5312C18.1438 66.2237 20.3126 68.3848 22.9971 68.5215L23.2676 68.5283H83.6348C84.861 68.5283 85.8758 67.5955 85.998 66.4014L86.0107 66.1592V33.3301C86.0107 31.878 85.4303 30.4673 84.2764 29.1338L84.2988 29.1299C83.8279 28.5913 83.8214 27.8379 84.2637 27.293C84.9734 26.4318 85.4427 25.6517 85.71 24.8516L85.8125 24.5078C86.3024 22.6174 85.9498 20.7096 84.8262 19.0918L84.5908 18.7725C83.6771 17.5927 82.3944 16.6849 80.9229 16.1143V12.2764C80.9226 11.9944 80.6921 11.7637 80.4102 11.7637V11.2637C80.9683 11.2637 81.4226 11.7183 81.4229 12.2764V15.7783C82.8357 16.3819 84.077 17.2923 84.9854 18.4648C86.3855 20.2665 86.8586 22.4615 86.2959 24.6328V24.6338C86.0316 25.6487 85.4897 26.5896 84.6514 27.6074L84.6523 27.6084C84.3621 27.966 84.3662 28.447 84.6758 28.8008L85.2842 29.4961L85.2031 29.5068C86.0609 30.713 86.5107 31.9954 86.5107 33.3301V66.1592C86.5106 67.7449 85.2171 69.0283 83.6348 69.0283H23.2676C20.1931 69.0283 17.663 66.6042 17.5078 63.5576L17.5 63.2607ZM84.5068 66.166L84.5078 56.9453H73.9551L72.6104 67.0088H83.6572V67.5088H72.0391L73.5176 56.4453H85.0078L85.0068 66.166L85 66.3027C84.9309 66.9817 84.3546 67.5088 83.6572 67.5088V67.0088C84.1278 67.0088 84.5066 66.6303 84.5068 66.166ZM53.0986 67.0088V67.5088H53.0898V67.0088H53.0986ZM85.0068 40.3828V55.4121H73.6553L74.877 46.2656H77.2715L77.374 46.2549C77.5741 46.2138 77.7323 46.0555 77.7734 45.8555L77.7842 45.7529V40.3828H85.0068ZM50.1885 45.7627V44.458H46.7764V45.7051L49.6289 67.0088H53.0898V67.5088H49.1914L46.2764 45.7432V43.958H50.6885V45.7627L50.6982 45.8652C50.7392 46.0652 50.8978 46.2233 51.0977 46.2646L51.2012 46.2754H69.0098C69.2568 46.2754 69.4648 46.0986 69.5127 45.8652L69.5225 45.7627V43.958H73.9248V45.6924L71.001 67.5088H53.0986V67.0088H70.5635L73.4248 45.6543V44.458H70.0225V45.7627C70.0224 46.3209 69.568 46.7754 69.0098 46.7754H51.2012C50.6429 46.7754 50.1885 46.3209 50.1885 45.7627ZM76.4922 39.332C76.6363 39.332 76.7586 39.4504 76.7588 39.5977V45.2402H74.9473V43.4355C74.9473 43.1886 74.7705 42.9805 74.5371 42.9326L74.4346 42.9229V42.4229C74.9927 42.423 75.4473 42.8774 75.4473 43.4355V44.7402H76.2588V39.832H43.9268V44.7402H44.748V43.4355C44.7481 42.8773 45.2025 42.4229 45.7607 42.4229V42.9229C45.4786 42.9229 45.2481 43.1534 45.248 43.4355V45.2402H43.4268V39.5977C43.4269 39.4717 43.5175 39.3633 43.6387 39.3379L43.6924 39.332H76.4922ZM51.7109 43.4355C51.7109 43.1886 51.5341 42.9805 51.3008 42.9326L51.1982 42.9229V42.4229C51.7564 42.423 52.2109 42.8774 52.2109 43.4355V44.7402H67.9941V43.4355C67.9941 42.8773 68.4486 42.4229 69.0068 42.4229V42.9229C68.7247 42.9229 68.4941 43.1534 68.4941 43.4355V45.2402H51.7109V43.4355ZM74.4346 42.4229V42.9229H69.0068V42.4229H74.4346ZM51.1982 42.4229V42.9229H45.7607V42.4229H51.1982ZM69.5479 33.3457C69.5479 32.2156 69.9847 31.0994 70.8555 30.0293L71.0361 29.8164C71.8214 28.9028 71.8307 27.5692 71.0713 26.6523C70.3532 25.7899 69.9329 25.0263 69.7373 24.2666C69.3286 22.6707 69.6189 21.0608 70.5654 19.6982L70.7637 19.4287C72.1903 17.5824 74.6263 16.4698 77.2773 16.4697C79.9285 16.4697 82.3557 17.5725 83.792 19.4189C84.8949 20.8456 85.2632 22.5643 84.8271 24.2666C84.622 25.0359 84.1959 25.7956 83.4844 26.6611L83.3496 26.8389C82.721 27.7495 82.7899 28.9755 83.5264 29.8262C84.5103 30.9705 85.0039 32.1598 85.0039 33.3555V39.3633H77.7646C77.6594 38.8013 77.1967 38.3692 76.6162 38.3174L76.499 38.3115V37.8115C77.2286 37.8117 77.8471 38.2438 78.127 38.8633H84.5039V33.3555C84.5039 32.3067 84.0725 31.2282 83.1465 30.1514V30.1504C82.2066 29.0625 82.1712 27.4581 83.0977 26.3438C83.7796 25.5143 84.1614 24.8191 84.3428 24.1426C84.7393 22.5947 84.4082 21.0344 83.3965 19.7256V19.7246C82.0678 18.0174 79.796 16.9697 77.2773 16.9697C74.7585 16.9698 72.4781 18.0274 71.1592 19.7344L71.1582 19.7363C70.1493 21.0326 69.825 22.5915 70.2217 24.1416L70.2959 24.3936C70.464 24.9006 70.7537 25.432 71.2119 26.0283L71.4551 26.332L71.4561 26.333C72.3717 27.4381 72.3585 29.0437 71.415 30.1416L71.4121 30.1445C70.4817 31.2104 70.0479 32.2877 70.0479 33.3457V37.8115H76.499V38.3115H69.5479V33.3457ZM56.8398 34.0293C56.8398 25.6719 50.0365 18.8682 41.6787 18.8682H34.7031C26.3457 18.8682 19.542 25.6715 19.542 34.0293V63.2676C19.5421 65.2402 21.0803 66.8668 23.0273 66.999H47.5967L44.8848 46.7627H42.9268C42.3685 46.7627 41.9131 46.3083 41.9131 45.75V39.5947C41.9131 38.6062 42.7214 37.8029 43.7051 37.8027V38.3027C42.9967 38.3029 42.4131 38.8831 42.4131 39.5947V45.75C42.4131 45.9968 42.5901 46.2049 42.8232 46.2529L42.9268 46.2627H45.3213L48.168 67.499H23.2842L23.2832 67.5088C21.0129 67.5086 19.1611 65.7183 19.0479 63.4844L19.042 63.2676V34.0293C19.042 25.5301 25.8517 18.5877 34.2998 18.373L34.7031 18.3682H41.6787C50.3127 18.3682 57.3398 25.3958 57.3398 34.0293V38.3027H43.7051V37.8027H56.8398V34.0293ZM68.0068 33.3301C68.0069 31.7447 68.6626 30.1872 69.8623 28.8076C70.166 28.4525 70.1665 27.9668 69.874 27.6182L69.8721 27.6152C69.0308 26.5978 68.488 25.6407 68.2334 24.6328V24.6318C67.6756 22.4683 68.1489 20.2764 69.5371 18.4766L69.5381 18.4746C70.4555 17.2929 71.6978 16.3851 73.1104 15.7793V12.2764C73.1106 11.7184 73.5651 11.2639 74.123 11.2637V11.7637C73.8412 11.7639 73.6106 11.9946 73.6104 12.2764V16.1143C72.139 16.6881 70.8569 17.5921 69.9336 18.7812C68.6352 20.4644 68.1984 22.5006 68.7178 24.5107C68.9486 25.4244 69.4457 26.3159 70.2568 27.2969C70.7088 27.8355 70.7028 28.5952 70.2412 29.1338L70.0342 29.3809C69.031 30.6227 68.5068 31.9777 68.5068 33.3301V38.2959H58.3408V34.0225C58.3407 26.79 53.7078 20.6348 47.2607 18.3262C48.3666 18.1729 49.2327 17.2846 49.3369 16.168L49.3477 15.9414V15.5146C49.3475 14.2643 48.3923 13.2315 47.1738 13.1074L46.9277 13.0947V12.5947C48.5373 12.595 49.8475 13.9051 49.8477 15.5146V15.9414C49.8476 16.9327 49.3518 17.7992 48.5977 18.3232C54.6203 20.9936 58.8407 27.0157 58.8408 34.0225V37.7959H68.0068V33.3301ZM46.9561 16.8428V17.3428H28.5312V16.8428H46.9561ZM47.8506 15.9482V15.5215C47.8506 15.0283 47.4492 14.6271 46.9561 14.627H28.5312C28.0382 14.6271 27.6367 15.0283 27.6367 15.5215V15.9482C27.6369 16.4412 28.0382 16.8426 28.5312 16.8428V17.3428L28.3887 17.335C27.7332 17.268 27.2115 16.7462 27.1445 16.0908L27.1367 15.9482V15.5215C27.1367 14.7522 27.762 14.1271 28.5312 14.127H46.9561L47.0986 14.1338C47.8012 14.2054 48.3506 14.8003 48.3506 15.5215V15.9482L48.3428 16.0908C48.2758 16.7463 47.7541 17.2681 47.0986 17.335L46.9561 17.3428V16.8428C47.4491 16.8427 47.8504 16.4413 47.8506 15.9482ZM79.8936 15.7842C79.1616 15.5907 78.3952 15.468 77.6074 15.4404L77.2686 15.4346C76.3613 15.4346 75.4825 15.563 74.6426 15.7842V12.793H79.8779L79.8936 15.7842ZM75.1426 15.1543C75.8284 15.014 76.5388 14.9346 77.2686 14.9346C77.9959 14.9346 78.7059 15.0137 79.3896 15.1533L79.3809 13.293H75.1426V15.1543ZM41.9297 10.2285C41.9297 9.84746 41.6145 9.53223 41.2334 9.53223H34.2832C33.9021 9.53223 33.5869 9.84745 33.5869 10.2285V10.7285H33.584V12.6006H41.9297V10.2285ZM43.4395 10.2217C43.4393 9.07649 42.5598 8.12586 41.4434 8.01172L41.2178 8V7.5C42.7151 7.5001 43.9393 8.72422 43.9395 10.2217V12.5947H46.9277V13.0947H43.4395V10.2217ZM31.5459 10.2217C31.546 8.72426 32.77 7.5 34.2676 7.5V8C33.0462 8 32.046 9.00039 32.0459 10.2217V13.0947H28.5156V12.5947H31.5459V10.2217ZM79.4873 9.36914C79.4873 8.66291 78.9461 8.07732 78.2578 8.00684L78.1182 8V7.5C79.1477 7.50007 79.9873 8.33965 79.9873 9.36914V11.2637H80.4102V11.7637H79.4873V9.36914ZM74.5469 9.36914C74.5469 8.33957 75.3865 7.5 76.416 7.5V8C75.6626 8 75.0469 8.61572 75.0469 9.36914V11.7637H74.123V11.2637H74.5469V9.36914ZM76.585 11.2607H77.9707V9.53223H76.585V11.2607ZM78.1182 7.5V8H76.416V7.5H78.1182ZM41.2178 7.5V8H34.2676V7.5H41.2178ZM78.2842 45.7529C78.284 46.311 77.8296 46.7656 77.2715 46.7656H75.3145L74.2256 54.9121H84.5068V40.8828H78.2842V45.7529ZM42.4297 13.1006H33.084V10.2285H33.0869C33.0869 9.61243 33.5605 9.10072 34.1611 9.03906L34.2832 9.03223H41.2334C41.8906 9.03223 42.4297 9.57133 42.4297 10.2285V13.1006ZM78.4707 11.7607H76.085V9.37598H76.082C76.082 9.18695 76.2358 9.03243 76.4248 9.03223H78.1279L78.1963 9.04004C78.3525 9.07201 78.4707 9.21041 78.4707 9.37598V11.7607Z" fill="#59ACF3"/>
<path d="M32.7227 27.1562C33.1427 27.1563 33.4852 27.4989 33.4854 27.9189V36.1426C33.4854 36.6881 33.7391 37.2141 34.1738 37.5508L37.6709 40.2441C38.476 40.8653 38.958 41.8455 38.958 42.8623V53.8994C38.958 57.1249 36.3325 59.741 33.1172 59.7412H30.3369C27.1114 59.741 24.4961 57.1148 24.4961 53.8994V35.3828C24.4961 30.8429 28.1894 27.1562 32.7227 27.1562ZM31.9561 28.7148C28.614 29.0972 26.0186 31.9395 26.0186 35.374V53.8906C26.0186 56.2752 27.9583 58.206 30.334 58.2061H33.1133C35.4979 58.2061 37.4287 56.2663 37.4287 53.8906V42.8535C37.4287 42.3079 37.1751 41.782 36.7402 41.4453L33.2432 38.752L33.2412 38.751C32.4386 38.1213 31.9561 37.1517 31.9561 36.1338V28.7148Z" fill="#59ACF3" stroke="#59ACF3" stroke-width="0.5"/>
</svg>
