<svg width="76" height="76" viewBox="0 0 76 76" fill="none" xmlns="http://www.w3.org/2000/svg">
<path d="M65.19 8H9.83C8.27 8 7 9.27 7 10.83V66.17C7 67.73 8.27 69 9.83 69H65.18C66.74 69 68.01 67.73 68.01 66.17V10.83C68.02 9.27 66.75 8 65.19 8ZM66.55 66.17C66.55 66.92 65.94 67.53 65.18 67.53H9.83C9.08 67.53 8.46 66.92 8.46 66.17V10.83C8.46 10.08 9.07 9.47 9.83 9.47H65.18C65.93 9.47 66.55 10.08 66.55 10.83V66.17Z" fill="#59ACF3"/>
<path d="M13.3402 36.6599H23.7802C24.1802 36.6599 24.5102 36.3299 24.5102 35.9299C24.5102 35.5299 24.1802 35.1999 23.7802 35.1999H13.3402C12.8102 35.1999 12.3702 34.7699 12.3702 34.2399V14.3299C12.3702 13.7999 12.8002 13.3599 13.3402 13.3599H32.9302C33.4602 13.3599 33.9002 13.7899 33.9002 14.3299V24.9999C33.9002 25.3999 34.2302 25.7299 34.6302 25.7299C35.0302 25.7299 35.3602 25.3999 35.3602 24.9999V14.3299C35.3602 12.9899 34.2702 11.8999 32.9302 11.8999H13.3402C12.0002 11.8999 10.9102 12.9899 10.9102 14.3299V34.2299C10.9102 35.5699 12.0002 36.6599 13.3402 36.6599Z" fill="#59ACF3"/>
<path d="M34.6202 53.0601C34.2202 53.0601 33.8902 53.3901 33.8902 53.7901V62.6701C33.8902 63.2001 33.4602 63.6401 32.9202 63.6401H13.3402C12.8102 63.6401 12.3702 63.2101 12.3702 62.6701V42.7701C12.3702 42.2401 12.8002 41.8001 13.3402 41.8001H23.7802C24.1802 41.8001 24.5102 41.4701 24.5102 41.0701C24.5102 40.6701 24.1802 40.3401 23.7802 40.3401H13.3402C12.0002 40.3401 10.9102 41.4301 10.9102 42.7701V62.6701C10.9102 64.0101 12.0002 65.1001 13.3402 65.1001H32.9302C34.2702 65.1001 35.3602 64.0101 35.3602 62.6701V53.7901C35.3502 53.3801 35.0302 53.0601 34.6202 53.0601Z" fill="#59ACF3"/>
<path d="M61.6793 11.8999H41.4593C40.1193 11.8999 39.0293 12.9899 39.0293 14.3299V19.8799C39.0293 20.2799 39.3593 20.6099 39.7593 20.6099C40.1593 20.6099 40.4893 20.2799 40.4893 19.8799V14.3299C40.4893 13.7999 40.9193 13.3599 41.4593 13.3599H61.6793C62.2093 13.3599 62.6493 13.7899 62.6493 14.3299V34.2299C62.6493 34.7599 62.2193 35.1899 61.6793 35.1899H51.5693C51.1693 35.1899 50.8393 35.5199 50.8393 35.9199C50.8393 36.3199 51.1693 36.6499 51.5693 36.6499H61.6793C63.0193 36.6499 64.1093 35.5599 64.1093 34.2199V14.3299C64.1093 12.9899 63.0193 11.8999 61.6793 11.8999Z" fill="#59ACF3"/>
<path d="M61.6793 40.3401H51.2393C50.8393 40.3401 50.5093 40.6701 50.5093 41.0701C50.5093 41.4701 50.8393 41.8001 51.2393 41.8001H61.6793C62.2093 41.8001 62.6493 42.2301 62.6493 42.7701V62.6701C62.6493 63.2001 62.2193 63.6401 61.6793 63.6401H41.4593C40.9293 63.6401 40.4893 63.2101 40.4893 62.6701V53.7901C40.4893 53.3901 40.1593 53.0601 39.7593 53.0601C39.3593 53.0601 39.0293 53.3901 39.0293 53.7901V62.6701C39.0293 64.0101 40.1193 65.1001 41.4593 65.1001H61.6793C63.0193 65.1001 64.1093 64.0101 64.1093 62.6701V42.7701C64.1093 41.4301 63.0193 40.3401 61.6793 40.3401Z" fill="#59ACF3"/>
<path d="M41.2096 47.7699L54.0596 60.6199C54.7196 61.2799 55.5796 61.5999 56.4396 61.5999C57.2996 61.5999 58.1596 61.2699 58.8196 60.6199C59.4596 59.9799 59.8096 59.1399 59.8096 58.2399C59.8096 57.3399 59.4596 56.4999 58.8196 55.8599L45.9696 43.0099L47.8296 41.1499C49.2396 39.7299 49.2396 37.4299 47.8296 36.0099L47.1996 35.3799L51.5596 31.0199C51.8296 30.7499 51.9796 30.3899 51.9796 29.9999C51.9796 29.6199 51.8296 29.2599 51.5596 28.9799L49.8796 27.2999C49.3196 26.7399 48.4096 26.7399 47.8496 27.2999L47.0996 28.0499L44.8596 25.8099C44.0096 24.9699 42.6396 24.9699 41.7996 25.8099L24.0196 43.5999C23.1796 44.4499 23.1796 45.8199 24.0196 46.6599L26.2596 48.8999L25.5096 49.6399C25.2396 49.9099 25.0896 50.2699 25.0896 50.6599C25.0896 51.0399 25.2396 51.3999 25.5096 51.6799L27.1896 53.3599C27.4596 53.6299 27.8196 53.7799 28.2096 53.7799C28.5996 53.7799 28.9496 53.6299 29.2296 53.3599L33.5896 48.9999L34.2196 49.6299C34.9296 50.3399 35.8596 50.6899 36.7896 50.6899C37.7196 50.6899 38.6496 50.3399 39.3596 49.6299L41.2096 47.7699ZM58.3396 58.2399C58.3396 58.7499 58.1396 59.2299 57.7796 59.5799C57.0396 60.3199 55.8297 60.3199 55.0896 59.5799L42.2496 46.7399L44.9396 44.0499L57.7896 56.8999C58.1396 57.2499 58.3396 57.7299 58.3396 58.2399ZM27.2896 47.8599L25.0496 45.6199C24.7796 45.3499 24.7796 44.8999 25.0496 44.6299L42.8196 26.8599C42.9596 26.7199 43.1396 26.6499 43.3196 26.6499C43.4996 26.6499 43.6796 26.7199 43.8196 26.8599L46.0596 29.0999L27.2896 47.8599ZM28.2296 52.3199L26.5496 50.6799L48.8596 28.3699L50.5196 29.9999L28.2296 52.3199ZM35.2396 48.5999L34.6096 47.9699L40.3796 42.1999L46.1496 36.4299L46.7796 37.0599C47.6296 37.9099 47.6296 39.2799 46.7796 40.1299L38.3096 48.5999C37.4696 49.4399 36.0896 49.4399 35.2396 48.5999Z" fill="#59ACF3"/>
<path d="M32.0594 26C31.7894 26.3 31.7994 26.76 32.0994 27.03L32.3394 27.25C32.4794 27.38 32.6594 27.44 32.8394 27.44C33.0394 27.44 33.2294 27.36 33.3794 27.21C33.6494 26.91 33.6394 26.45 33.3394 26.18L33.0994 25.96C32.7994 25.68 32.3294 25.7 32.0594 26Z" fill="#59ACF3"/>
<path d="M30.8697 25.63C31.0697 25.63 31.2597 25.55 31.4097 25.39C31.6797 25.09 31.6697 24.63 31.3697 24.36L28.9497 22.13C28.6597 21.86 28.1897 21.87 27.9197 22.17C27.6497 22.47 27.6597 22.93 27.9597 23.2L30.3797 25.43C30.5097 25.56 30.6897 25.63 30.8697 25.63Z" fill="#59ACF3"/>
<path d="M31.1101 32.66C31.3101 32.66 31.5001 32.58 31.6501 32.42C31.9201 32.12 31.9101 31.66 31.6101 31.39L26.5601 26.72C26.2601 26.45 25.8001 26.46 25.5301 26.76C25.2601 27.06 25.2701 27.52 25.5701 27.79L30.6201 32.46C30.7501 32.6 30.9301 32.66 31.1101 32.66Z" fill="#59ACF3"/>
<path d="M23.5292 25.9201C23.6692 26.0501 23.8492 26.1101 24.0292 26.1101C24.2292 26.1101 24.4192 26.0301 24.5692 25.8701C24.8392 25.5701 24.8292 25.1101 24.5292 24.8401L23.6792 24.0501C23.3792 23.7801 22.9192 23.7901 22.6492 24.0901C22.3792 24.3901 22.3892 24.8501 22.6892 25.1201L23.5292 25.9201Z" fill="#59ACF3"/>
<path d="M22.6296 32.37L24.8496 34.42C24.9896 34.55 25.1696 34.61 25.3496 34.61C25.5496 34.61 25.7396 34.53 25.8896 34.38C26.1596 34.08 26.1496 33.62 25.8496 33.35L23.6296 31.3C23.3396 31.03 22.8696 31.05 22.5996 31.34C22.3196 31.63 22.3396 32.09 22.6296 32.37Z" fill="#59ACF3"/>
<path d="M20.1395 29.0999C19.8695 29.3999 19.8795 29.8599 20.1795 30.1299L20.6095 30.5199C20.7495 30.6499 20.9295 30.7099 21.1095 30.7099C21.3095 30.7099 21.4995 30.6299 21.6495 30.4799C21.9195 30.1799 21.9095 29.7199 21.6095 29.4499L21.1795 29.0599C20.8795 28.7899 20.4195 28.7999 20.1395 29.0999Z" fill="#59ACF3"/>
</svg>
