<svg width="76" height="76" viewBox="0 0 76 76" fill="none" xmlns="http://www.w3.org/2000/svg">
<path d="M43.9795 57.99H8.57953C7.96953 57.99 7.47953 57.5 7.47953 56.89V8.56C7.47953 7.95 7.96953 7.46 8.57953 7.46H56.9195C57.5295 7.46 58.0195 7.95 58.0195 8.56V22.05C58.0195 22.45 58.3495 22.78 58.7495 22.78C59.1495 22.78 59.4795 22.45 59.4795 22.05V8.56C59.4795 7.15 58.3295 6 56.9195 6H8.57953C7.16953 6 6.01953 7.15 6.01953 8.56V56.89C6.01953 58.3 7.16953 59.45 8.57953 59.45H43.9795C44.3795 59.45 44.7095 59.12 44.7095 58.72C44.7095 58.32 44.3795 57.99 43.9795 57.99Z" fill="#59ACF3"/>
<path d="M30.9597 11.6602C30.9597 10.4202 29.9497 9.41016 28.7097 9.41016H11.6797C10.4397 9.41016 9.42969 10.4202 9.42969 11.6602V28.9602C9.42969 30.2002 10.4397 31.2102 11.6797 31.2102H28.7097C29.9497 31.2102 30.9597 30.2002 30.9597 28.9602V11.6602ZM29.4997 28.9602C29.4997 29.4002 29.1497 29.7502 28.7097 29.7502H11.6797C11.2397 29.7502 10.8897 29.4002 10.8897 28.9602V11.6602C10.8897 11.2202 11.2397 10.8702 11.6797 10.8702H28.7097C29.1497 10.8702 29.4997 11.2202 29.4997 11.6602V28.9602Z" fill="#59ACF3"/>
<path d="M55.3508 23.3502C55.7508 23.3502 56.0808 23.0202 56.0808 22.6202V11.6602C56.0808 10.4202 55.0708 9.41016 53.8308 9.41016H36.8008C35.5608 9.41016 34.5508 10.4202 34.5508 11.6602V28.9602C34.5508 30.2002 35.5608 31.2102 36.8008 31.2102H37.6908C38.0908 31.2102 38.4208 30.8802 38.4208 30.4802C38.4208 30.0802 38.0908 29.7502 37.6908 29.7502H36.8008C36.3608 29.7502 36.0108 29.4002 36.0108 28.9602V11.6602C36.0108 11.2202 36.3608 10.8702 36.8008 10.8702H53.8308C54.2708 10.8702 54.6208 11.2202 54.6208 11.6602V22.6202C54.6108 23.0302 54.9408 23.3502 55.3508 23.3502Z" fill="#59ACF3"/>
<path d="M45.9996 29.4902H41.3296C40.9296 29.4902 40.5996 29.8202 40.5996 30.2202C40.5996 30.6202 40.9296 30.9502 41.3296 30.9502H45.9996C46.3996 30.9502 46.7296 30.6202 46.7296 30.2202C46.7296 29.8102 46.3996 29.4902 45.9996 29.4902Z" fill="#59ACF3"/>
<path d="M28.7097 34.2402H11.6797C10.4397 34.2402 9.42969 35.2502 9.42969 36.4902V53.7902C9.42969 55.0302 10.4397 56.0402 11.6797 56.0402H28.7097C29.9497 56.0402 30.9597 55.0302 30.9597 53.7902V36.5002C30.9597 35.2502 29.9497 34.2402 28.7097 34.2402ZM29.4997 53.8002C29.4997 54.2402 29.1497 54.5902 28.7097 54.5902H11.6797C11.2397 54.5902 10.8897 54.2402 10.8897 53.8002V36.5002C10.8897 36.0602 11.2397 35.7102 11.6797 35.7102H28.7097C29.1497 35.7102 29.4997 36.0602 29.4997 36.5002V53.8002Z" fill="#59ACF3"/>
<path d="M44.9708 54.59H36.8008C36.3608 54.59 36.0108 54.24 36.0108 53.8V36.5C36.0108 36.06 36.3608 35.71 36.8008 35.71H39.0208C39.4208 35.71 39.7508 35.38 39.7508 34.98C39.7508 34.58 39.4208 34.25 39.0208 34.25H36.8008C35.5608 34.25 34.5508 35.26 34.5508 36.5V53.8C34.5508 55.04 35.5608 56.05 36.8008 56.05H44.9708C45.3708 56.05 45.7008 55.72 45.7008 55.32C45.7008 54.91 45.3708 54.59 44.9708 54.59Z" fill="#59ACF3"/>
<path d="M69.3295 28.5299L68.3095 27.6399C67.6095 27.0299 66.7095 26.6899 65.7795 26.6899H50.0295C49.2295 26.6899 48.5795 27.3399 48.5795 28.1399V31.9899C48.5795 32.7899 49.2295 33.4399 50.0295 33.4399H54.2995C54.2695 34.4699 53.6895 35.4399 52.7595 35.9399C52.3895 36.1299 51.9795 36.2399 51.5595 36.2699C51.2595 36.2899 50.9895 36.4899 50.8995 36.7799C50.8095 37.0699 50.9095 37.3899 51.1495 37.5799C51.9395 38.1999 52.8895 38.5099 53.8495 38.5099C54.5495 38.5099 55.2495 38.3399 55.8895 37.9999C56.6395 37.5999 57.2495 36.9999 57.6595 36.2799L58.2595 37.1599C57.6795 37.3899 57.2695 37.9599 57.2695 38.6199V40.5799C56.0795 41.0799 55.2395 42.2499 55.2395 43.6099V45.0299V45.0499C55.2395 47.4299 53.7295 49.5299 51.4695 50.2799L49.7595 50.8499C48.4195 51.2999 47.5195 52.5499 47.5195 53.9599V66.6999C47.5195 68.5099 48.9895 69.9799 50.8095 69.9799H65.1695C66.9795 69.9799 68.4495 68.5099 68.4495 66.6999V43.5999C68.4495 42.1599 67.5195 40.9499 66.2295 40.5099V38.6199C66.2295 37.9999 65.8595 37.4599 65.3395 37.1999V36.2399C65.3395 35.8499 65.5795 35.4899 65.9495 35.3499L68.7795 34.2499C69.4995 33.9699 69.9795 33.2599 69.9795 32.4899V29.9399C69.9795 29.4099 69.7495 28.8899 69.3295 28.5299ZM50.0295 28.1499H51.7495V31.9799L50.0495 31.9899L50.0295 28.1499ZM55.1995 36.7099C54.7495 36.9499 54.2395 37.0599 53.7695 37.0499C54.9595 36.2799 55.6895 34.9999 55.7595 33.6199C55.8295 33.6699 55.8995 33.7199 55.9495 33.7899L56.6795 34.8499C56.4695 35.6399 55.9495 36.3099 55.1995 36.7099ZM64.6595 38.5099C64.7195 38.5099 64.7795 38.5599 64.7795 38.6299V40.3299H58.7395V38.6299C58.7395 38.5699 58.7895 38.5099 58.8595 38.5099H64.6195H64.6595ZM65.1695 68.5399H50.8095C49.8095 68.5399 48.9895 67.7199 48.9895 66.7199V53.9799C48.9895 53.1999 49.4895 52.4999 50.2295 52.2499L51.9395 51.6799C54.5595 50.7999 56.3695 48.4799 56.6495 45.7699H66.9995V66.7199C66.9895 67.7199 66.1795 68.5399 65.1695 68.5399ZM66.9895 43.6099V44.2999H56.7095V43.6099C56.7095 42.6099 57.5295 41.7899 58.5295 41.7899H65.1795C66.1795 41.7899 66.9895 42.6099 66.9895 43.6099ZM68.5195 32.4999C68.5195 32.6699 68.4095 32.8299 68.2495 32.8899L65.4195 33.9999C64.4995 34.3599 63.8795 35.2599 63.8795 36.2499V37.0499H59.9495L57.1595 32.9699C56.7495 32.3499 56.0495 31.9899 55.2995 31.9899H54.9695C54.9595 31.9899 54.9595 31.9899 54.9495 31.9899H53.1995V28.1499H65.7695C66.3495 28.1499 66.9095 28.3599 67.3395 28.7399L68.3595 29.6299C68.4495 29.7099 68.5095 29.8299 68.5095 29.9499V32.4999H68.5195Z" fill="#59ACF3"/>
<path d="M41.3402 24.7601L45.6102 27.4101C45.7302 27.4901 45.8602 27.5201 45.9902 27.5201C46.2302 27.5201 46.4702 27.4001 46.6102 27.1701C46.8202 26.8301 46.7202 26.3801 46.3702 26.1601L42.1002 23.5101C41.7602 23.2901 41.3102 23.4001 41.0902 23.7501C40.8902 24.0901 40.9902 24.5401 41.3402 24.7601Z" fill="#59ACF3"/>
<path d="M45.64 33.13L41.27 35.54C40.92 35.74 40.79 36.18 40.98 36.53C41.11 36.77 41.36 36.91 41.62 36.91C41.74 36.91 41.86 36.88 41.97 36.82L46.34 34.41C46.69 34.21 46.82 33.77 46.63 33.42C46.44 33.06 45.99 32.93 45.64 33.13Z" fill="#59ACF3"/>
<path d="M18.7598 13.7098L14.1798 18.7498C13.9098 19.0498 13.9298 19.5098 14.2298 19.7798C14.3698 19.9098 14.5498 19.9698 14.7198 19.9698C14.9198 19.9698 15.1198 19.8898 15.2598 19.7298L19.8398 14.6898C20.1098 14.3898 20.0898 13.9298 19.7898 13.6598C19.4898 13.3798 19.0298 13.4098 18.7598 13.7098Z" fill="#59ACF3"/>
<path d="M16.6198 14.1401C16.8998 13.8501 16.8898 13.3901 16.5998 13.1101C16.3098 12.8301 15.8498 12.8401 15.5698 13.1301L13.4598 15.3101C13.1798 15.6001 13.1898 16.0601 13.4798 16.3401C13.6198 16.4801 13.7998 16.5401 13.9898 16.5401C14.1798 16.5401 14.3698 16.4601 14.5198 16.3201L16.6198 14.1401Z" fill="#59ACF3"/>
<path d="M18.1309 38.41L13.5509 43.45C13.2809 43.75 13.3009 44.21 13.6009 44.48C13.7409 44.61 13.9209 44.67 14.0909 44.67C14.2909 44.67 14.4909 44.59 14.6309 44.43L19.2109 39.39C19.4809 39.09 19.4609 38.63 19.1609 38.36C18.8609 38.09 18.4009 38.11 18.1309 38.41Z" fill="#59ACF3"/>
<path d="M15.9791 38.8501C16.2591 38.5601 16.2491 38.1001 15.9591 37.8201C15.6691 37.5401 15.2091 37.5501 14.9291 37.8401L12.8191 40.0201C12.5391 40.3101 12.5491 40.7701 12.8391 41.0501C12.9791 41.1901 13.1591 41.2501 13.3491 41.2501C13.5391 41.2501 13.7291 41.1701 13.8791 41.0301L15.9791 38.8501Z" fill="#59ACF3"/>
<path d="M39.0792 19.4302C39.2792 19.4302 39.4792 19.3502 39.6192 19.1902L44.1992 14.1502C44.4692 13.8502 44.4492 13.3902 44.1492 13.1202C43.8492 12.8502 43.3892 12.8702 43.1192 13.1702L38.5392 18.2102C38.2692 18.5102 38.2892 18.9702 38.5892 19.2402C38.7292 19.3702 38.9092 19.4302 39.0792 19.4302Z" fill="#59ACF3"/>
<path d="M40.9791 13.6099C41.2591 13.3199 41.2491 12.8599 40.9591 12.5799C40.6691 12.2999 40.2091 12.3099 39.9291 12.5999L37.8191 14.7799C37.5391 15.0699 37.5491 15.5299 37.8391 15.8099C37.9791 15.9499 38.1591 16.0099 38.3491 16.0099C38.5391 16.0099 38.7291 15.9299 38.8791 15.7899L40.9791 13.6099Z" fill="#59ACF3"/>
<path d="M57.9898 53.8501C54.8298 53.8501 52.2598 56.4201 52.2598 59.5901C52.2598 62.7501 54.8298 65.3201 57.9898 65.3201C61.1498 65.3201 63.7298 62.7501 63.7298 59.5901C63.7298 56.4301 61.1498 53.8501 57.9898 53.8501ZM57.9898 63.8601C55.6398 63.8601 53.7198 61.9501 53.7198 59.5901C53.7198 57.2301 55.6298 55.3201 57.9898 55.3201C60.3498 55.3201 62.2698 57.2401 62.2698 59.5901C62.2598 61.9401 60.3398 63.8601 57.9898 63.8601Z" fill="#59ACF3"/>
</svg>
